<svg width="300" height="250" viewBox="0 0 300 250" fill="none" xmlns="http://www.w3.org/2000/svg"><path stroke="#fff" stroke-opacity=".15" d="M228.46 9.75l18.85 1M228.46 20.75l14.5.25M228.46 31l14.5.25M228.46 41.25l14.5.25M228.46 51.5l29 .5M228.46 62l14.5.25M228.46 72.25l14.5.25M228.46 82.5l14.5.25M228.46 92.75l18.85 1M228.46 103.75l14.5.25M228.46 114l14.5.25M228.46 124.25l14.5.25M228.46 134.5l29 .5M228.46 145l14.5.25M228.46 155.25l14.5.25M228.46 165.5l14.5.25M228.46 175.75l18.85 1M228.46 186.75l14.5.25M228.46 197l14.5.25M228.46 207.25l14.5.25M228.46 217.5l29 .5M228.46 228l14.5.25M228.46 238.25l14.5.25M228.46 248.5l14.5.25M148 0v250M188 0v250M228 0v250M268 0v250"/></svg>