<svg width="300" height="250" viewBox="0 0 300 250" fill="none" xmlns="http://www.w3.org/2000/svg"><path d="M233.07 23.4a1.94 1.94 0 000 3.89 1.94 1.94 0 000-3.89zm0 3.49a1.54 1.54 0 010-3.1 1.55 1.55 0 010 3.1z" fill="#fff"/><path d="M233.6 25.48a.4.4 0 00-.2-.12c.13-.04.23-.1.3-.19.06-.08.09-.2.09-.33 0-.2-.06-.33-.19-.42-.12-.1-.32-.14-.58-.14h-.8v2.03h.52v-.77h.15c.08 0 .16.02.2.06.06.04.1.1.16.2l.24.51h.56l-.29-.57a.96.96 0 00-.17-.26zm-.4-.36c-.05.04-.13.06-.23.06h-.22v-.52h.22c.1 0 .18.02.23.06.05.04.07.1.07.2s-.03.16-.07.2zM81.47 29.8L69.81 47.14H65L79.03 26.5l2.44 3.3z" fill="#fff"/><path d="M86.36 37.23l-2.45-3.72-9.28 13.63h4.96l6.77-9.9z" fill="#37D37A"/><path d="M87.67 28v-7.7l-6.2 9.5 2.44 3.7 3.76-5.5zM87.67 28v-7.7l17.51 26.84h-5.13L87.67 28.01z" fill="#fff"/><path d="M179.75 36.82l-6.82-9.64h4.75l4.34 6.2 4.39-6.2h4.68l-6.63 9.5 6.63 10.06h-4.83L182.22 40l-4.54 6.75h-4.8l6.88-9.91z" fill="#37D37A"/><path d="M109.83 37.76c0-2.53.15-4.37.45-5.52.28-1.15.8-2.1 1.55-2.84a6.89 6.89 0 012.96-1.67 15.7 15.7 0 014.5-.55h6.18v3.42h-6.5c-1.72 0-2.99.37-3.82 1.1-.85.77-1.28 1.99-1.28 3.66h11.6v3.4h-11.6v7.98h-4.03v-8.98zM132.96 46.74h-4.23V27.18h4.23v19.56zM136.17 27.18h5.13l7.87 14.06-.19-14.06h4.14v19.56h-4.7l-8.3-14.78.2 14.78h-4.15V27.18z" fill="#fff"/><path d="M164.95 30.6c-1.43 0-2.54.37-3.3 1.11-.4.4-.7.86-.93 1.41a5.74 5.74 0 00-.32 2.01l10.6.03v3.4h-10.63c0 1.7.36 2.91 1.06 3.65.71.74 1.88 1.11 3.52 1.11h6.67l-2.42 3.42h-4.44c-1.55 0-2.73-.13-3.56-.39a6.77 6.77 0 01-2.43-1.33 7.07 7.07 0 01-2.22-3.12c-.5-1.28-.74-2.8-.74-4.58 0-3.44.73-6 2.2-7.67 1.48-1.64 3.76-2.47 6.86-2.47h4.33l2.42 3.42h-6.67zM190.9 36.77c0-3.35.8-5.86 2.39-7.5 1.56-1.64 3.97-2.46 7.23-2.46 3.26 0 5.69.84 7.25 2.51 1.57 1.66 2.35 4.21 2.35 7.64 0 3.42-.78 6-2.35 7.66-1.58 1.68-4 2.52-7.25 2.52s-5.74-.84-7.29-2.52c-1.55-1.66-2.33-4.28-2.33-7.85zm9.62-6.62c-1.72 0-3.03.56-3.9 1.67-.86 1.11-1.3 2.77-1.3 4.97 0 2.39.42 4.14 1.25 5.27.84 1.13 2.16 1.7 3.96 1.7 1.8 0 3.08-.57 3.93-1.7.84-1.1 1.27-2.81 1.27-5.1 0-2.3-.43-4.01-1.27-5.14-.85-1.11-2.16-1.67-3.93-1.67zM229.51 30.7h-10c-1.1 0-1.9.18-2.39.56-.5.41-.74 1.07-.74 1.97 0 .69.21 1.22.63 1.59.46.35 1.1.53 1.92.53h5.36c2.23 0 3.82.42 4.75 1.27.93.88 1.4 2.3 1.4 4.29 0 1.98-.54 3.47-1.61 4.4-1.1.96-2.8 1.43-5.12 1.43h-10.79v-3.47h10.16c1.16 0 1.98-.17 2.45-.53.46-.33.7-.9.7-1.7 0-.78-.23-1.35-.67-1.74-.44-.33-1.18-.5-2.22-.5h-4.78c-2.21 0-3.83-.45-4.86-1.36-1.04-.91-1.56-2.33-1.56-4.25 0-2.06.55-3.58 1.65-4.56 1.08-.96 2.78-1.44 5.11-1.44h10.61v3.51z" fill="#37D37A"/></svg>