<svg width="300" height="250" viewBox="0 0 300 250" fill="none" xmlns="http://www.w3.org/2000/svg"><path d="M39.1 103.3a8.89 8.89 0 01-3.9-.77 9.09 9.09 0 01-2.72-2.06l2.5-2.52a5.62 5.62 0 004.37 2c.93 0 1.63-.2 2.08-.58.45-.38.67-.89.67-1.52 0-.48-.13-.88-.4-1.2-.27-.33-.8-.56-1.62-.68l-1.73-.22c-1.85-.23-3.2-.8-4.07-1.67A4.87 4.87 0 0133 90.55a4.82 4.82 0 011.73-3.83 6 6 0 012.05-1.07c.81-.27 1.74-.4 2.77-.4 1.32 0 2.48.2 3.48.63 1 .41 1.85 1.02 2.57 1.82l-2.52 2.55a4.85 4.85 0 00-3.75-1.65c-.85 0-1.49.15-1.9.45-.42.3-.63.72-.63 1.25 0 .6.16 1.03.48 1.3.33.27.86.46 1.6.58l1.72.27c1.8.28 3.13.84 4 1.67.87.82 1.3 1.99 1.3 3.5 0 .84-.15 1.6-.45 2.3-.3.7-.74 1.3-1.32 1.8-.57.5-1.28.9-2.13 1.18-.85.27-1.82.4-2.9.4zm14.73 0c-1 0-1.9-.16-2.68-.47a5.87 5.87 0 01-2-1.38 6.16 6.16 0 01-1.22-2.17 9.5 9.5 0 01-.4-2.86c0-1.03.13-1.96.4-2.8a5.25 5.25 0 013.13-3.55c.76-.33 1.63-.5 2.62-.5 1.08 0 2 .19 2.77.56.78.36 1.42.85 1.9 1.47.5.62.86 1.33 1.08 2.15.23.8.35 1.64.35 2.53v1.1h-8.43v.2c0 .86.23 1.55.7 2.07.47.5 1.2.75 2.2.75.77 0 1.4-.15 1.88-.45.48-.32.93-.7 1.35-1.13l1.85 2.3a5.82 5.82 0 01-2.3 1.6c-.94.39-2 .58-3.2.58zm-.08-11c-.75 0-1.34.25-1.77.75a2.88 2.88 0 00-.63 1.95v.2h4.6v-.23c0-.8-.18-1.44-.55-1.92-.35-.5-.9-.75-1.65-.75zm13.61 11c-1 0-1.89-.16-2.67-.47a5.87 5.87 0 01-2-1.38 6.16 6.16 0 01-1.23-2.17 9.5 9.5 0 01-.4-2.86c0-1.03.14-1.96.4-2.8a5.25 5.25 0 013.13-3.55c.77-.33 1.64-.5 2.62-.5 1.09 0 2.01.19 2.78.56.78.36 1.42.85 1.9 1.47.5.62.86 1.33 1.07 2.15.24.8.35 1.64.35 2.53v1.1H64.9v.2c0 .86.23 1.55.7 2.07.47.5 1.2.75 2.2.75.77 0 1.4-.15 1.87-.45.49-.32.94-.7 1.35-1.13l1.85 2.3a5.82 5.82 0 01-2.3 1.6c-.93.39-2 .58-3.2.58zm-.07-11c-.75 0-1.34.25-1.78.75A2.88 2.88 0 0064.9 95v.2h4.6v-.23c0-.8-.18-1.44-.55-1.92-.35-.5-.9-.75-1.65-.75zM81.04 103V85.55H92.6v3.38h-7.77v3.57h6.62v3.35h-6.62V103h-3.8zM96.8 88.47c-.75 0-1.3-.16-1.65-.5-.33-.34-.5-.79-.5-1.32v-.55c0-.53.17-.97.5-1.3.35-.35.9-.52 1.65-.52.75 0 1.3.17 1.62.52.35.33.53.77.53 1.3v.55c0 .53-.18.97-.53 1.32-.33.34-.87.5-1.62.5zm-1.85 1.4h3.7V103h-3.7V89.87zm6.65 13.13V89.87h3.7v2.23h.15c.24-.68.65-1.27 1.23-1.77s1.39-.75 2.42-.75c1.35 0 2.37.45 3.05 1.34.7.9 1.05 2.19 1.05 3.86V103h-3.7v-7.92c0-.86-.13-1.48-.4-1.88-.26-.42-.74-.63-1.42-.63a3.09 3.09 0 00-1.65.48c-.22.17-.4.38-.53.63-.13.23-.2.5-.2.82v8.5h-3.7zm19.87.3c-1 0-1.9-.16-2.67-.47a5.86 5.86 0 01-2-1.38 6.14 6.14 0 01-1.23-2.17c-.27-.86-.4-1.8-.4-2.86 0-1.03.13-1.96.4-2.8a5.25 5.25 0 013.13-3.55c.76-.33 1.64-.5 2.62-.5 1.08 0 2 .19 2.78.56.78.36 1.41.85 1.9 1.47.5.62.85 1.33 1.07 2.15.23.8.35 1.64.35 2.53v1.1h-8.42v.2c0 .86.23 1.55.7 2.07.46.5 1.2.75 2.2.75.76 0 1.39-.15 1.87-.45.48-.32.93-.7 1.35-1.13l1.85 2.3a5.83 5.83 0 01-2.3 1.6c-.93.39-2 .58-3.2.58zm-.07-11c-.75 0-1.35.25-1.78.75a2.88 2.88 0 00-.62 1.95v.2h4.6v-.23c0-.8-.19-1.44-.55-1.92-.35-.5-.9-.75-1.65-.75zm6.47 10.7l4.32-6.67-4.27-6.45h4.2l2.45 4.12h.1l2.37-4.13h3.9l-4.35 6.58 4.38 6.55h-4.2l-2.53-4.28h-.1l-2.42 4.28h-3.85zm19.7.3c-.97 0-1.84-.16-2.6-.47a5.3 5.3 0 01-1.93-1.38 6.37 6.37 0 01-1.2-2.17 8.99 8.99 0 01-.42-2.86c0-1.05.14-2 .42-2.84a6.1 6.1 0 011.2-2.16 5.3 5.3 0 011.93-1.37 6.76 6.76 0 012.6-.47c.96 0 1.82.15 2.57.47.77.32 1.41.78 1.93 1.38.53.58.94 1.3 1.22 2.14.28.86.43 1.8.43 2.86 0 1.04-.14 2-.43 2.84-.28.86-.69 1.58-1.22 2.18a5.04 5.04 0 01-1.93 1.38c-.75.31-1.6.47-2.57.47zm0-2.92c.73 0 1.3-.23 1.7-.68.4-.45.6-1.1.6-1.92V95.1c0-.83-.2-1.47-.6-1.92-.4-.46-.97-.68-1.7-.68-.74 0-1.3.22-1.7.67-.4.45-.6 1.1-.6 1.93v2.68c0 .83.2 1.47.6 1.92.4.45.96.67 1.7.67zm12.73 2.92c-1.26 0-2.33-.2-3.2-.6-.86-.42-1.64-1-2.32-1.75l2.17-2.2c.47.52.99.92 1.55 1.22.57.3 1.21.45 1.93.45.73 0 1.24-.1 1.52-.32.29-.23.43-.54.43-.92 0-.62-.44-.99-1.33-1.1l-1.42-.18c-2.95-.37-4.43-1.72-4.43-4.05a3.93 3.93 0 011.38-3.07c.45-.39.98-.68 1.6-.88a6.54 6.54 0 012.12-.33c.69 0 1.29.06 1.8.16a5.33 5.33 0 012.53 1.05c.35.25.69.53 1.02.84l-2.12 2.18a4.6 4.6 0 00-3.03-1.35c-.63 0-1.08.1-1.35.3-.26.2-.4.47-.4.8 0 .35.1.63.28.83.2.18.56.31 1.1.4l1.47.2c2.89.38 4.33 1.7 4.33 3.94a3.85 3.85 0 01-1.55 3.16 5.4 5.4 0 01-1.78.9c-.68.21-1.45.32-2.3.32zm14.9-14.83c-.74 0-1.3-.16-1.64-.5-.33-.34-.5-.79-.5-1.32v-.55c0-.53.17-.97.5-1.3.35-.35.9-.52 1.65-.52.75 0 1.3.17 1.62.52.35.33.53.77.53 1.3v.55c0 .53-.18.97-.53 1.32-.33.34-.87.5-1.62.5zm-1.84 1.4h3.7V103h-3.7V89.87zm6.65 13.13V89.87h3.7v2.23h.15c.24-.68.64-1.27 1.23-1.77.58-.5 1.39-.75 2.42-.75 1.35 0 2.37.45 3.05 1.34.7.9 1.05 2.19 1.05 3.86V103h-3.7v-7.92c0-.86-.13-1.48-.4-1.88-.26-.42-.74-.63-1.42-.63a3.09 3.09 0 00-1.65.48c-.22.17-.4.38-.53.63-.13.23-.2.5-.2.82v8.5h-3.7zm29.5 0c-.66 0-1.22-.2-1.67-.63-.44-.41-.71-.97-.83-1.67h-.15c-.2.85-.64 1.5-1.32 1.95-.69.43-1.53.65-2.53.65-1.31 0-2.32-.35-3.02-1.05a3.75 3.75 0 01-1.05-2.78c0-1.38.5-2.4 1.5-3.07a7.3 7.3 0 014.12-1.03h2.08v-.82c0-.63-.17-1.13-.5-1.5-.34-.38-.9-.58-1.68-.58a2.9 2.9 0 00-1.75.48c-.43.32-.79.67-1.07 1.08l-2.2-1.95c.53-.79 1.2-1.4 2-1.83a6.86 6.86 0 013.3-.67c1.87 0 3.26.4 4.2 1.22.93.82 1.4 2 1.4 3.58v5.75h1.22V103h-2.05zm-5.12-2.28c.61 0 1.14-.13 1.57-.4.45-.26.68-.7.68-1.3v-1.55h-1.8c-1.45 0-2.18.5-2.18 1.48v.38c0 .48.15.84.45 1.07.3.22.73.32 1.28.32zm14.46 2.58c-.99 0-1.86-.16-2.63-.47a5.4 5.4 0 01-3.1-3.55c-.26-.86-.4-1.8-.4-2.86 0-1.05.14-1.99.4-2.82.27-.85.66-1.57 1.18-2.17a5.03 5.03 0 011.92-1.38 6.82 6.82 0 012.63-.47c1.33 0 2.44.3 3.32.9a4.9 4.9 0 011.93 2.52l-3 1.3c-.12-.5-.36-.92-.73-1.27a2.12 2.12 0 00-1.52-.53c-.75 0-1.32.25-1.7.75a3.1 3.1 0 00-.58 1.97v2.45c0 .84.2 1.5.58 1.98.38.48.95.72 1.7.72.66 0 1.19-.17 1.57-.52.4-.37.7-.84.88-1.42l2.87 1.24a5.1 5.1 0 01-2.02 2.75c-.9.59-2 .88-3.3.88zm11.71-.3c-1.28 0-2.26-.33-2.92-.97-.65-.66-.98-1.6-.98-2.86v-6.42h-1.85v-2.88h.93c.5 0 .84-.11 1.02-.34.19-.25.28-.6.28-1.06v-2.14h3.32v3.55h2.6v2.87h-2.6v7.38h2.4V103h-2.2zm6.32-14.53c-.75 0-1.3-.16-1.65-.5-.33-.34-.5-.79-.5-1.32v-.55c0-.53.17-.97.5-1.3.35-.35.9-.52 1.65-.52.75 0 1.3.17 1.63.52.35.33.52.77.52 1.3v.55c0 .53-.17.97-.52 1.32-.34.34-.88.5-1.63.5zm-1.85 1.4h3.7V103h-3.7V89.87zm11.98 13.43c-.97 0-1.83-.16-2.6-.47a5.3 5.3 0 01-1.92-1.38 6.4 6.4 0 01-1.2-2.17 8.99 8.99 0 01-.43-2.86c0-1.05.14-2 .42-2.84.29-.86.69-1.57 1.2-2.16a5.3 5.3 0 011.93-1.37 6.76 6.76 0 012.6-.47c.97 0 1.82.15 2.57.47.77.32 1.41.78 1.93 1.38.53.58.94 1.3 1.22 2.14.29.86.43 1.8.43 2.86 0 1.04-.14 2-.42 2.84-.29.86-.7 1.58-1.23 2.18a5.03 5.03 0 01-1.93 1.38c-.75.31-1.6.47-2.57.47zm0-2.92c.73 0 1.3-.23 1.7-.68.4-.45.6-1.1.6-1.92V95.1c0-.83-.2-1.47-.6-1.92-.4-.46-.97-.68-1.7-.68s-1.3.22-1.7.67c-.4.45-.6 1.1-.6 1.93v2.68c0 .83.2 1.47.6 1.92.4.45.97.67 1.7.67zm8.29 2.62V89.87h3.7v2.23h.15c.23-.68.64-1.27 1.22-1.77a3.6 3.6 0 012.43-.75c1.35 0 2.36.45 3.05 1.34.7.9 1.05 2.19 1.05 3.86V103h-3.7v-7.92c0-.86-.14-1.48-.4-1.88-.27-.42-.75-.63-1.43-.63a3.08 3.08 0 00-1.65.48c-.22.17-.39.38-.52.63-.14.23-.2.5-.2.82v8.5h-3.7z" fill="#fff"/><path d="M30.52 123.5v4.5h-1.26v-10.47h4.17c1.83 0 2.92 1.06 2.92 2.97 0 1.53-.73 2.56-2.1 2.88l2.4 4.62h-1.42l-2.27-4.5h-2.44zm0-1.08h2.9c1 0 1.58-.54 1.58-1.5v-.78c0-.96-.58-1.5-1.57-1.5h-2.91v3.78zm10.9 5.76c-2.1 0-3.48-1.59-3.48-4.05s1.38-4.05 3.48-4.05c2.07 0 3.35 1.59 3.35 3.78v.57H39.2v.36c0 1.33.86 2.34 2.3 2.34.97 0 1.72-.48 2.13-1.33l.85.61c-.5 1.05-1.6 1.77-3.06 1.77zm0-7.1c-1.3 0-2.22 1-2.22 2.34v.11h4.28v-.17c0-1.36-.83-2.28-2.06-2.28zM51.7 131v-4.26h-.06a2.33 2.33 0 01-2.26 1.44c-1.94 0-3.15-1.58-3.15-4.05 0-2.47 1.21-4.05 3.15-4.05 1.06 0 1.86.47 2.26 1.44h.06v-1.26h1.2V131h-1.2zm-2-3.9c1.1 0 2-.57 2-1.57v-2.89c0-.85-.9-1.48-2-1.48-1.34 0-2.18.93-2.18 2.31v1.32c0 1.38.84 2.31 2.19 2.31zm10.52.9v-1.26h-.06c-.3.73-.88 1.44-2.17 1.44-1.59 0-2.61-1.08-2.61-2.96v-4.96h1.2v4.75c0 1.38.61 2.09 1.77 2.09.94 0 1.87-.46 1.87-1.48v-5.36h1.2V128h-1.2zm6.67.18c-2.1 0-3.48-1.59-3.48-4.05s1.38-4.05 3.48-4.05c2.07 0 3.35 1.59 3.35 3.78v.57h-5.57v.36c0 1.33.86 2.34 2.3 2.34.97 0 1.72-.48 2.13-1.33l.85.61c-.5 1.05-1.6 1.77-3.06 1.77zm0-7.1c-1.3 0-2.22 1-2.22 2.34v.11h4.28v-.17c0-1.36-.83-2.28-2.06-2.28zm7.65 7.1a3.6 3.6 0 01-3.06-1.52l.85-.69a2.8 2.8 0 002.3 1.19c1.02 0 1.62-.47 1.62-1.26 0-.6-.33-1.07-1.35-1.22l-.62-.09c-1.42-.2-2.49-.79-2.49-2.23 0-1.53 1.19-2.28 2.76-2.28 1.25 0 2.07.47 2.7 1.25l-.8.72c-.34-.48-1-.95-1.99-.95s-1.51.47-1.51 1.2c0 .75.52 1.05 1.48 1.2l.6.09c1.71.25 2.37 1 2.37 2.17 0 1.5-1.1 2.42-2.86 2.42zm8.09-.18h-1.5c-.83 0-1.28-.53-1.28-1.28v-5.41h-1.27v-1.05h.72c.51 0 .67-.18.67-.7v-1.45h1.08v2.15h1.7v1.05h-1.7v5.64h1.58V128zm11.9 0h-.68c-.89 0-1.25-.54-1.34-1.26h-.07c-.33.95-1.16 1.44-2.24 1.44-1.63 0-2.6-.9-2.6-2.34 0-1.45 1.06-2.27 3.3-2.27h1.54v-.76c0-1.1-.6-1.7-1.83-1.7-.93 0-1.55.45-1.97 1.16l-.72-.67c.42-.83 1.35-1.52 2.75-1.52 1.86 0 2.97.98 2.97 2.61v4.26h.88V128zm-4.13-.84c1.18 0 2.04-.61 2.04-1.41v-1.28h-1.6c-1.36 0-1.97.42-1.97 1.17v.32c0 .77.6 1.2 1.53 1.2zm11.72.84h-1.06c-.83 0-1.28-.53-1.28-1.25v-9.85h1.2v10.05h1.14V128zm4.67.18c-2.07 0-3.5-1.59-3.5-4.05s1.43-4.05 3.5-4.05c2.07 0 3.5 1.59 3.5 4.05s-1.43 4.05-3.5 4.05zm0-1.07c1.3 0 2.2-.79 2.2-2.42v-1.11c0-1.64-.9-2.44-2.2-2.44-1.29 0-2.2.8-2.2 2.44v1.1c0 1.64.91 2.43 2.2 2.43zm11.77.89h-.67c-.89 0-1.25-.54-1.34-1.26h-.07c-.33.95-1.16 1.44-2.24 1.44-1.63 0-2.6-.9-2.6-2.34 0-1.45 1.06-2.27 3.3-2.27h1.54v-.76c0-1.1-.6-1.7-1.83-1.7-.93 0-1.55.45-1.97 1.16l-.72-.67c.42-.83 1.35-1.52 2.75-1.52 1.86 0 2.97.98 2.97 2.61v4.26h.88V128zm-4.12-.84c1.18 0 2.04-.61 2.04-1.41v-1.28h-1.6c-1.36 0-1.97.42-1.97 1.17v.32c0 .77.6 1.2 1.53 1.2zm7.03.84h-1.2v-7.74h1.2v1.26h.06a2.2 2.2 0 012.2-1.44c1.58 0 2.59 1.08 2.59 2.95V128h-1.2v-4.75c0-1.39-.6-2.09-1.76-2.09-.96 0-1.89.48-1.89 1.47V128zm13.98 0h-1.4l-2.71-7.74h1.2l1.35 3.84.84 2.64h.07l.84-2.64 1.38-3.84h1.16l-2.73 7.74zm9.05 0v-1.26h-.06c-.3.73-.89 1.44-2.18 1.44-1.59 0-2.6-1.08-2.6-2.96v-4.96h1.2v4.75c0 1.38.6 2.09 1.76 2.09.95 0 1.88-.46 1.88-1.48v-5.36h1.2V128h-1.2zm6.1 0h-1.07c-.83 0-1.28-.53-1.28-1.25v-9.85h1.2v10.05h1.14V128zm2.94 0h-1.2v-7.74h1.2v1.26h.06a2.2 2.2 0 012.19-1.44c1.59 0 2.6 1.08 2.6 2.95V128h-1.2v-4.75c0-1.39-.6-2.09-1.76-2.09-.96 0-1.89.48-1.89 1.47V128zm10.23.18c-2.1 0-3.47-1.59-3.47-4.05s1.38-4.05 3.47-4.05c2.08 0 3.35 1.59 3.35 3.78v.57h-5.57v.36c0 1.33.86 2.34 2.3 2.34.97 0 1.72-.48 2.13-1.33l.85.61c-.49 1.05-1.6 1.77-3.06 1.77zm0-7.1c-1.3 0-2.22 1-2.22 2.34v.11h4.28v-.17c0-1.36-.82-2.28-2.06-2.28zm6.53 6.92h-1.2v-7.74h1.2v1.42h.07c.27-.73.98-1.42 2.24-1.42h.46v1.2h-.7c-1.3 0-2.07.56-2.07 1.29V128zm10.55 0h-.68c-.88 0-1.24-.54-1.33-1.26h-.08c-.33.95-1.15 1.44-2.23 1.44-1.64 0-2.6-.9-2.6-2.34 0-1.45 1.05-2.27 3.3-2.27h1.53v-.76c0-1.1-.6-1.7-1.83-1.7-.93 0-1.54.45-1.96 1.16l-.72-.67c.42-.83 1.35-1.52 2.74-1.52 1.86 0 2.97.98 2.97 2.61v4.26h.89V128zm-4.13-.84c1.19 0 2.04-.61 2.04-1.41v-1.28h-1.59c-1.36 0-1.98.42-1.98 1.17v.32c0 .77.6 1.2 1.53 1.2zm5.84.84v-11.1h1.2v4.62h.06c.4-.97 1.2-1.44 2.26-1.44 1.94 0 3.15 1.58 3.15 4.05 0 2.48-1.21 4.05-3.15 4.05-1.06 0-1.8-.48-2.26-1.44h-.06V128h-1.2zm3.2-.9c1.34 0 2.18-.93 2.18-2.31v-1.32c0-1.38-.84-2.31-2.19-2.31-1.1 0-2 .63-2 1.48v2.89c0 1 .9 1.57 2 1.57zm6.1-8.66c-.5 0-.73-.27-.73-.67v-.2c0-.4.22-.67.73-.67s.74.27.74.67v.2c0 .4-.23.67-.74.67zm-.6 9.56v-7.74h1.2V128h-1.2zm6.1 0h-1.07c-.83 0-1.28-.53-1.28-1.25v-9.85h1.2v10.05h1.14V128zm2.34-9.56c-.51 0-.74-.27-.74-.67v-.2c0-.4.23-.67.74-.67.5 0 .73.27.73.67v.2c0 .4-.22.67-.73.67zm-.6 9.56v-7.74h1.2V128h-1.2zm6.96 0h-1.5c-.83 0-1.28-.53-1.28-1.28v-5.41H202v-1.05h.72c.5 0 .67-.18.67-.7v-1.45h1.08v2.15h1.7v1.05h-1.7v5.64h1.58V128zm4.94-2.47l1.88-5.27h1.18l-3.46 9.54c-.35.93-.66 1.2-1.8 1.2h-.62v-1.05h1.22l.58-1.65-2.9-8.04h1.2l1.87 5.27.36 1.25h.07l.42-1.25zm14.44 2.47h-.68c-.88 0-1.24-.54-1.33-1.26h-.08c-.33.95-1.15 1.44-2.23 1.44-1.64 0-2.6-.9-2.6-2.34 0-1.45 1.05-2.27 3.3-2.27h1.53v-.76c0-1.1-.6-1.7-1.83-1.7-.93 0-1.54.45-1.96 1.16l-.72-.67c.42-.83 1.35-1.52 2.74-1.52 1.86 0 2.97.98 2.97 2.61v4.26h.89V128zm-4.13-.84c1.19 0 2.04-.61 2.04-1.41v-1.28h-1.59c-1.36 0-1.98.42-1.98 1.17v.32c0 .77.6 1.2 1.53 1.2zm7.04.84h-1.2v-7.74h1.2v1.26h.06a2.2 2.2 0 012.19-1.44c1.59 0 2.6 1.08 2.6 2.95V128h-1.2v-4.75c0-1.39-.6-2.09-1.76-2.09-.96 0-1.9.48-1.9 1.47V128zm13.63 0h-.68c-.88 0-1.25-.54-1.33-1.26h-.08c-.33.95-1.16 1.44-2.23 1.44-1.64 0-2.6-.9-2.6-2.34 0-1.45 1.05-2.27 3.3-2.27h1.53v-.76c0-1.1-.6-1.7-1.83-1.7-.93 0-1.55.45-1.97 1.16l-.72-.67c.42-.83 1.35-1.52 2.75-1.52 1.86 0 2.97.98 2.97 2.61v4.26h.88V128zm-4.13-.84c1.19 0 2.04-.61 2.04-1.41v-1.28h-1.59c-1.36 0-1.98.42-1.98 1.17v.32c0 .77.6 1.2 1.53 1.2zm8.18.84h-1.07c-.82 0-1.27-.53-1.27-1.25v-9.85h1.2v10.05h1.14V128zm4.5-2.47l1.87-5.27h1.18l-3.46 9.54c-.35.93-.66 1.2-1.8 1.2h-.62v-1.05h1.22l.58-1.65-2.9-8.04h1.2l1.87 5.27.36 1.25h.07l.42-1.25zm6.85 2.65a3.6 3.6 0 01-3.06-1.52l.85-.69a2.8 2.8 0 002.3 1.19c1.02 0 1.62-.47 1.62-1.26 0-.6-.33-1.07-1.35-1.22l-.62-.09c-1.42-.2-2.49-.79-2.49-2.23 0-1.53 1.19-2.28 2.76-2.28 1.25 0 2.07.47 2.7 1.25l-.79.72c-.35-.48-1-.95-2-.95-.99 0-1.51.47-1.51 1.2 0 .75.53 1.05 1.48 1.2l.6.09c1.71.25 2.38 1 2.38 2.17 0 1.5-1.1 2.42-2.87 2.42zm5.58-9.74c-.5 0-.73-.27-.73-.67v-.2c0-.4.22-.67.73-.67s.74.27.74.67v.2c0 .4-.23.67-.74.67zm-.6 9.56v-7.74h1.2V128h-1.2zm6.08.18a3.6 3.6 0 01-3.06-1.52l.85-.69a2.8 2.8 0 002.3 1.19c1.02 0 1.62-.47 1.62-1.26 0-.6-.33-1.07-1.35-1.22l-.62-.09c-1.42-.2-2.49-.79-2.49-2.23 0-1.53 1.19-2.28 2.76-2.28 1.25 0 2.07.47 2.7 1.25l-.8.72c-.34-.48-1-.95-1.99-.95s-1.51.47-1.51 1.2c0 .75.52 1.05 1.48 1.2l.6.09c1.71.25 2.37 1 2.37 2.17 0 1.5-1.1 2.42-2.86 2.42z" fill="#37D37A"/><path d="M102.33 154a2.67 2.67 0 105.34 0 2.67 2.67 0 00-5.34 0zm90 0a2.67 2.67 0 105.34 0 2.67 2.67 0 00-5.34 0zm-87.33.5h90v-1h-90v1z" fill="#fff"/><path d="M194.5 154v30h1v-30h-1zm-89 30v-30h-1v30h1zM115.82 173v-6.98h1.32v5.81h2.75V173h-4.07zm7.15.12a2.3 2.3 0 01-1.81-.74 2.6 2.6 0 01-.48-.86 3.6 3.6 0 01-.17-1.14c0-.41.05-.79.16-1.12.11-.33.27-.62.48-.85.2-.24.46-.42.76-.55.3-.13.64-.2 1.02-.2.4 0 .76.07 1.06.21.3.14.54.33.74.57.2.24.33.52.43.84.1.31.15.65.15 1.01v.42h-3.47v.13c0 .38.1.69.32.92.21.23.53.34.95.34.32 0 .58-.07.78-.2.2-.13.39-.3.55-.51l.69.77c-.22.3-.5.54-.88.71-.37.17-.8.25-1.28.25zm-.02-4.5c-.34 0-.61.11-.81.34-.2.23-.3.52-.3.88v.08h2.14v-.09c0-.36-.1-.65-.27-.87-.18-.23-.43-.34-.76-.34zm7.32 4.38a.93.93 0 01-.67-.24 1.17 1.17 0 01-.3-.66h-.06c-.08.34-.26.6-.53.77-.26.17-.6.25-.99.25-.53 0-.94-.14-1.23-.42a1.5 1.5 0 01-.43-1.12c0-.54.2-.94.58-1.2.39-.27.94-.4 1.65-.4h.9v-.38c0-.3-.08-.52-.24-.68-.15-.16-.4-.24-.74-.24-.3 0-.54.07-.73.2a1.9 1.9 0 00-.46.46l-.76-.68c.2-.3.45-.54.77-.72a2.5 2.5 0 011.27-.28c.71 0 1.25.16 1.61.48.37.32.55.78.55 1.38v2.46h.52V173h-.7zm-2.12-.81c.29 0 .53-.06.73-.19.2-.13.3-.31.3-.56v-.69h-.82c-.66 0-1 .21-1 .64v.17c0 .21.07.37.2.48a1 1 0 00.6.15zm3.87.81v-5.22h1.28v1.08h.05c.03-.14.08-.27.15-.4a1.32 1.32 0 01.68-.59c.16-.06.34-.09.55-.09h.28v1.21h-.4a2 2 0 00-.98.19c-.22.13-.33.33-.33.62v3.2h-1.28zm3.92 0v-5.22h1.28v.87h.06c.1-.28.27-.51.5-.7.23-.2.55-.29.96-.29.53 0 .95.18 1.23.53.3.35.44.86.44 1.51v3.3h-1.28v-3.17c0-.37-.07-.65-.2-.84-.14-.19-.36-.28-.67-.28a1.3 1.3 0 00-.72.22.8.8 0 00-.22.26.69.69 0 00-.1.36V173h-1.28zm8.25 0v-5.22h1.28v.87h.05c.1-.27.26-.5.48-.7.22-.2.52-.29.92-.29.36 0 .67.09.93.26s.45.44.58.79h.02c.1-.3.27-.54.55-.74.28-.2.63-.31 1.05-.31.51 0 .9.18 1.18.53.28.35.42.86.42 1.51v3.3h-1.28v-3.17c0-.75-.28-1.12-.84-1.12a1.17 1.17 0 00-.68.22.75.75 0 00-.3.62V173h-1.27v-3.17c0-.75-.28-1.12-.84-1.12a1.13 1.13 0 00-.67.22.85.85 0 00-.22.26.76.76 0 00-.08.36V173h-1.28zm10.94.12c-.37 0-.7-.06-1-.19-.3-.13-.55-.31-.77-.55a2.6 2.6 0 01-.48-.86 3.6 3.6 0 01-.17-1.14c0-.42.06-.8.17-1.13.12-.33.28-.62.48-.85.22-.24.47-.42.76-.55.3-.13.64-.19 1.01-.19.38 0 .71.06 1.01.19a2.36 2.36 0 011.25 1.4c.12.33.17.71.17 1.13 0 .42-.05.8-.17 1.14-.1.33-.27.62-.49.86-.2.24-.46.42-.76.55-.3.13-.63.19-1 .19zm0-1.03c.34 0 .61-.1.8-.31.2-.2.3-.51.3-.91v-.97c0-.4-.1-.7-.3-.9-.19-.2-.46-.31-.8-.31-.33 0-.6.1-.79.31-.19.2-.29.5-.29.9v.97c0 .4.1.7.3.91.19.2.45.31.78.31zm3.57.91v-5.22h1.28v1.08h.05c.03-.14.08-.27.15-.4a1.3 1.3 0 01.68-.59c.16-.06.34-.09.55-.09h.28v1.21h-.4a2 2 0 00-.98.19c-.22.13-.33.33-.33.62v3.2h-1.28zm5.99.12a2.29 2.29 0 01-1.81-.74c-.21-.24-.37-.53-.48-.86a3.6 3.6 0 01-.17-1.14c0-.41.05-.79.16-1.12.1-.33.27-.62.48-.85.2-.24.46-.42.76-.55.3-.13.64-.2 1.02-.2.4 0 .76.07 1.06.21.3.14.54.33.74.57.19.24.33.52.43.84.1.31.15.65.15 1.01v.42h-3.47v.13c0 .38.1.69.32.92.2.23.53.34.95.34.32 0 .58-.07.78-.2.2-.13.39-.3.55-.51l.69.77c-.22.3-.51.54-.88.71-.37.17-.8.25-1.28.25zm-.02-4.5c-.34 0-.61.11-.81.34-.2.23-.3.52-.3.88v.08h2.14v-.09c0-.36-.1-.65-.27-.87-.18-.23-.43-.34-.76-.34zM174.5 169h7.08l-1.78-1.8.7-.7 3 3-3 3-.7-.7 1.78-1.8h-7.08v-1z" fill="#fff"/><path d="M102.33 184a2.67 2.67 0 105.34 0 2.67 2.67 0 00-5.34 0zm90 0a2.67 2.67 0 105.34 0 2.67 2.67 0 00-5.34 0zm-87.33.5h90v-1h-90v1z" fill="#fff"/></svg>