<svg width="320" height="50" viewBox="0 0 320 50" fill="none" xmlns="http://www.w3.org/2000/svg"><path d="M89.1 18.6a.91.91 0 000 1.83.91.91 0 000-1.83zm0 1.64a.73.73 0 010-1.45.73.73 0 010 1.45z" fill="#fff"/><path d="M89.34 19.58a.2.2 0 00-.1-.06c.07-.02.11-.05.14-.09.03-.04.05-.09.05-.15 0-.1-.03-.16-.09-.2-.06-.04-.15-.07-.27-.07h-.38v.96h.25v-.36H89c.04 0 .07 0 .1.03.02.01.04.05.06.1l.12.23h.26l-.13-.27a.46.46 0 00-.08-.12zm-.19-.17c-.02.02-.06.03-.1.03h-.11v-.25h.1c.05 0 .09.01.11.03.02.02.04.05.04.1 0 .04-.02.07-.04.09zM17.75 21.61l-5.49 8.16H10l6.6-9.71 1.15 1.55z" fill="#fff"/><path d="M20.05 25.1l-1.15-1.74-4.37 6.41h2.33l3.19-4.66z" fill="#37D37A"/><path d="M20.67 20.77v-3.63l-2.92 4.47 1.15 1.75 1.77-2.6zM20.67 20.77v-3.63l8.24 12.63h-2.42l-5.82-9z" fill="#fff"/><path d="M64 24.92l-3.2-4.54h2.23l2.04 2.92 2.06-2.92h2.2l-3.11 4.47 3.12 4.73h-2.28l-1.9-3.17-2.13 3.18h-2.27L64 24.91z" fill="#37D37A"/><path d="M31.1 25.36c0-1.2.07-2.06.2-2.6.14-.54.38-.99.74-1.34.35-.34.81-.6 1.39-.78a7.39 7.39 0 012.12-.26h2.9v1.6H35.4c-.8 0-1.4.18-1.79.53-.4.36-.6.93-.6 1.72h5.46v1.6H33v3.76h-1.9v-4.23zM41.98 29.59h-2v-9.21h2v9.2zM43.49 20.38h2.41l3.7 6.61-.08-6.61h1.95v9.2h-2.21l-3.9-6.95.08 6.96H43.5v-9.21z" fill="#fff"/><path d="M57.03 21.99c-.67 0-1.19.17-1.55.52-.18.18-.33.4-.43.67-.1.27-.16.58-.16.94l5 .01v1.6h-5c0 .8.16 1.38.5 1.72.32.35.88.53 1.65.53h3.13l-1.13 1.6h-2.1c-.72 0-1.28-.06-1.67-.18-.4-.12-.78-.32-1.14-.63a3.33 3.33 0 01-1.05-1.46 5.97 5.97 0 01-.35-2.16c0-1.62.35-2.82 1.04-3.6.7-.78 1.77-1.17 3.23-1.17h2.04l1.13 1.6h-3.13zM69.25 24.9c0-1.59.37-2.76 1.12-3.54.74-.77 1.87-1.15 3.4-1.15 1.54 0 2.68.39 3.42 1.18.73.78 1.1 1.98 1.1 3.59 0 1.61-.37 2.82-1.1 3.6-.75.8-1.89 1.2-3.41 1.2-1.53 0-2.7-.4-3.43-1.2-.74-.78-1.1-2-1.1-3.69zm4.53-3.12c-.82 0-1.43.26-1.84.78-.4.52-.6 1.3-.6 2.34 0 1.12.18 1.95.58 2.48.39.53 1.01.8 1.86.8.84 0 1.45-.27 1.85-.8.4-.52.6-1.32.6-2.4 0-1.08-.2-1.89-.6-2.42-.4-.52-1.02-.78-1.85-.78zM87.42 22.03h-4.7c-.53 0-.9.1-1.13.27-.24.2-.35.5-.35.93 0 .32.1.57.3.74.21.17.51.25.9.25h2.52c1.05 0 1.8.2 2.24.6.43.41.65 1.09.65 2.02 0 .93-.25 1.63-.75 2.07-.52.45-1.32.68-2.41.68H79.6v-1.64h4.78c.54 0 .93-.08 1.16-.25.21-.15.32-.42.32-.8 0-.37-.1-.63-.31-.82-.21-.16-.56-.23-1.05-.23h-2.25c-1.04 0-1.8-.22-2.28-.64-.5-.43-.74-1.1-.74-2 0-.97.26-1.69.78-2.15.5-.45 1.3-.68 2.4-.68h5v1.66z" fill="#37D37A"/></svg>