<svg width="320" height="50" viewBox="0 0 320 50" fill="none" xmlns="http://www.w3.org/2000/svg"><path d="M110.55 23.18c-1.83 0-3.08-.7-3.98-1.7l1.5-1.51c.7.8 1.6 1.2 2.63 1.2 1.1 0 1.64-.5 1.64-1.26 0-.57-.23-.99-1.21-1.13l-1.03-.13c-2.21-.29-3.21-1.36-3.21-3.12 0-1.88 1.47-3.18 3.92-3.18 1.58 0 2.78.53 3.63 1.47l-1.51 1.53a2.74 2.74 0 00-2.25-.99c-1.02 0-1.52.39-1.52 1.02 0 .72.38.99 1.25 1.12l1.03.17c2.15.34 3.19 1.3 3.19 3.1 0 2.02-1.47 3.41-4.08 3.41zm8.83 0c-2.41 0-3.78-1.6-3.78-4.13 0-2.48 1.32-4.1 3.69-4.1 2.61 0 3.66 1.89 3.66 4.02v.66h-5.06v.12c0 1.03.56 1.69 1.75 1.69.92 0 1.44-.44 1.93-.95l1.11 1.39c-.7.8-1.86 1.3-3.3 1.3zm-.05-6.6c-.88 0-1.44.65-1.44 1.62v.12h2.77v-.14c0-.95-.44-1.6-1.33-1.6zm8.17 6.6c-2.41 0-3.78-1.6-3.78-4.13 0-2.48 1.32-4.1 3.7-4.1 2.6 0 3.65 1.89 3.65 4.02v.66h-5.05v.12c0 1.03.55 1.69 1.74 1.69.93 0 1.44-.44 1.93-.95l1.11 1.39c-.7.8-1.86 1.3-3.3 1.3zm-.04-6.6c-.89 0-1.44.65-1.44 1.62v.12h2.76v-.14c0-.95-.44-1.6-1.32-1.6zM137.99 23h-2.28V12.53h6.94v2.03H138v2.14h3.97v2.01H138V23zm7.18-8.71c-.9 0-1.29-.47-1.29-1.1v-.33c0-.63.39-1.1 1.29-1.1s1.29.47 1.29 1.1v.33c0 .63-.39 1.1-1.29 1.1zM144.06 23v-7.88h2.22V23h-2.22zm6.21 0h-2.22v-7.88h2.22v1.34h.1c.28-.83.94-1.52 2.18-1.52 1.6 0 2.46 1.15 2.46 3.13V23h-2.22v-4.75c0-1.01-.28-1.5-1.1-1.5-.71 0-1.42.37-1.42 1.15V23zm9.7.18c-2.41 0-3.78-1.6-3.78-4.13 0-2.48 1.32-4.1 3.7-4.1 2.6 0 3.65 1.89 3.65 4.02v.66h-5.05v.12c0 1.03.55 1.69 1.74 1.69.93 0 1.44-.44 1.93-.95l1.11 1.39c-.7.8-1.86 1.3-3.3 1.3zm-.04-6.6c-.89 0-1.44.65-1.44 1.62v.12h2.76v-.14c0-.95-.44-1.6-1.32-1.6zm6.2 6.42h-2.32l2.6-4-2.57-3.88h2.52l1.47 2.48h.06l1.43-2.48h2.34l-2.61 3.95 2.62 3.93h-2.52l-1.51-2.57h-.06L166.12 23zm9.5.18c-2.3 0-3.69-1.59-3.69-4.13 0-2.53 1.38-4.1 3.7-4.1 2.3 0 3.68 1.57 3.68 4.1 0 2.54-1.38 4.13-3.69 4.13zm0-1.75c.87 0 1.38-.57 1.38-1.57v-1.6c0-.99-.5-1.56-1.38-1.56-.87 0-1.38.57-1.38 1.56v1.6c0 1 .51 1.57 1.38 1.57zm7.64 1.75c-1.51 0-2.5-.51-3.31-1.41l1.3-1.32c.56.62 1.23 1 2.09 1 .87 0 1.17-.28 1.17-.75 0-.38-.24-.58-.8-.65l-.85-.11c-1.79-.23-2.66-1-2.66-2.43 0-1.52 1.19-2.57 3.06-2.57 1.65 0 2.42.46 3.21 1.24l-1.27 1.3c-.5-.5-1.16-.81-1.82-.81-.75 0-1.05.27-1.05.66 0 .42.18.65.83.74l.88.11c1.71.23 2.6 1.01 2.6 2.38 0 1.51-1.35 2.62-3.38 2.62zm8.95-8.9c-.9 0-1.3-.46-1.3-1.09v-.33c0-.63.4-1.1 1.3-1.1s1.29.47 1.29 1.1v.33c0 .63-.4 1.1-1.3 1.1zM191.1 23v-7.88h2.22V23h-2.22zm6.2 0h-2.21v-7.88h2.22v1.34h.09c.28-.83.94-1.52 2.19-1.52 1.6 0 2.46 1.15 2.46 3.13V23h-2.22v-4.75c0-1.01-.29-1.5-1.1-1.5-.72 0-1.42.37-1.42 1.15V23zm16.72 0h-1.23c-.8 0-1.37-.54-1.5-1.38h-.1c-.23 1.02-1.1 1.56-2.3 1.56-1.58 0-2.45-.93-2.45-2.3 0-1.66 1.3-2.45 3.38-2.45h1.24v-.5c0-.77-.37-1.25-1.3-1.25-.89 0-1.35.46-1.7.93l-1.32-1.16c.63-.93 1.53-1.5 3.18-1.5 2.22 0 3.36 1.02 3.36 2.88v3.45h.74V23zm-4.3-1.36c.73 0 1.34-.3 1.34-1.03v-.93H210c-.85 0-1.3.32-1.3.89v.23c0 .56.37.84 1.03.84zm8.67 1.54c-2.37 0-3.68-1.6-3.68-4.13 0-2.52 1.3-4.1 3.68-4.1 1.59 0 2.68.76 3.15 2.05l-1.8.78a1.3 1.3 0 00-1.35-1.08c-.9 0-1.37.64-1.37 1.64v1.46c0 1 .47 1.63 1.37 1.63.88 0 1.24-.54 1.47-1.18l1.72.75c-.52 1.5-1.65 2.18-3.2 2.18zm8.35-.18h-1.32c-1.53 0-2.34-.8-2.34-2.3v-3.85h-1.11v-1.73h.55c.6 0 .78-.3.78-.83v-1.3h2v2.13h1.56v1.73h-1.56v4.42h1.44V23zm2.47-8.71c-.9 0-1.29-.47-1.29-1.1v-.33c0-.63.39-1.1 1.29-1.1s1.29.47 1.29 1.1v.33c0 .63-.39 1.1-1.29 1.1zM228.11 23v-7.88h2.22V23h-2.22zm7.19.18c-2.31 0-3.7-1.59-3.7-4.13 0-2.53 1.39-4.1 3.7-4.1 2.3 0 3.69 1.57 3.69 4.1 0 2.54-1.38 4.13-3.7 4.13zm0-1.75c.87 0 1.38-.57 1.38-1.57v-1.6c0-.99-.51-1.56-1.38-1.56-.87 0-1.38.57-1.38 1.56v1.6c0 1 .5 1.57 1.38 1.57zm7.19 1.57h-2.22v-7.88h2.22v1.34h.09c.28-.83.94-1.52 2.19-1.52 1.6 0 2.46 1.15 2.46 3.13V23H245v-4.75c0-1.01-.29-1.5-1.1-1.5-.72 0-1.42.37-1.42 1.15V23z" fill="#fff"/><path d="M107.77 36v3h-.84v-6.98h2.78c1.22 0 1.95.71 1.95 1.98 0 1.02-.49 1.71-1.4 1.92l1.6 3.08h-.95l-1.51-3h-1.63zm0-.72h1.94c.66 0 1.05-.36 1.05-1v-.52c0-.64-.39-1-1.05-1h-1.94v2.52zm7.27 3.84c-1.4 0-2.32-1.06-2.32-2.7 0-1.64.92-2.7 2.32-2.7 1.38 0 2.23 1.06 2.23 2.52v.38h-3.71v.24c0 .89.57 1.56 1.53 1.56a1.5 1.5 0 001.42-.89l.57.41c-.33.7-1.07 1.18-2.04 1.18zm0-4.73c-.87 0-1.48.66-1.48 1.56v.07h2.85v-.11c0-.91-.55-1.52-1.37-1.52zm6.85 6.61v-2.84h-.04c-.31.64-.8.96-1.51.96-1.3 0-2.1-1.05-2.1-2.7 0-1.65.8-2.7 2.1-2.7.7 0 1.24.31 1.5.96h.05v-.84h.8V41h-.8zm-1.33-2.6c.73 0 1.33-.38 1.33-1.05v-1.92c0-.57-.6-.99-1.33-.99-.9 0-1.46.62-1.46 1.54v.88c0 .92.56 1.54 1.46 1.54zm7 .6v-.84h-.03c-.2.49-.6.96-1.45.96-1.06 0-1.74-.72-1.74-1.97v-3.31h.8v3.17c0 .92.4 1.39 1.18 1.39.63 0 1.25-.31 1.25-.99v-3.57h.8V39h-.8zm4.45.12c-1.4 0-2.32-1.06-2.32-2.7 0-1.64.92-2.7 2.32-2.7 1.38 0 2.23 1.06 2.23 2.52v.38h-3.7v.24c0 .89.56 1.56 1.52 1.56a1.5 1.5 0 001.42-.89l.57.41c-.33.7-1.07 1.18-2.04 1.18zm0-4.73c-.87 0-1.48.66-1.48 1.56v.07h2.85v-.11c0-.91-.55-1.52-1.37-1.52zm5.1 4.73a2.4 2.4 0 01-2.04-1.01l.57-.46c.4.5.88.79 1.53.79.68 0 1.08-.31 1.08-.84 0-.4-.22-.71-.9-.81l-.4-.06c-.96-.14-1.67-.53-1.67-1.49 0-1.02.8-1.52 1.84-1.52.83 0 1.38.31 1.8.83l-.53.48a1.6 1.6 0 00-1.33-.63c-.66 0-1 .31-1 .8 0 .5.34.7.98.8l.4.06c1.14.17 1.58.67 1.58 1.45 0 1-.73 1.61-1.9 1.61zm5.4-.12h-1c-.55 0-.85-.35-.85-.85v-3.61h-.85v-.7h.48c.34 0 .45-.12.45-.47v-.96h.72v1.43h1.13v.7h-1.13v3.76h1.05v.7zm7.93 0h-.45c-.6 0-.84-.36-.9-.84h-.05c-.22.63-.76.96-1.48.96-1.1 0-1.74-.6-1.74-1.56 0-.97.7-1.51 2.2-1.51h1.02v-.51c0-.73-.4-1.13-1.22-1.13-.61 0-1.03.3-1.3.77l-.49-.45c.28-.55.9-1.01 1.84-1.01 1.23 0 1.97.65 1.97 1.74v2.84h.6v.7zm-2.75-.56c.78 0 1.35-.41 1.35-.94v-.85H148c-.92 0-1.33.28-1.33.78v.21c0 .51.4.8 1.03.8zm7.81.56h-.71c-.55 0-.85-.35-.85-.83V31.6h.8v6.7h.76v.7zm3.11.12c-1.38 0-2.33-1.06-2.33-2.7 0-1.64.95-2.7 2.33-2.7 1.38 0 2.33 1.06 2.33 2.7 0 1.64-.95 2.7-2.33 2.7zm0-.71c.86 0 1.47-.53 1.47-1.62v-.74c0-1.09-.6-1.62-1.47-1.62-.86 0-1.47.53-1.47 1.62v.74c0 1.09.61 1.62 1.47 1.62zm7.85.59h-.45c-.59 0-.83-.36-.89-.84h-.05c-.22.63-.77.96-1.49.96-1.09 0-1.73-.6-1.73-1.56 0-.97.7-1.51 2.2-1.51h1.02v-.51c0-.73-.4-1.13-1.22-1.13-.62 0-1.03.3-1.31.77l-.48-.45c.28-.55.9-1.01 1.83-1.01 1.24 0 1.98.65 1.98 1.74v2.84h.59v.7zm-2.75-.56c.79 0 1.36-.41 1.36-.94v-.85h-1.06c-.91 0-1.32.28-1.32.78v.21c0 .51.4.8 1.02.8zm4.7.56h-.8v-5.16h.8v.84h.03c.25-.58.7-.96 1.46-.96 1.06 0 1.73.72 1.73 1.97V39h-.8v-3.17c0-.92-.4-1.39-1.17-1.39-.64 0-1.26.32-1.26.98V39zm9.3 0h-.92l-1.81-5.16h.8l.9 2.56.56 1.76h.05l.56-1.76.92-2.56h.77L177.72 39zm6.04 0v-.84h-.04c-.2.49-.59.96-1.45.96-1.06 0-1.74-.72-1.74-1.97v-3.31h.8v3.17c0 .92.41 1.39 1.18 1.39.63 0 1.25-.31 1.25-.99v-3.57h.8V39h-.8zm4.06 0h-.7c-.56 0-.86-.35-.86-.83V31.6h.8v6.7h.76v.7zm1.97 0h-.8v-5.16h.8v.84h.04c.25-.58.69-.96 1.46-.96 1.06 0 1.73.72 1.73 1.97V39h-.8v-3.17c0-.92-.4-1.39-1.17-1.39-.64 0-1.26.32-1.26.98V39zm6.82.12c-1.4 0-2.32-1.06-2.32-2.7 0-1.64.92-2.7 2.32-2.7 1.38 0 2.23 1.06 2.23 2.52v.38h-3.7v.24c0 .89.56 1.56 1.52 1.56a1.5 1.5 0 001.42-.89l.57.41c-.33.7-1.07 1.18-2.04 1.18zm0-4.73c-.87 0-1.48.66-1.48 1.56v.07h2.85v-.11c0-.91-.55-1.52-1.37-1.52zm4.35 4.61h-.8v-5.16h.8v.95h.05c.18-.49.65-.95 1.5-.95h.3v.8h-.47c-.86 0-1.38.37-1.38.86V39zm7.03 0h-.45c-.59 0-.83-.36-.89-.84h-.05c-.22.63-.77.96-1.49.96-1.09 0-1.73-.6-1.73-1.56 0-.97.7-1.51 2.2-1.51h1.02v-.51c0-.73-.4-1.13-1.22-1.13-.62 0-1.03.3-1.3.77l-.49-.45c.28-.55.9-1.01 1.83-1.01 1.24 0 1.98.65 1.98 1.74v2.84h.6v.7zm-2.75-.56c.8 0 1.36-.41 1.36-.94v-.85h-1.06c-.9 0-1.32.28-1.32.78v.21c0 .51.4.8 1.02.8zm3.9.56v-7.4h.8v3.08h.03c.28-.65.8-.96 1.51-.96 1.3 0 2.1 1.05 2.1 2.7 0 1.65-.8 2.7-2.1 2.7-.7 0-1.2-.32-1.5-.96h-.04V39h-.8zm2.13-.6c.9 0 1.46-.62 1.46-1.54v-.88c0-.92-.56-1.54-1.47-1.54-.72 0-1.32.42-1.32.99v1.92c0 .67.6 1.05 1.32 1.05zm4.07-5.77c-.34 0-.5-.18-.5-.45v-.13c0-.27.16-.45.5-.45.34 0 .49.18.49.45v.13c0 .27-.15.45-.5.45zm-.4 6.37v-5.16h.8V39h-.8zm4.06 0h-.71c-.55 0-.85-.35-.85-.83V31.6h.8v6.7h.76v.7zm1.56-6.37c-.34 0-.49-.18-.49-.45v-.13c0-.27.15-.45.5-.45.33 0 .48.18.48.45v.13c0 .27-.15.45-.49.45zm-.4 6.37v-5.16h.8V39h-.8zm4.64 0h-1c-.55 0-.85-.35-.85-.85v-3.61h-.85v-.7h.48c.34 0 .45-.12.45-.47v-.96h.72v1.43h1.13v.7h-1.13v3.76h1.05v.7zm3.3-1.65l1.25-3.51h.79l-2.31 6.36c-.23.62-.44.8-1.2.8h-.41v-.7h.8l.4-1.1-1.93-5.36h.8l1.24 3.51.24.84h.05l.28-.84zM237.7 39h-.45c-.59 0-.83-.36-.89-.84h-.05c-.22.63-.77.96-1.49.96-1.09 0-1.73-.6-1.73-1.56 0-.97.7-1.51 2.2-1.51h1.02v-.51c0-.73-.4-1.13-1.22-1.13-.62 0-1.03.3-1.31.77l-.48-.45c.28-.55.9-1.01 1.83-1.01 1.24 0 1.98.65 1.98 1.74v2.84h.59v.7zm-2.75-.56c.79 0 1.36-.41 1.36-.94v-.85h-1.06c-.91 0-1.32.28-1.32.78v.21c0 .51.4.8 1.02.8zm4.7.56h-.8v-5.16h.8v.84h.03c.25-.58.7-.96 1.46-.96 1.06 0 1.73.72 1.73 1.97V39h-.8v-3.17c0-.92-.4-1.39-1.17-1.39-.64 0-1.26.32-1.26.98V39zm9.08 0h-.45c-.6 0-.83-.36-.9-.84h-.04c-.22.63-.77.96-1.5.96-1.08 0-1.72-.6-1.72-1.56 0-.97.7-1.51 2.2-1.51h1.02v-.51c0-.73-.4-1.13-1.22-1.13-.62 0-1.03.3-1.31.77l-.48-.45c.28-.55.9-1.01 1.83-1.01 1.24 0 1.98.65 1.98 1.74v2.84h.59v.7zm-2.75-.56c.79 0 1.36-.41 1.36-.94v-.85h-1.06c-.91 0-1.32.28-1.32.78v.21c0 .51.4.8 1.02.8zm5.45.56h-.71c-.55 0-.85-.35-.85-.83V31.6h.8v6.7h.76v.7zm3-1.65l1.24-3.51h.8l-2.32 6.36c-.23.62-.44.8-1.2.8h-.4v-.7h.8l.4-1.1-1.94-5.36h.8l1.24 3.51.24.84h.05l.28-.84zm4.56 1.77a2.4 2.4 0 01-2.04-1.01l.58-.46c.4.5.88.79 1.52.79.69 0 1.08-.31 1.08-.84 0-.4-.21-.71-.9-.81l-.4-.06c-.95-.14-1.66-.53-1.66-1.49 0-1.02.78-1.52 1.83-1.52.84 0 1.38.31 1.8.83l-.52.48a1.6 1.6 0 00-1.34-.63c-.65 0-1 .31-1 .8 0 .5.35.7.99.8l.4.06c1.14.17 1.58.67 1.58 1.45 0 1-.74 1.61-1.92 1.61zm3.73-6.49c-.34 0-.5-.18-.5-.45v-.13c0-.27.16-.45.5-.45.34 0 .49.18.49.45v.13c0 .27-.15.45-.5.45zm-.4 6.37v-5.16h.8V39h-.8zm4.05.12a2.4 2.4 0 01-2.04-1.01l.57-.46c.4.5.88.79 1.53.79.68 0 1.08-.31 1.08-.84 0-.4-.22-.71-.9-.81l-.41-.06c-.95-.14-1.66-.53-1.66-1.49 0-1.02.79-1.52 1.84-1.52.83 0 1.38.31 1.8.83l-.53.48a1.6 1.6 0 00-1.33-.63c-.66 0-1.01.31-1.01.8 0 .5.35.7.99.8l.4.06c1.14.17 1.58.67 1.58 1.45 0 1-.73 1.61-1.91 1.61z" fill="#37D37A"/><path d="M283.33 13a2.67 2.67 0 105.34 0 2.67 2.67 0 00-5.34 0zm24 0a2.67 2.67 0 105.34 0 2.67 2.67 0 00-5.34 0zm-21.33.5h24v-1h-24v1z" fill="#fff"/><path d="M309.5 13v24h1V13h-1zm-23 24V13h-1v24h1zM293.5 25h7.08l-1.78-1.8.7-.7 3 3-3 3-.7-.7 1.78-1.8h-7.08v-1z" fill="#fff"/><path d="M283.33 37a2.67 2.67 0 105.34 0 2.67 2.67 0 00-5.34 0zm24 0a2.67 2.67 0 105.34 0 2.67 2.67 0 00-5.34 0zm-21.33.5h24v-1h-24v1z" fill="#fff"/></svg>