<svg width="320" height="50" viewBox="0 0 320 50" fill="none" xmlns="http://www.w3.org/2000/svg"><circle cx="104.5" cy="26.1" r="2.5" fill="#019055"/><path d="M104.5 7.33a2.67 2.67 0 100 5.34 2.67 2.67 0 000-5.34zm0 30a2.67 2.67 0 100 5.34 2.67 2.67 0 000-5.34zM104 10v30h1V10h-1z" fill="#019055"/><path d="M124.04 12.5h-1.3l-.7-2.08h-2.86l-.67 2.08h-1.27l2.62-7.68h1.56l2.62 7.68zm-2.3-3.15l-1.1-3.38h-.05l-1.12 3.38h2.27zm3.4 5.35V6.78h1.2v.95h.05c.25-.69.85-1.08 1.61-1.08 1.44 0 2.28 1.1 2.28 2.99 0 1.88-.84 3-2.28 3-.76 0-1.36-.42-1.6-1.09h-.06v3.15h-1.2zm2.5-3.1c.82 0 1.37-.58 1.37-1.46v-1c0-.88-.55-1.46-1.37-1.46-.73 0-1.3.4-1.3.98v1.96c0 .58.57.98 1.3.98zm4.01 3.1V6.78h1.2v.95h.06c.24-.69.84-1.08 1.6-1.08 1.44 0 2.28 1.1 2.28 2.99 0 1.88-.84 3-2.28 3-.76 0-1.36-.42-1.6-1.09h-.06v3.15h-1.2zm2.5-3.1c.82 0 1.37-.58 1.37-1.46v-1c0-.88-.55-1.46-1.37-1.46-.73 0-1.3.4-1.3.98v1.96c0 .58.57.98 1.3.98zm5.21.9h-1.2V6.78h1.2v1.1h.05c.17-.58.66-1.1 1.58-1.1h.32v1.15h-.48c-.94 0-1.47.32-1.47.92v3.65zm5.2.13c-1.6 0-2.63-1.16-2.63-2.99 0-1.83 1.04-3 2.63-3 1.6 0 2.63 1.17 2.63 3s-1.03 3-2.63 3zm0-.99c.82 0 1.37-.5 1.37-1.52v-.96c0-1.02-.55-1.52-1.37-1.52-.81 0-1.36.5-1.36 1.52v.96c0 1.02.55 1.52 1.36 1.52zm6.53.86h-1.4l-1.95-5.72h1.19l.86 2.6.59 2h.06l.59-2 .89-2.6h1.14l-1.97 5.72zm5.14.13c-1.63 0-2.63-1.16-2.63-2.99 0-1.83 1-3 2.63-3 1.68 0 2.54 1.27 2.54 2.86v.45h-3.93v.19c0 .88.54 1.5 1.5 1.5.71 0 1.19-.33 1.52-.86l.7.7c-.43.69-1.27 1.15-2.33 1.15zm0-5.05c-.83 0-1.39.62-1.39 1.5v.08h2.66v-.11c0-.88-.48-1.47-1.27-1.47zm7.67 4.92h-1.2V6.78h1.2v.95h.05c.23-.6.66-1.08 1.53-1.08.77 0 1.42.37 1.7 1.16h.03c.2-.63.8-1.16 1.72-1.16 1.14 0 1.8.81 1.8 2.22v3.63h-1.2V9.01c0-.88-.32-1.33-1.05-1.33-.6 0-1.16.32-1.16.98v3.84h-1.2V9.01c0-.89-.34-1.33-1.05-1.33-.6 0-1.17.32-1.17.98v3.84zm10.74.13c-1.6 0-2.63-1.16-2.63-2.99 0-1.83 1.03-3 2.63-3 1.6 0 2.63 1.17 2.63 3s-1.03 3-2.63 3zm0-.99c.81 0 1.36-.5 1.36-1.52v-.96c0-1.02-.55-1.52-1.36-1.52s-1.36.5-1.36 1.52v.96c0 1.02.55 1.52 1.36 1.52zm5.16.86h-1.2V6.78h1.2v1.1h.06c.16-.58.66-1.1 1.57-1.1h.32v1.15h-.47c-.95 0-1.48.32-1.48.92v3.65zm5.2.13c-1.62 0-2.62-1.16-2.62-2.99 0-1.83 1-3 2.63-3 1.68 0 2.54 1.27 2.54 2.86v.45h-3.93v.19c0 .88.54 1.5 1.5 1.5.71 0 1.18-.33 1.51-.86l.7.7c-.42.69-1.26 1.15-2.32 1.15zm0-5.05c-.82 0-1.38.62-1.38 1.5v.08h2.66v-.11c0-.88-.48-1.47-1.27-1.47zm8.69 5.05c-1.66 0-2.6-1.16-2.6-2.99 0-1.83.94-3 2.6-3 1.14 0 1.87.57 2.2 1.42l-.98.46c-.17-.53-.58-.87-1.22-.87-.88 0-1.34.6-1.34 1.48v1.03c0 .88.46 1.48 1.34 1.48.69 0 1.1-.37 1.34-.94l.91.48c-.37.94-1.16 1.45-2.25 1.45zm6.86-.13v-.95h-.05c-.2.56-.66 1.08-1.6 1.08-1.18 0-1.87-.8-1.87-2.2V6.77h1.2v3.49c0 .87.36 1.33 1.1 1.33.61 0 1.22-.32 1.22-1V6.79h1.2v5.72h-1.2zm4.73.13c-1.08 0-1.78-.4-2.32-1.08l.77-.7c.41.5.93.81 1.61.81.7 0 1.05-.28 1.05-.77 0-.36-.22-.63-.82-.71l-.52-.07c-1.17-.14-1.89-.65-1.89-1.7 0-1.11.87-1.76 2.13-1.76 1.03 0 1.62.34 2.13.91l-.73.7c-.3-.35-.79-.64-1.4-.64-.66 0-.97.28-.97.71 0 .44.28.64.88.74l.53.06c1.25.2 1.81.74 1.81 1.66 0 1.1-.89 1.84-2.26 1.84zm6.17-.13h-1.04c-.83 0-1.27-.46-1.27-1.24v-3.5h-.89v-.98h.49c.4 0 .52-.17.52-.56v-1h1.08v1.56h1.2v.98h-1.2v3.76h1.11v.98zm3.6.13c-1.6 0-2.64-1.16-2.64-2.99 0-1.83 1.04-3 2.63-3 1.6 0 2.63 1.17 2.63 3s-1.03 3-2.63 3zm0-.99c.8 0 1.35-.5 1.35-1.52v-.96c0-1.02-.55-1.52-1.36-1.52s-1.36.5-1.36 1.52v.96c0 1.02.55 1.52 1.36 1.52zm5.16.86H219V6.78h1.2v.95h.05c.23-.6.66-1.08 1.53-1.08.77 0 1.42.37 1.7 1.16h.03c.2-.63.8-1.16 1.72-1.16 1.14 0 1.8.81 1.8 2.22v3.63h-1.2V9.01c0-.88-.32-1.33-1.05-1.33-.6 0-1.16.32-1.16.98v3.84h-1.2V9.01c0-.89-.34-1.33-1.05-1.33-.6 0-1.17.32-1.17.98v3.84zm10.74.13c-1.63 0-2.63-1.16-2.63-2.99 0-1.83 1-3 2.63-3 1.68 0 2.54 1.27 2.54 2.86v.45h-3.93v.19c0 .88.54 1.5 1.51 1.5.7 0 1.18-.33 1.5-.86l.71.7c-.43.69-1.26 1.15-2.33 1.15zm0-5.05c-.82 0-1.38.62-1.38 1.5v.08h2.66v-.11c0-.88-.49-1.47-1.28-1.47zm5.07 4.92h-1.2V6.78h1.2v1.1h.05c.17-.58.66-1.1 1.58-1.1h.31v1.15h-.47c-.94 0-1.47.32-1.47.92v3.65zm4.82.13c-1.07 0-1.78-.4-2.32-1.08l.77-.7c.42.5.94.81 1.62.81.7 0 1.05-.28 1.05-.77 0-.36-.22-.63-.82-.71l-.53-.07c-1.16-.14-1.88-.65-1.88-1.7 0-1.11.87-1.76 2.13-1.76 1.03 0 1.61.34 2.13.91l-.74.7c-.3-.35-.78-.64-1.4-.64-.65 0-.96.28-.96.71 0 .44.27.64.88.74l.53.06c1.25.2 1.81.74 1.81 1.66 0 1.1-.89 1.84-2.27 1.84zM119.2 26.4v3.1h-1.24v-7.68h3.3c1.38 0 2.23.9 2.23 2.31 0 1.1-.52 1.85-1.5 2.14l1.66 3.23h-1.38l-1.54-3.1h-1.53zm0-1.05h1.98c.63 0 1-.34 1-.95v-.53c0-.62-.37-.96-1-.96h-1.98v2.44zm7.96 4.28c-1.63 0-2.63-1.16-2.63-2.99 0-1.83 1-3 2.63-3 1.68 0 2.54 1.27 2.54 2.86v.45h-3.93v.19c0 .88.54 1.5 1.51 1.5.7 0 1.18-.33 1.5-.86l.71.7c-.43.69-1.26 1.15-2.33 1.15zm0-5.05c-.83 0-1.39.62-1.39 1.5v.08h2.67v-.11c0-.88-.49-1.47-1.28-1.47zm7.46 4.92v-.95h-.05a1.63 1.63 0 01-1.6 1.08c-1.45 0-2.28-1.1-2.28-2.99 0-1.88.83-3 2.27-3 .76 0 1.37.4 1.6 1.09h.06v-3.37h1.2v8.14h-1.2zm-1.3-.9c.73 0 1.3-.4 1.3-.98v-1.96c0-.58-.57-.98-1.3-.98-.82 0-1.37.59-1.37 1.46v1c0 .88.55 1.46 1.38 1.46zm7.68.9v-.95h-.04c-.21.56-.66 1.08-1.6 1.08-1.19 0-1.88-.8-1.88-2.2v-3.65h1.2v3.49c0 .87.36 1.33 1.1 1.33.62 0 1.22-.32 1.22-1v-3.82h1.2v5.72H141zm5.13.13c-1.65 0-2.6-1.16-2.6-2.99 0-1.83.95-3 2.6-3 1.14 0 1.87.57 2.21 1.42l-.99.46c-.16-.53-.57-.87-1.22-.87-.88 0-1.33.6-1.33 1.48v1.03c0 .88.45 1.48 1.33 1.48.7 0 1.1-.37 1.34-.94l.91.48c-.37.93-1.15 1.45-2.25 1.45zm5.57 0c-1.62 0-2.62-1.16-2.62-2.99 0-1.83 1-3 2.63-3 1.68 0 2.54 1.27 2.54 2.86v.45h-3.93v.19c0 .88.54 1.5 1.5 1.5.71 0 1.18-.33 1.51-.86l.7.7c-.42.69-1.26 1.15-2.33 1.15zm0-5.05c-.82 0-1.38.62-1.38 1.5v.08h2.66v-.11c0-.88-.48-1.47-1.28-1.47zm10.07 4.92v-.95h-.05a1.63 1.63 0 01-1.61 1.08c-1.44 0-2.28-1.1-2.28-2.99 0-1.88.84-3 2.28-3 .76 0 1.36.4 1.6 1.09h.06v-3.37h1.2v8.14h-1.2zm-1.3-.9c.73 0 1.3-.4 1.3-.98v-1.96c0-.58-.57-.98-1.3-.98-.82 0-1.37.59-1.37 1.46v1c0 .88.55 1.46 1.37 1.46zm6.46 1.03c-1.63 0-2.63-1.16-2.63-2.99 0-1.83 1-3 2.63-3 1.68 0 2.54 1.27 2.54 2.86v.45h-3.93v.19c0 .88.54 1.5 1.5 1.5.71 0 1.18-.33 1.51-.86l.7.7c-.42.69-1.26 1.15-2.32 1.15zm0-5.05c-.83 0-1.39.62-1.39 1.5v.08h2.66v-.11c0-.88-.48-1.47-1.27-1.47zm4.16 4.92v-4.74h-.87v-.98h.87v-.95c0-.92.5-1.47 1.45-1.47h.95v.98h-1.2v1.44h1.2v.98h-1.2v4.74h-1.2zm8.3 0h-.67c-.62 0-.95-.4-1.03-.96h-.06c-.22.72-.83 1.1-1.67 1.1-1.17 0-1.84-.68-1.84-1.71 0-1.14.84-1.72 2.44-1.72h1.03v-.48c0-.7-.37-1.1-1.18-1.1-.67 0-1.07.33-1.36.78l-.72-.65c.38-.64 1.05-1.11 2.16-1.11 1.48 0 2.3.72 2.3 2v2.87h.6v.98zm-3.09-.78c.74 0 1.3-.35 1.3-.91v-.83h-1.02c-.84 0-1.24.28-1.24.77v.2c0 .5.37.77.96.77zm7.74.78v-.95h-.05c-.2.56-.66 1.08-1.6 1.08-1.18 0-1.88-.8-1.88-2.2v-3.65h1.2v3.49c0 .87.37 1.33 1.1 1.33.62 0 1.22-.32 1.22-1v-3.82h1.2v5.72h-1.2zm4.9 0h-.77c-.81 0-1.22-.45-1.22-1.19v-6.95h1.2v7.16h.8v.98zm3.72 0h-1.04c-.83 0-1.27-.46-1.27-1.24v-3.5h-.89v-.98h.49c.4 0 .52-.17.52-.56v-1h1.08v1.56h1.2v.98h-1.2v3.76h1.11v.98zm5.19 0h-1.2v-5.72h1.2v1.1h.06c.16-.58.66-1.1 1.57-1.1h.32v1.15h-.48c-.94 0-1.47.32-1.47.92v3.65zm7.79 0h-.67c-.63 0-.96-.4-1.04-.96h-.05c-.22.72-.84 1.1-1.67 1.1-1.18 0-1.85-.68-1.85-1.71 0-1.14.84-1.72 2.44-1.72h1.03v-.48c0-.7-.37-1.1-1.17-1.1-.67 0-1.08.33-1.37.78l-.71-.65c.37-.64 1.04-1.11 2.15-1.11 1.48 0 2.3.72 2.3 2v2.87h.6v.98zm-3.1-.78c.74 0 1.3-.35 1.3-.91v-.83h-1.02c-.83 0-1.24.28-1.24.77v.2c0 .5.37.77.97.77zm6.87.78h-1.05c-.82 0-1.26-.46-1.26-1.24v-3.5h-.9v-.98h.5c.39 0 .52-.17.52-.56v-1h1.08v1.56h1.2v.98h-1.2v3.76h1.11v.98zm3.59.13c-1.63 0-2.63-1.16-2.63-2.99 0-1.83 1-3 2.63-3 1.68 0 2.54 1.27 2.54 2.86v.45h-3.93v.19c0 .88.54 1.5 1.51 1.5.7 0 1.18-.33 1.5-.86l.71.7c-.43.69-1.26 1.15-2.33 1.15zm0-5.05c-.83 0-1.39.62-1.39 1.5v.08h2.67v-.11c0-.88-.49-1.47-1.28-1.47zm5.68 5.05c-1.07 0-1.78-.4-2.32-1.08l.77-.7c.42.5.94.81 1.62.81.7 0 1.04-.28 1.04-.77 0-.36-.22-.63-.81-.71l-.53-.07c-1.16-.14-1.88-.65-1.88-1.7 0-1.11.87-1.76 2.12-1.76 1.04 0 1.62.34 2.14.91l-.74.7c-.3-.35-.78-.64-1.4-.64-.66 0-.96.28-.96.71 0 .44.27.64.88.74l.52.06c1.26.2 1.82.74 1.82 1.67 0 1.1-.9 1.83-2.27 1.83zM119.2 46.5h-1.24v-7.68h3.3c1.4 0 2.23.91 2.23 2.31s-.83 2.31-2.23 2.31h-2.06v3.06zm0-6.59v2.44h1.98c.63 0 1-.34 1-.95v-.53c0-.62-.37-.96-1-.96h-1.98zm6.66 6.59h-1.2v-5.72h1.2v1.1h.05c.17-.58.66-1.1 1.57-1.1h.32v1.16h-.47c-.95 0-1.47.31-1.47.9v3.66zm3.61-6.74c-.5 0-.71-.27-.71-.63v-.19c0-.36.22-.62.71-.62.5 0 .7.26.7.62v.19c0 .36-.2.63-.7.63zm-.6 6.74v-5.72h1.2v5.72h-1.2zm5.12.13c-1.65 0-2.6-1.16-2.6-2.99 0-1.83.95-3 2.6-3 1.14 0 1.87.57 2.21 1.42l-.99.46c-.16-.53-.57-.87-1.22-.87-.88 0-1.33.6-1.33 1.48v1.03c0 .88.45 1.48 1.33 1.48.7 0 1.1-.37 1.34-.94l.92.48c-.38.94-1.16 1.45-2.26 1.45zm5.58 0c-1.63 0-2.63-1.16-2.63-2.99 0-1.83 1-3 2.63-3 1.68 0 2.54 1.27 2.54 2.86v.45h-3.93v.18c0 .88.54 1.51 1.5 1.51.71 0 1.18-.33 1.51-.86l.7.7c-.42.69-1.26 1.15-2.32 1.15zm0-5.05c-.83 0-1.39.62-1.39 1.5v.08h2.66v-.11c0-.88-.48-1.47-1.27-1.47zm7.66 4.92h-1.2v-5.72h1.2v1.1h.06c.16-.58.66-1.1 1.57-1.1h.32v1.16h-.47c-.95 0-1.48.31-1.48.9v3.66zm3.62-6.74c-.5 0-.72-.27-.72-.63v-.19c0-.36.22-.62.72-.62s.7.26.7.62v.19c0 .36-.2.63-.7.63zm-.6 6.74v-5.72h1.2v5.72h-1.2zm4.72.13c-1.08 0-1.78-.4-2.32-1.08l.77-.7c.42.5.94.81 1.62.81.69 0 1.04-.28 1.04-.77 0-.36-.22-.63-.81-.71l-.53-.07c-1.17-.14-1.88-.65-1.88-1.7 0-1.11.87-1.76 2.12-1.76 1.04 0 1.62.34 2.14.91l-.74.7c-.3-.35-.78-.64-1.4-.64-.66 0-.97.28-.97.71 0 .44.28.64.88.74l.53.06c1.26.2 1.82.74 1.82 1.66 0 1.1-.9 1.84-2.27 1.84zm3.62-.13v-8.14h1.2v5h.06l.79-1.03 1.37-1.55h1.4l-2 2.21 2.24 3.51h-1.43l-1.64-2.73-.79.86v1.87h-1.2zm9.82 0h-1.2v-5.72h1.2v.95h.05c.23-.6.66-1.08 1.53-1.08.77 0 1.42.37 1.7 1.16h.03c.2-.63.8-1.16 1.72-1.16 1.14 0 1.8.81 1.8 2.22v3.63h-1.2v-3.49c0-.88-.32-1.33-1.05-1.33-.6 0-1.16.32-1.16.98v3.84h-1.2v-3.49c0-.89-.34-1.33-1.05-1.33-.6 0-1.17.32-1.17.98v3.84zm10.74.13c-1.6 0-2.63-1.16-2.63-2.99 0-1.83 1.04-3 2.63-3 1.6 0 2.63 1.17 2.63 3s-1.03 3-2.63 3zm0-.99c.82 0 1.37-.5 1.37-1.52v-.96c0-1.02-.55-1.52-1.37-1.52-.81 0-1.36.5-1.36 1.52v.96c0 1.02.55 1.52 1.36 1.52zm5.17.86h-1.2v-5.72h1.2v1.1h.05c.16-.58.66-1.1 1.57-1.1h.32v1.16h-.47c-.95 0-1.47.31-1.47.9v3.66zm5.2.13c-1.63 0-2.63-1.16-2.63-2.99 0-1.83 1-3 2.63-3 1.68 0 2.54 1.27 2.54 2.86v.45h-3.93v.18c0 .88.54 1.51 1.5 1.51.71 0 1.19-.33 1.51-.86l.7.7c-.42.69-1.26 1.15-2.32 1.15zm0-5.05c-.83 0-1.39.62-1.39 1.5v.08h2.66v-.11c0-.88-.48-1.47-1.27-1.47zm8.7 5.05c-1.62 0-2.62-1.16-2.62-2.99 0-1.83 1-3 2.63-3 1.68 0 2.54 1.27 2.54 2.86v.45h-3.93v.18c0 .88.54 1.51 1.51 1.51.7 0 1.18-.33 1.5-.86l.71.7c-.43.69-1.26 1.15-2.33 1.15zm0-5.05c-.82 0-1.38.62-1.38 1.5v.08h2.66v-.11c0-.88-.48-1.47-1.27-1.47zm4.17 4.92v-4.74h-.87v-.98h.87v-.95c0-.92.5-1.47 1.46-1.47h.94v.98h-1.2v1.44h1.2v.98h-1.2v4.74h-1.2zm3.76 0v-4.74h-.86v-.98h.86v-.95c0-.92.5-1.47 1.46-1.47h.94v.98h-1.2v1.44h1.2v.98h-1.2v4.74h-1.2zm5.65.13c-1.63 0-2.63-1.16-2.63-2.99 0-1.83 1-3 2.63-3 1.68 0 2.54 1.27 2.54 2.86v.45h-3.93v.18c0 .88.54 1.51 1.5 1.51.71 0 1.19-.33 1.51-.86l.7.7c-.42.69-1.26 1.15-2.32 1.15zm0-5.05c-.83 0-1.39.62-1.39 1.5v.08h2.66v-.11c0-.88-.48-1.47-1.27-1.47zm6.08 5.05c-1.65 0-2.6-1.16-2.6-2.99 0-1.83.95-3 2.6-3 1.14 0 1.87.57 2.2 1.42l-.98.46c-.17-.53-.58-.87-1.22-.87-.88 0-1.34.6-1.34 1.48v1.03c0 .88.46 1.48 1.34 1.48.69 0 1.1-.37 1.34-.94l.91.48c-.37.94-1.15 1.45-2.25 1.45zm6.02-.13h-1.04c-.83 0-1.27-.46-1.27-1.24v-3.5h-.89v-.98h.48c.4 0 .53-.16.53-.56v-1h1.08v1.56h1.2v.98h-1.2v3.76h1.11v.98zm2-6.74c-.5 0-.72-.27-.72-.63v-.19c0-.36.22-.62.72-.62.49 0 .7.26.7.62v.19c0 .36-.21.63-.7.63zm-.61 6.74v-5.72h1.2v5.72h-1.2zm5.56 0h-1.4l-1.95-5.72h1.19l.86 2.6.59 2h.06l.59-2 .89-2.6h1.14l-1.97 5.72zm5.14.13c-1.63 0-2.63-1.16-2.63-2.99 0-1.83 1-3 2.63-3 1.68 0 2.54 1.27 2.54 2.86v.45h-3.93v.18c0 .88.54 1.51 1.5 1.51.71 0 1.19-.33 1.52-.86l.7.7c-.43.69-1.27 1.15-2.33 1.15zm0-5.05c-.83 0-1.39.62-1.39 1.5v.08h2.66v-.11c0-.88-.48-1.47-1.27-1.47zm5.86 4.92h-.77c-.82 0-1.22-.45-1.22-1.19v-6.95h1.2v7.16h.79v.98zm3.42-2.35l1.15-3.37h1.15l-2.4 6.85c-.28.77-.62 1.07-1.51 1.07h-.7v-.98h.97l.33-.97-2.08-5.97h1.2l1.14 3.37.33 1.24h.06l.36-1.24z" fill="#080808"/></svg>