<svg width="320" height="50" viewBox="0 0 320 50" fill="none" xmlns="http://www.w3.org/2000/svg"><path d="M110.55 23.18c-.92 0-1.7-.16-2.34-.46a5.45 5.45 0 01-1.64-1.23l1.5-1.52c.71.8 1.59 1.2 2.63 1.2.55 0 .97-.12 1.24-.35.27-.23.4-.53.4-.91 0-.29-.08-.53-.23-.72-.17-.2-.49-.34-.98-.4l-1.03-.14a4.04 4.04 0 01-2.45-1 2.92 2.92 0 01-.77-2.12c0-.47.1-.9.28-1.29.17-.39.43-.72.76-1 .34-.29.75-.5 1.23-.65a5.35 5.35 0 011.66-.24c.8 0 1.49.13 2.09.38.6.24 1.11.61 1.54 1.09l-1.51 1.53a2.91 2.91 0 00-2.25-.99c-.51 0-.89.09-1.14.27a.87.87 0 00-.38.75c0 .36.1.62.29.78.2.16.52.27.96.34l1.03.17c1.09.17 1.89.5 2.4 1 .52.5.78 1.2.78 2.1 0 .5-.09.96-.27 1.39-.17.41-.44.77-.79 1.07-.34.3-.77.54-1.28.71a5.8 5.8 0 01-1.73.24zm8.83 0c-.6 0-1.13-.1-1.6-.29-.47-.2-.88-.47-1.2-.82a3.7 3.7 0 01-.74-1.3 5.7 5.7 0 01-.24-1.71c0-.63.08-1.18.24-1.68a3.15 3.15 0 011.88-2.13c.45-.2.98-.3 1.57-.3.65 0 1.2.1 1.66.33.47.21.86.51 1.14.88.3.37.52.8.65 1.29.14.48.21.98.21 1.52v.66h-5.06v.12c0 .52.14.93.42 1.24.28.3.72.45 1.33.45.45 0 .83-.09 1.12-.27.29-.19.56-.42.81-.68l1.11 1.39a3.5 3.5 0 01-1.38.96c-.56.23-1.2.34-1.92.34zm-.05-6.6c-.44 0-.8.15-1.06.45-.25.29-.38.68-.38 1.17v.12h2.77v-.14c0-.48-.11-.86-.33-1.15-.22-.3-.55-.45-1-.45zm8.17 6.6c-.6 0-1.13-.1-1.6-.29-.47-.2-.87-.47-1.2-.82a3.7 3.7 0 01-.74-1.3 5.7 5.7 0 01-.24-1.71c0-.63.08-1.18.24-1.68a3.15 3.15 0 011.88-2.13c.46-.2.98-.3 1.57-.3.65 0 1.2.1 1.67.33.47.21.85.51 1.14.88.3.37.51.8.64 1.29.14.48.21.98.21 1.52v.66h-5.05v.12c0 .52.14.93.42 1.24.28.3.72.45 1.32.45.46 0 .83-.09 1.12-.27.3-.19.56-.42.81-.68l1.11 1.39a3.5 3.5 0 01-1.38.96c-.56.23-1.2.34-1.92.34zm-.04-6.6c-.45 0-.8.15-1.07.45-.25.29-.37.68-.37 1.17v.12h2.76v-.14c0-.48-.11-.86-.33-1.15-.21-.3-.54-.45-1-.45zM135.7 23V12.53h6.94v2.03H138v2.14h3.97v2.01H138V23h-2.28zm9.46-8.71c-.45 0-.78-.1-.99-.3a1.1 1.1 0 01-.3-.8v-.33c0-.32.1-.58.3-.78.21-.21.54-.31.99-.31.45 0 .78.1.98.31.2.2.31.46.31.78v.33c0 .32-.1.59-.31.8-.2.2-.53.3-.98.3zm-1.11.84h2.22V23h-2.22v-7.88zm4 7.87v-7.88h2.21v1.34h.1c.13-.41.38-.77.73-1.07.35-.3.83-.45 1.45-.45.81 0 1.42.28 1.83.82.42.54.63 1.3.63 2.3V23h-2.22v-4.75c0-.52-.08-.89-.24-1.13-.16-.25-.44-.38-.85-.38a1.85 1.85 0 00-1 .29c-.12.1-.23.22-.3.38a.98.98 0 00-.13.49V23h-2.22zm11.91.18c-.6 0-1.13-.1-1.6-.29-.47-.2-.87-.47-1.2-.82a3.7 3.7 0 01-.74-1.3 5.7 5.7 0 01-.24-1.71c0-.63.08-1.18.24-1.68a3.15 3.15 0 011.88-2.13c.46-.2.98-.3 1.57-.3.65 0 1.2.1 1.67.33.47.21.85.51 1.14.88.3.37.51.8.64 1.29.14.48.21.98.21 1.52v.66h-5.05v.12c0 .52.14.93.42 1.24.28.3.72.45 1.32.45.46 0 .83-.09 1.12-.27.3-.19.56-.42.81-.68l1.11 1.39a3.5 3.5 0 01-1.38.96c-.56.23-1.2.34-1.92.34zm-.04-6.6c-.45 0-.8.15-1.07.45-.25.29-.37.68-.37 1.17v.12h2.76v-.14c0-.48-.11-.86-.33-1.15-.21-.3-.54-.45-1-.45zM163.8 23l2.6-4-2.57-3.88h2.52l1.47 2.48h.06l1.43-2.48h2.34l-2.61 3.95 2.62 3.93h-2.52l-1.51-2.57h-.06L166.12 23h-2.3zm11.82.18c-.58 0-1.1-.1-1.56-.29a3.18 3.18 0 01-1.15-.82c-.31-.36-.55-.8-.72-1.3a5.39 5.39 0 01-.26-1.71c0-.63.09-1.2.26-1.71.17-.52.4-.95.72-1.3.32-.36.7-.63 1.15-.82.46-.19.98-.29 1.56-.29.58 0 1.1.1 1.55.29.46.19.84.46 1.15.82.32.36.57.79.74 1.3.17.5.25 1.07.25 1.7 0 .63-.08 1.2-.25 1.71a3.7 3.7 0 01-.74 1.31c-.3.36-.7.63-1.15.82-.45.2-.97.29-1.55.29zm0-1.75c.44 0 .78-.14 1.02-.41.24-.27.36-.66.36-1.16v-1.6c0-.5-.12-.89-.36-1.16a1.3 1.3 0 00-1.02-.4c-.44 0-.78.14-1.02.4-.24.27-.36.66-.36 1.16v1.6c0 .5.12.89.36 1.16.24.27.58.4 1.02.4zm7.64 1.75c-.76 0-1.4-.12-1.92-.36-.52-.25-.98-.6-1.4-1.05l1.31-1.32c.28.31.6.55.93.73.34.18.73.27 1.16.27.44 0 .74-.06.91-.19a.68.68 0 00.26-.56c0-.36-.27-.59-.8-.65l-.85-.11c-1.77-.22-2.66-1.03-2.66-2.43a2.36 2.36 0 01.83-1.85c.27-.22.59-.4.96-.52.38-.13.8-.2 1.27-.2a5.74 5.74 0 011.92.34c.25.1.48.23.68.38.2.15.41.32.61.52l-1.27 1.3a2.77 2.77 0 00-1.82-.81c-.38 0-.65.06-.8.18a.57.57 0 00-.25.48c0 .21.06.38.17.5.12.1.34.19.66.24l.88.11c1.73.23 2.6 1.02 2.6 2.38a2.31 2.31 0 01-.93 1.89c-.3.23-.65.4-1.07.54-.4.13-.87.19-1.38.19zm8.95-8.9c-.45 0-.78-.1-1-.3a1.1 1.1 0 01-.3-.79v-.33c0-.32.1-.58.3-.78.22-.21.55-.31 1-.31.45 0 .77.1.97.31.21.2.32.46.32.78v.33c0 .32-.1.59-.32.8-.2.2-.52.3-.97.3zm-1.11.85h2.22V23h-2.22v-7.88zM195.1 23v-7.88h2.22v1.34h.09c.14-.41.38-.77.73-1.07.35-.3.84-.45 1.46-.45.8 0 1.42.28 1.83.82.42.54.63 1.3.63 2.3V23h-2.22v-4.75c0-.52-.08-.89-.24-1.13-.16-.25-.45-.38-.86-.38a1.85 1.85 0 00-.99.29c-.13.1-.23.22-.31.38a.98.98 0 00-.12.49V23h-2.22zm17.7 0c-.4 0-.74-.13-1-.38a1.75 1.75 0 01-.5-1h-.1c-.11.51-.38.9-.79 1.17-.4.26-.91.39-1.51.39-.8 0-1.4-.21-1.82-.63a2.25 2.25 0 01-.63-1.66c0-.84.3-1.45.9-1.85a4.38 4.38 0 012.48-.61h1.24v-.5c0-.38-.1-.68-.3-.9-.2-.23-.53-.35-1-.35-.44 0-.8.1-1.05.29-.26.19-.48.4-.65.64l-1.32-1.16a3.4 3.4 0 011.2-1.1c.5-.27 1.15-.4 1.98-.4 1.12 0 1.96.24 2.52.73s.84 1.2.84 2.14v3.45h.74V23h-1.23zm-3.08-1.36c.37 0 .69-.09.95-.25.27-.16.4-.41.4-.78v-.93H210c-.87 0-1.3.3-1.3.89v.23c0 .29.09.5.27.64.18.13.43.2.76.2zm8.68 1.54a4.1 4.1 0 01-1.58-.29 3.25 3.25 0 01-1.86-2.13 5.7 5.7 0 01-.24-1.7c0-.63.08-1.2.24-1.7.16-.51.4-.95.7-1.3.32-.36.7-.64 1.16-.83a4.1 4.1 0 011.58-.29c.8 0 1.46.19 2 .54.53.37.92.87 1.15 1.52l-1.8.78a1.5 1.5 0 00-.44-.77 1.27 1.27 0 00-.91-.31c-.45 0-.8.15-1.02.45-.23.29-.35.69-.35 1.19v1.46c0 .5.12.9.35 1.19.23.29.57.44 1.02.44.4 0 .71-.11.94-.32.24-.22.42-.5.53-.86l1.72.75c-.26.75-.66 1.3-1.21 1.66-.54.34-1.2.52-1.98.52zm7.03-.18c-.77 0-1.36-.2-1.76-.59-.39-.39-.58-.96-.58-1.7v-3.86h-1.11v-1.73h.55c.3 0 .5-.06.62-.2.1-.15.16-.37.16-.63v-1.3h2v2.13h1.56v1.73h-1.56v4.42h1.44V23h-1.32zm3.79-8.71c-.45 0-.78-.1-.99-.3a1.1 1.1 0 01-.3-.8v-.33c0-.32.1-.58.3-.78.21-.21.54-.31.99-.31.45 0 .78.1.97.31.22.2.32.46.32.78v.33c0 .32-.1.59-.31.8-.2.2-.53.3-.98.3zm-1.11.84h2.22V23h-2.22v-7.88zm7.19 8.05c-.58 0-1.1-.1-1.56-.29a3.18 3.18 0 01-1.16-.82c-.3-.36-.55-.8-.72-1.3a5.39 5.39 0 01-.25-1.71c0-.63.08-1.2.25-1.71.17-.52.41-.95.72-1.3.32-.36.7-.63 1.16-.82.46-.19.98-.29 1.56-.29.58 0 1.1.1 1.54.29.46.19.85.46 1.16.82.32.36.56.79.73 1.3.17.5.26 1.07.26 1.7 0 .63-.09 1.2-.26 1.71a3.7 3.7 0 01-.73 1.31c-.31.36-.7.63-1.16.82-.45.2-.96.29-1.54.29zm0-1.75c.44 0 .78-.14 1.02-.41.24-.27.36-.66.36-1.16v-1.6c0-.5-.12-.89-.36-1.16a1.3 1.3 0 00-1.02-.4c-.44 0-.78.14-1.02.4-.24.27-.36.66-.36 1.16v1.6c0 .5.12.89.36 1.16.24.27.58.4 1.02.4zm4.97 1.57v-7.88h2.22v1.34h.09c.14-.41.38-.77.73-1.07.35-.3.84-.45 1.46-.45.8 0 1.42.28 1.83.82.42.54.63 1.3.63 2.3V23H245v-4.75c0-.52-.08-.89-.24-1.13-.16-.25-.45-.38-.86-.38a1.85 1.85 0 00-.99.29c-.13.1-.23.22-.31.38a.98.98 0 00-.12.49V23h-2.22z" fill="#fff"/><path d="M106.93 39v-6.98h4.16v.74h-3.32v2.34h3.03v.74h-3.03V39h-.84zm5.31 0v-5.16h.8v.95h.05c.1-.25.26-.47.5-.66.24-.2.57-.29 1-.29h.3v.8h-.47c-.43 0-.77.08-1.02.25-.24.16-.36.36-.36.61V39h-.8zm5.56.12a2.14 2.14 0 01-1.69-.73c-.2-.24-.35-.52-.47-.85-.1-.33-.16-.7-.16-1.12 0-.4.06-.78.16-1.11.12-.33.27-.62.47-.85a2.09 2.09 0 011.7-.74 2.04 2.04 0 011.63.72c.19.22.33.48.43.79.11.3.16.64.16 1.01v.38h-3.7v.24a1.57 1.57 0 00.4 1.11c.13.14.29.25.47.33.2.08.41.12.65.12a1.5 1.5 0 001.42-.89l.57.41c-.16.35-.42.64-.78.86a2.4 2.4 0 01-1.26.32zm0-4.73a1.46 1.46 0 00-1.07.44 1.67 1.67 0 00-.41 1.12v.07h2.85v-.11c0-.46-.12-.83-.38-1.1a1.25 1.25 0 00-.99-.42zm5.5 4.73a2.15 2.15 0 01-2.16-1.58c-.11-.33-.17-.7-.17-1.12 0-.4.06-.78.16-1.11.12-.33.27-.62.47-.85a2.1 2.1 0 011.7-.74 2.03 2.03 0 011.63.72c.19.22.33.48.43.79.1.3.16.64.16 1.01v.38h-3.7v.24a1.57 1.57 0 00.4 1.11c.13.14.28.25.47.33.2.08.41.12.65.12a1.5 1.5 0 001.42-.89l.57.41c-.16.35-.42.64-.78.86-.35.21-.77.32-1.26.32zm0-4.73a1.46 1.46 0 00-1.08.44 1.69 1.69 0 00-.41 1.12v.07h2.85v-.11c0-.46-.13-.83-.38-1.1a1.25 1.25 0 00-.99-.42zm6.75 4.61c-.28 0-.49-.08-.64-.23a.88.88 0 01-.2-.6V31.6h.8v6.7h.75v.7h-.7zm3.83.12c-.35 0-.66-.06-.95-.19-.29-.13-.53-.3-.74-.54-.2-.24-.36-.52-.47-.85-.12-.33-.17-.7-.17-1.12 0-.4.05-.78.17-1.11.11-.33.27-.62.47-.85.2-.24.45-.42.74-.55.28-.13.6-.19.95-.19.34 0 .66.06.94.19.28.13.53.31.74.55.2.23.37.52.48.85.11.33.17.7.17 1.11 0 .41-.06.79-.17 1.12-.11.33-.28.61-.48.85a2.25 2.25 0 01-1.68.73zm0-.71c.43 0 .78-.13 1.06-.4.27-.27.4-.67.4-1.22v-.74c0-.55-.13-.95-.4-1.22-.28-.27-.63-.4-1.06-.4-.44 0-.79.13-1.06.4-.28.27-.41.67-.41 1.22v.74c0 .55.13.95.4 1.22.28.27.63.4 1.07.4zm7.4.59c-.3 0-.52-.08-.66-.24a1.2 1.2 0 01-.24-.6h-.05c-.11.32-.3.56-.56.72-.26.16-.57.24-.93.24-.54 0-.97-.14-1.28-.42-.3-.28-.45-.66-.45-1.14 0-.49.18-.86.53-1.12.36-.26.92-.39 1.67-.39h1.02v-.51c0-.37-.1-.65-.3-.84-.2-.2-.5-.29-.92-.29-.31 0-.57.07-.79.21-.2.14-.38.33-.52.56l-.48-.45c.14-.28.37-.52.67-.71.31-.2.7-.3 1.16-.3.63 0 1.12.15 1.46.46.35.3.52.73.52 1.28v2.84h.6v.7h-.46zm-2.3-.56c.2 0 .38-.02.54-.07.17-.05.31-.11.43-.2a1 1 0 00.28-.3c.07-.11.1-.24.1-.37v-.85h-1.06c-.46 0-.8.07-1 .2a.65.65 0 00-.32.58v.21c0 .25.1.45.27.59.19.14.44.21.75.21zm3.89.56v-5.16h.8v.84h.04c.12-.3.3-.53.53-.7.23-.17.54-.26.93-.26.53 0 .95.17 1.26.52.3.34.47.82.47 1.45V39h-.8v-3.17c0-.93-.4-1.39-1.17-1.39-.16 0-.32.02-.47.06-.15.04-.28.1-.4.18a.92.92 0 00-.3.31.87.87 0 00-.1.43V39h-.8zm8.04-7.4h.8v3.08h.04c.14-.33.33-.57.58-.72.26-.16.57-.24.93-.24a1.85 1.85 0 011.53.73c.19.23.33.52.42.85.1.33.15.7.15 1.12 0 .41-.05.79-.15 1.12-.1.33-.23.62-.42.85a1.85 1.85 0 01-1.53.73c-.7 0-1.2-.32-1.5-.96h-.05V39h-.8v-7.4zm2.13 6.8c.46 0 .81-.14 1.07-.42.26-.29.4-.66.4-1.12v-.88c0-.46-.14-.83-.4-1.11a1.37 1.37 0 00-1.07-.43 1.7 1.7 0 00-.94.28c-.12.09-.21.2-.29.32a.79.79 0 00-.1.39v1.92c0 .17.04.32.1.45a1.13 1.13 0 00.71.53c.17.05.34.07.52.07zm5.62.72c-.34 0-.66-.06-.95-.19a2.13 2.13 0 01-1.2-1.39c-.12-.33-.18-.7-.18-1.12 0-.4.06-.78.17-1.11.12-.33.27-.62.47-.85.21-.24.46-.42.74-.55.29-.13.6-.19.95-.19s.66.06.94.19c.29.13.54.31.74.55.21.23.37.52.48.85.12.33.17.7.17 1.11 0 .41-.05.79-.17 1.12-.11.33-.27.61-.48.85a2.25 2.25 0 01-1.68.73zm0-.71c.44 0 .79-.13 1.06-.4.28-.27.41-.67.41-1.22v-.74c0-.55-.13-.95-.4-1.22-.28-.27-.63-.4-1.07-.4-.43 0-.78.13-1.06.4-.27.27-.4.67-.4 1.22v.74c0 .55.13.95.4 1.22.28.27.63.4 1.06.4zm5.6.71c-.35 0-.66-.06-.95-.19-.29-.13-.53-.3-.74-.54-.2-.24-.36-.52-.47-.85-.11-.33-.17-.7-.17-1.12 0-.4.06-.78.17-1.11.11-.33.27-.62.47-.85.2-.24.45-.42.74-.55.29-.13.6-.19.95-.19s.66.06.94.19c.29.13.53.31.74.55.2.23.37.52.48.85.11.33.17.7.17 1.11 0 .41-.06.79-.17 1.12-.11.33-.27.61-.48.85a2.25 2.25 0 01-1.68.73zm0-.71c.43 0 .79-.13 1.06-.4s.4-.67.4-1.22v-.74c0-.55-.13-.95-.4-1.22s-.63-.4-1.06-.4c-.43 0-.79.13-1.06.4s-.41.67-.41 1.22v.74c0 .55.14.95.4 1.22.28.27.64.4 1.07.4zm3.65-6.81h.8v4.69h.03l.8-.88 1.46-1.57h.97l-1.91 2.04 2.1 3.12h-.97l-1.72-2.63-.76.79V39h-.8v-7.4zm8.77 7.4l-1.8-5.16h.8l.9 2.56.55 1.76h.05l.56-1.76.92-2.56h.77L177.61 39h-.93zm6.96-.84h-.04a2.4 2.4 0 01-.2.36c-.07.11-.16.22-.28.31-.11.09-.25.16-.4.21-.17.05-.35.08-.57.08-.53 0-.95-.17-1.27-.51a2.1 2.1 0 01-.47-1.46v-3.31h.8v3.17c0 .93.4 1.39 1.18 1.39.16 0 .32-.02.46-.06.16-.04.29-.1.4-.18a.85.85 0 00.4-.75v-3.57h.8V39h-.8v-.84zM187 39c-.28 0-.5-.08-.64-.23a.88.88 0 01-.21-.6V31.6h.8v6.7h.76v.7H187zm1.87 0v-5.16h.8v.84h.04c.13-.3.3-.53.53-.7.23-.17.54-.26.93-.26.54 0 .96.17 1.26.52.31.34.47.82.47 1.45V39h-.8v-3.17c0-.93-.39-1.39-1.17-1.39-.16 0-.31.02-.47.06-.15.04-.28.1-.4.18a.93.93 0 00-.29.31.88.88 0 00-.1.43V39h-.8zm7.63.12a2.15 2.15 0 01-2.16-1.58c-.11-.33-.16-.7-.16-1.12 0-.4.05-.78.16-1.11.1-.33.26-.62.47-.85a2.1 2.1 0 011.69-.74 2.03 2.03 0 011.63.72c.19.22.34.48.44.79.1.3.16.64.16 1.01v.38H195v.24c0 .22.04.43.1.62.08.19.18.35.3.49.14.14.3.25.49.33.19.08.4.12.64.12a1.5 1.5 0 001.42-.89l.57.41c-.16.35-.42.64-.78.86-.35.21-.77.32-1.25.32zm0-4.73a1.46 1.46 0 00-1.07.44 1.69 1.69 0 00-.41 1.12v.07h2.84v-.11c0-.46-.12-.83-.38-1.1a1.25 1.25 0 00-.98-.42zm3.54 4.61v-5.16h.8v.95h.05c.1-.25.26-.47.5-.66.24-.2.57-.29 1-.29h.3v.8h-.47c-.43 0-.77.08-1.02.25-.24.16-.36.36-.36.61V39h-.8zm7.39 0c-.3 0-.52-.08-.65-.24-.13-.16-.21-.36-.24-.6h-.05c-.12.32-.3.56-.56.72-.26.16-.57.24-.93.24-.55 0-.98-.14-1.28-.42-.3-.28-.45-.66-.45-1.14 0-.49.17-.86.53-1.12.36-.26.91-.39 1.67-.39h1.02v-.51c0-.37-.1-.65-.3-.84-.2-.2-.51-.29-.92-.29-.32 0-.58.07-.8.21-.2.14-.37.33-.51.56l-.48-.45c.14-.28.36-.52.67-.71.3-.2.69-.3 1.16-.3.62 0 1.11.15 1.46.46.34.3.52.73.52 1.28v2.84h.59v.7h-.45zm-2.3-.56c.2 0 .38-.02.55-.07.16-.05.3-.11.43-.2a.98.98 0 00.28-.3c.06-.11.1-.24.1-.37v-.85h-1.06c-.46 0-.8.07-1.01.2a.65.65 0 00-.31.58v.21c0 .25.09.45.27.59.18.14.43.21.75.21zm3.89-6.84h.8v3.08h.04c.13-.33.32-.57.58-.72.26-.16.57-.24.93-.24a1.85 1.85 0 011.53.73c.19.23.32.52.42.85.1.33.15.7.15 1.12 0 .41-.05.79-.15 1.12-.1.33-.23.62-.42.85a1.85 1.85 0 01-1.53.73c-.7 0-1.2-.32-1.51-.96h-.04V39h-.8v-7.4zm2.13 6.8c.45 0 .8-.14 1.07-.42.26-.29.39-.66.39-1.12v-.88c0-.46-.13-.83-.4-1.11a1.37 1.37 0 00-1.06-.43 1.7 1.7 0 00-.94.28c-.12.09-.22.2-.3.32a.79.79 0 00-.1.39v1.92c0 .17.04.32.1.45a1.13 1.13 0 00.72.53c.16.05.34.07.52.07zm4.07-5.77c-.18 0-.3-.04-.38-.12a.49.49 0 01-.11-.33v-.13c0-.13.03-.24.1-.32.09-.09.21-.13.39-.13.17 0 .3.04.37.13.08.08.12.19.12.32v.13c0 .13-.04.24-.12.33-.08.08-.2.12-.37.12zm-.4 1.21h.8V39h-.8v-5.16zm3.35 5.16c-.28 0-.5-.08-.64-.23a.88.88 0 01-.21-.6V31.6h.8v6.7h.76v.7h-.71zm2.27-6.37c-.17 0-.3-.04-.38-.12a.5.5 0 01-.1-.33v-.13c0-.13.03-.24.1-.32.08-.09.21-.13.38-.13.18 0 .3.04.37.13.08.08.12.19.12.32v.13c0 .13-.04.24-.12.33-.07.08-.2.12-.37.12zm-.4 1.21h.8V39h-.8v-5.16zm3.64 5.16c-.28 0-.49-.08-.64-.23a.9.9 0 01-.2-.62v-3.61h-.86v-.7h.48c.18 0 .3-.03.35-.1.07-.07.1-.2.1-.37v-.96h.72v1.43h1.13v.7h-1.13v3.76h1.05v.7h-1zm5.55-5.16h.79l-2.31 6.36c-.06.15-.12.28-.18.38a.73.73 0 01-.22.25c-.09.06-.2.1-.33.13s-.28.04-.47.04h-.41v-.7h.8l.4-1.1-1.93-5.36h.8l1.24 3.51.24.84h.05l.28-.84 1.25-3.51zm7.92 5.16c-.3 0-.51-.08-.65-.24a1.2 1.2 0 01-.24-.6h-.05c-.11.32-.3.56-.56.72-.26.16-.57.24-.93.24-.54 0-.97-.14-1.28-.42-.3-.28-.45-.66-.45-1.14 0-.49.18-.86.53-1.12.36-.26.92-.39 1.67-.39h1.02v-.51c0-.37-.1-.65-.3-.84-.2-.2-.5-.29-.92-.29-.31 0-.57.07-.79.21-.2.14-.38.33-.52.56l-.48-.45c.14-.28.37-.52.67-.71.3-.2.7-.3 1.16-.3.63 0 1.12.15 1.46.46.35.3.52.73.52 1.28v2.84h.6v.7h-.46zm-2.3-.56c.2 0 .39-.02.55-.07.17-.05.31-.11.43-.2a1 1 0 00.28-.3c.07-.11.1-.24.1-.37v-.85h-1.06c-.46 0-.8.07-1 .2a.65.65 0 00-.32.58v.21c0 .25.1.45.27.59.19.14.44.21.75.21zm3.9.56v-5.16h.8v.84h.03c.13-.3.3-.53.53-.7.24-.17.55-.26.93-.26.54 0 .96.17 1.27.52.3.34.47.82.47 1.45V39h-.8v-3.17c0-.93-.4-1.39-1.17-1.39-.16 0-.32.02-.47.06-.15.04-.28.1-.4.18a.92.92 0 00-.3.31.87.87 0 00-.1.43V39h-.8zm9.43 0c-.3 0-.52-.08-.65-.24a1.2 1.2 0 01-.24-.6h-.05c-.12.32-.3.56-.56.72-.26.16-.57.24-.93.24-.55 0-.97-.14-1.28-.42-.3-.28-.45-.66-.45-1.14 0-.49.17-.86.53-1.12.36-.26.91-.39 1.67-.39h1.02v-.51c0-.37-.1-.65-.3-.84-.2-.2-.5-.29-.92-.29-.31 0-.58.07-.8.21-.2.14-.37.33-.51.56l-.48-.45c.14-.28.36-.52.67-.71.3-.2.7-.3 1.16-.3.63 0 1.11.15 1.46.46.34.3.52.73.52 1.28v2.84h.59v.7h-.45zm-2.3-.56c.2 0 .38-.02.55-.07.16-.05.3-.11.43-.2a1 1 0 00.28-.3c.07-.11.1-.24.1-.37v-.85h-1.06c-.46 0-.8.07-1.01.2a.65.65 0 00-.31.58v.21c0 .25.09.45.27.59.19.14.44.21.75.21zm4.74.56c-.28 0-.5-.08-.64-.23a.88.88 0 01-.21-.6V31.6h.8v6.7h.76v.7h-.71zm4.96-5.16h.79l-2.31 6.36c-.06.15-.12.28-.18.38a.73.73 0 01-.22.25c-.09.06-.2.1-.33.13s-.29.04-.47.04h-.41v-.7h.8l.4-1.1-1.93-5.36h.8l1.24 3.51.24.84h.05l.28-.84 1.25-3.51zm3.32 5.28c-.48 0-.88-.09-1.21-.27-.32-.19-.6-.43-.83-.74l.57-.46c.2.25.42.45.67.59.25.13.53.2.86.2.34 0 .6-.07.79-.22.2-.15.29-.35.29-.62 0-.2-.07-.37-.2-.51-.13-.15-.36-.25-.7-.3l-.41-.06a3.69 3.69 0 01-.66-.15 2.1 2.1 0 01-.53-.28 1.33 1.33 0 01-.35-.44 1.47 1.47 0 01-.12-.62c0-.25.05-.47.14-.66.1-.2.22-.35.38-.48.17-.13.36-.22.59-.28.22-.07.47-.1.73-.1.42 0 .77.07 1.05.22.29.15.54.35.75.61l-.53.48a1.58 1.58 0 00-1.33-.63c-.34 0-.59.07-.76.22a.72.72 0 00-.25.58c0 .25.08.44.25.55.17.11.42.2.74.25l.4.06c.57.09.98.25 1.22.5.24.24.36.56.36.95 0 .5-.17.9-.51 1.18-.34.29-.8.43-1.4.43zm3.72-6.49c-.17 0-.3-.04-.38-.12a.5.5 0 01-.1-.33v-.13c0-.13.03-.24.1-.32.08-.09.2-.13.38-.13.17 0 .3.04.37.13.08.08.12.19.12.32v.13c0 .13-.04.24-.12.33-.07.08-.2.12-.37.12zm-.4 1.21h.8V39h-.8v-5.16zm4.05 5.28c-.48 0-.88-.09-1.2-.27-.33-.19-.6-.43-.84-.74l.57-.46c.2.25.42.45.67.59.25.13.53.2.86.2.34 0 .6-.07.8-.22.18-.15.28-.35.28-.62 0-.2-.07-.37-.2-.51-.13-.15-.36-.25-.7-.3l-.4-.06a3.69 3.69 0 01-.67-.15 2.1 2.1 0 01-.53-.28 1.33 1.33 0 01-.35-.44 1.47 1.47 0 01-.12-.62c0-.25.05-.47.14-.66.1-.2.22-.35.38-.48.17-.13.36-.22.6-.28.22-.07.46-.1.72-.1.42 0 .77.07 1.05.22.29.15.54.35.75.61l-.53.48c-.11-.16-.28-.3-.5-.43-.22-.13-.5-.2-.83-.2-.33 0-.59.07-.76.22a.72.72 0 00-.25.58c0 .25.08.44.25.55.17.11.42.2.74.25l.4.06c.57.09.98.25 1.22.5.24.24.36.56.36.95 0 .5-.17.9-.5 1.18-.35.29-.82.43-1.4.43z" fill="#37D37A"/><path d="M283.33 13a2.67 2.67 0 105.34 0 2.67 2.67 0 00-5.34 0zm24 0a2.67 2.67 0 105.34 0 2.67 2.67 0 00-5.34 0zm-21.33.5h24v-1h-24v1z" fill="#fff"/><path d="M309.5 13v24h1V13h-1zm-23 24V13h-1v24h1zM293.5 25h7.08l-1.78-1.8.7-.7 3 3-3 3-.7-.7 1.78-1.8h-7.08v-1z" fill="#fff"/><path d="M283.33 37a2.67 2.67 0 105.34 0 2.67 2.67 0 00-5.34 0zm24 0a2.67 2.67 0 105.34 0 2.67 2.67 0 00-5.34 0zm-21.33.5h24v-1h-24v1z" fill="#fff"/></svg>