<svg width="320" height="50" viewBox="0 0 320 50" fill="none" xmlns="http://www.w3.org/2000/svg"><path d="M101 5.33a2.67 2.67 0 100 5.34 2.67 2.67 0 000-5.34zm0 34a2.67 2.67 0 100 5.34 2.67 2.67 0 000-5.34zM100.5 8v34h1V8h-1z" fill="#37D37A"/><path d="M112.2 21v-9.77h3.46c2.5 0 4.13 1.62 4.13 4.88 0 3.27-1.64 4.89-4.13 4.89h-3.46zm1.59-1.4h1.87c1.46 0 2.44-.94 2.44-2.7v-1.57c0-1.76-.98-2.7-2.44-2.7h-1.87v6.97zm10.71 1.57c-2.07 0-3.34-1.49-3.34-3.81 0-2.32 1.27-3.8 3.34-3.8 2.15 0 3.24 1.6 3.24 3.62v.57h-5V18c0 1.12.69 1.92 1.92 1.92.9 0 1.5-.42 1.92-1.1l.9.89c-.55.88-1.62 1.47-2.98 1.47zm0-6.43c-1.05 0-1.76.79-1.76 1.9v.1h3.39v-.14c0-1.12-.62-1.86-1.63-1.86zm8.72 2.77h-3.88v-1.55h3.88v1.55zM136.7 21h-1.53v-7.28h1.53v1.4h.07c.21-.74.84-1.4 2-1.4h.4v1.47h-.6c-1.2 0-1.87.4-1.87 1.16V21zm4.6-8.58c-.63 0-.9-.34-.9-.8v-.24c0-.46.27-.8.9-.8s.9.34.9.8v.24c0 .46-.27.8-.9.8zm-.77 8.58v-7.28h1.53V21h-1.53zm6.02.17a3.51 3.51 0 01-2.96-1.37l.98-.9a2.57 2.57 0 002.06 1.04c.88 0 1.33-.37 1.33-.98 0-.47-.28-.82-1.03-.91l-.68-.09c-1.48-.18-2.39-.82-2.39-2.17 0-1.41 1.1-2.24 2.7-2.24 1.32 0 2.06.44 2.72 1.16l-.94.9c-.38-.45-1-.83-1.78-.83-.84 0-1.23.37-1.23.91 0 .56.35.82 1.12.94l.67.09c1.6.23 2.31.93 2.31 2.11 0 1.4-1.13 2.34-2.88 2.34zm4.6-.17V10.64h1.53V17h.07l1.01-1.3 1.75-1.98h1.78l-2.55 2.81 2.86 4.47h-1.82l-2.09-3.47-1 1.09V21h-1.53zm13.5 0h-.97c-1.04 0-1.56-.57-1.56-1.51v-8.85h1.53v9.11h1V21zm4.32.17c-2.07 0-3.35-1.49-3.35-3.81 0-2.32 1.28-3.8 3.35-3.8 2.14 0 3.23 1.6 3.23 3.62v.57h-5V18c0 1.12.7 1.92 1.92 1.92.9 0 1.5-.42 1.92-1.1l.9.89c-.55.88-1.61 1.47-2.97 1.47zm0-6.43c-1.05 0-1.76.79-1.76 1.9v.1h3.38v-.14c0-1.12-.61-1.86-1.62-1.86zm6.45 6.26h-1.53v-7.28h1.53v1.2h.07c.3-.78.92-1.37 2.04-1.37 1.49 0 2.37 1.04 2.37 2.83V21h-1.53v-4.42c0-1.14-.43-1.71-1.37-1.71-.8 0-1.58.4-1.58 1.26V21zm11.17 0v-1.2h-.07a2.08 2.08 0 01-2.04 1.37c-1.84 0-2.9-1.42-2.9-3.81 0-2.4 1.06-3.8 2.9-3.8.96 0 1.73.5 2.04 1.36h.07v-4.28h1.53V21h-1.53zm-1.65-1.15c.92 0 1.65-.5 1.65-1.24v-2.5c0-.74-.73-1.24-1.65-1.24-1.05 0-1.75.74-1.75 1.86v1.26c0 1.12.7 1.86 1.75 1.86zm6.13-7.43c-.63 0-.91-.34-.91-.8v-.24c0-.46.28-.8.9-.8.64 0 .9.34.9.8v.24c0 .46-.26.8-.9.8zM190.3 21v-7.28h1.53V21h-1.53zm5.23 0h-1.53v-7.28h1.53v1.2h.07c.3-.78.92-1.37 2.04-1.37 1.49 0 2.37 1.04 2.37 2.83V21h-1.53v-4.42c0-1.14-.43-1.71-1.37-1.71-.8 0-1.58.4-1.58 1.26V21zm12.98.69c0 1.5-1.08 2.28-3.7 2.28-2.38 0-3.3-.65-3.3-1.75 0-.8.47-1.23 1.24-1.4v-.16a1.11 1.11 0 01-.82-1.12c0-.75.59-1.12 1.29-1.28v-.06a2.27 2.27 0 01-1.33-2.16c0-1.48 1.05-2.49 2.9-2.49.48 0 .93.07 1.31.23v-.2c0-.64.3-1.04.95-1.04h1.12v1.24h-1.48v.29a2.28 2.28 0 011.02 1.97c0 1.47-1.06 2.47-2.91 2.47-.35 0-.69-.04-.95-.11-.37.12-.7.36-.7.72 0 .4.38.55 1.02.55h1.8c1.78 0 2.54.76 2.54 2.02zm-1.43.16c0-.5-.34-.82-1.33-.82h-2.46c-.34.2-.5.49-.5.84 0 .59.43 1 1.56 1h.95c1.2 0 1.78-.34 1.78-1.02zm-2.28-4.45c.9 0 1.41-.4 1.41-1.23v-.28c0-.83-.51-1.23-1.41-1.23-.9 0-1.41.4-1.41 1.23v.28c0 .83.51 1.23 1.4 1.23zm9.41 3.6l-1.98-7.28h1.48l.74 3.05.66 2.76h.04l.76-2.76.88-3.05h1.37l.9 3.05.77 2.76h.04l.64-2.76.76-3.05h1.41L220.73 21h-1.72l-.95-3.32-.59-2.04h-.03l-.57 2.04-.97 3.32h-1.68zm10.7-8.58c-.63 0-.91-.34-.91-.8v-.24c0-.46.28-.8.9-.8.64 0 .9.34.9.8v.24c0 .46-.26.8-.9.8zm-.77 8.58v-7.28h1.52V21h-1.52zm7.05 0h-1.33c-1.05 0-1.61-.59-1.61-1.58v-4.45h-1.14v-1.25h.62c.5 0 .67-.21.67-.71v-1.28h1.37v1.99h1.53v1.25h-1.53v4.78h1.42V21zm1.77 0V10.64h1.52v4.28h.07c.3-.78.93-1.37 2.04-1.37 1.49 0 2.37 1.04 2.37 2.83V21h-1.53v-4.44c0-1.12-.43-1.7-1.37-1.7-.8 0-1.58.41-1.58 1.25V21h-1.53zM119.95 39h-1.65l-.88-2.65h-3.66l-.85 2.65h-1.61l3.33-9.77h1.99l3.33 9.77zm-2.93-4l-1.4-4.32h-.07L114.15 35h2.88zm8.28 4h-4.26v-1.29h1.33v-7.2h-1.33v-1.28h4.26v1.29h-1.34v7.2h1.34V39zm5.1-3.49h-3.87v-1.55h3.88v1.55zm1.97 6.29V31.72h1.53v1.2h.07a2.06 2.06 0 012.04-1.37c1.83 0 2.9 1.42 2.9 3.81 0 2.4-1.06 3.8-2.9 3.8-.97 0-1.74-.51-2.04-1.36h-.07v4h-1.53zm3.18-3.95c1.05 0 1.75-.74 1.75-1.86v-1.26c0-1.12-.7-1.86-1.75-1.86-.93 0-1.65.5-1.65 1.24v2.5c0 .74.72 1.24 1.65 1.24zm7.96 1.32c-2.03 0-3.34-1.49-3.34-3.81 0-2.32 1.31-3.8 3.34-3.8s3.35 1.48 3.35 3.8-1.32 3.8-3.35 3.8zm0-1.26c1.04 0 1.74-.65 1.74-1.93v-1.24c0-1.28-.7-1.93-1.74-1.93-1.03 0-1.73.65-1.73 1.93v1.24c0 1.28.7 1.93 1.73 1.93zm6.21 1.09l-1.98-7.28h1.48l.74 3.05.66 2.76h.04l.76-2.76.88-3.05h1.37l.9 3.05.77 2.76h.04l.64-2.76.76-3.05h1.41L156.24 39h-1.72l-.95-3.32-.59-2.04h-.03l-.57 2.04-.97 3.32h-1.68zm12.69.17c-2.07 0-3.35-1.49-3.35-3.81 0-2.32 1.28-3.8 3.35-3.8 2.14 0 3.23 1.6 3.23 3.62v.57h-5V36c0 1.12.69 1.92 1.92 1.92.9 0 1.5-.42 1.92-1.1l.9.89c-.55.88-1.61 1.47-2.97 1.47zm0-6.43c-1.05 0-1.77.79-1.77 1.9v.1h3.4v-.14c0-1.12-.63-1.86-1.63-1.86zm6.45 6.26h-1.53v-7.28h1.53v1.4h.07c.2-.74.84-1.4 2-1.4h.4v1.47h-.6c-1.2 0-1.87.4-1.87 1.16V39zm6.62.17c-2.08 0-3.35-1.49-3.35-3.81 0-2.32 1.28-3.8 3.35-3.8 2.14 0 3.23 1.6 3.23 3.62v.57h-5V36c0 1.12.69 1.92 1.92 1.92.9 0 1.5-.42 1.92-1.1l.9.89c-.55.88-1.62 1.47-2.97 1.47zm0-6.43c-1.05 0-1.77.79-1.77 1.9v.1h3.4v-.14c0-1.12-.63-1.86-1.63-1.86zm9.5 6.26v-1.2h-.07a2.08 2.08 0 01-2.05 1.37c-1.83 0-2.9-1.42-2.9-3.81 0-2.4 1.07-3.8 2.9-3.8.97 0 1.74.5 2.05 1.36h.07v-4.28h1.52V39H185zm-1.65-1.15c.92 0 1.65-.5 1.65-1.24v-2.5c0-.74-.73-1.24-1.65-1.24-1.05 0-1.75.74-1.75 1.86v1.26c0 1.12.7 1.86 1.75 1.86zm11.48 1.32c-2.1 0-3.3-1.49-3.3-3.81 0-2.32 1.2-3.8 3.3-3.8 1.45 0 2.38.7 2.81 1.78l-1.26.6c-.2-.68-.73-1.11-1.55-1.11-1.12 0-1.7.77-1.7 1.89v1.3c0 1.12.58 1.89 1.7 1.89.88 0 1.4-.48 1.7-1.2l1.17.61c-.48 1.19-1.47 1.85-2.87 1.85zm5.85-.17h-1.53v-7.28h1.53v1.4h.07c.2-.74.84-1.4 2-1.4h.4v1.47h-.6c-1.2 0-1.87.4-1.87 1.16V39zm6.62.17c-2.07 0-3.35-1.49-3.35-3.81 0-2.32 1.28-3.8 3.35-3.8 2.14 0 3.23 1.6 3.23 3.62v.57h-5V36c0 1.12.69 1.92 1.92 1.92.9 0 1.5-.42 1.92-1.1l.9.89c-.55.88-1.61 1.47-2.97 1.47zm0-6.43c-1.05 0-1.77.79-1.77 1.9v.1h3.4v-.14c0-1.12-.62-1.86-1.63-1.86zm9.5 6.26v-1.2h-.07a2.08 2.08 0 01-2.04 1.37c-1.84 0-2.9-1.42-2.9-3.81 0-2.4 1.06-3.8 2.9-3.8.96 0 1.73.5 2.04 1.36h.07v-4.28h1.53V39h-1.53zm-1.65-1.15c.92 0 1.65-.5 1.65-1.24v-2.5c0-.74-.73-1.24-1.65-1.24-1.05 0-1.75.74-1.75 1.86v1.26c0 1.12.7 1.86 1.75 1.86zm6.13-7.43c-.63 0-.91-.34-.91-.8v-.24c0-.46.28-.8.9-.8.64 0 .9.34.9.8v.24c0 .46-.26.8-.9.8zM220.5 39v-7.28h1.52V39h-1.52zm7.05 0h-1.33c-1.05 0-1.61-.59-1.61-1.58v-4.45h-1.14v-1.25h.62c.5 0 .67-.21.67-.71v-1.28h1.37v1.99h1.53v1.25h-1.53v4.78h1.42V39zm9.65 0v-1.2h-.07a2.08 2.08 0 01-2.04 1.37c-1.84 0-2.9-1.42-2.9-3.81 0-2.4 1.06-3.8 2.9-3.8.96 0 1.73.5 2.04 1.36h.07v-4.28h1.53V39h-1.53zm-1.65-1.15c.92 0 1.65-.5 1.65-1.24v-2.5c0-.74-.73-1.24-1.65-1.24-1.05 0-1.75.74-1.75 1.86v1.26c0 1.12.7 1.86 1.75 1.86zm8.21 1.32c-2.07 0-3.34-1.49-3.34-3.81 0-2.32 1.27-3.8 3.34-3.8 2.15 0 3.24 1.6 3.24 3.62v.57h-5V36c0 1.12.69 1.92 1.92 1.92.9 0 1.5-.42 1.92-1.1l.9.89c-.55.88-1.62 1.47-2.98 1.47zm0-6.43c-1.05 0-1.76.79-1.76 1.9v.1h3.39v-.14c0-1.12-.62-1.86-1.63-1.86zm7.74 6.43c-2.1 0-3.3-1.49-3.3-3.81 0-2.32 1.2-3.8 3.3-3.8 1.46 0 2.38.7 2.82 1.78l-1.26.6c-.21-.68-.73-1.11-1.56-1.11-1.12 0-1.7.77-1.7 1.89v1.3c0 1.12.58 1.89 1.7 1.89.88 0 1.4-.48 1.71-1.2l1.16.61c-.47 1.19-1.47 1.85-2.87 1.85zm5.1-8.75c-.64 0-.92-.34-.92-.8v-.24c0-.46.28-.8.91-.8s.9.34.9.8v.24c0 .46-.27.8-.9.8zm-.78 8.58v-7.28h1.53V39h-1.53zm6.02.17a3.51 3.51 0 01-2.95-1.37l.98-.9a2.57 2.57 0 002.05 1.04c.89 0 1.33-.37 1.33-.98 0-.47-.28-.82-1.03-.91l-.67-.09c-1.49-.18-2.4-.82-2.4-2.17 0-1.41 1.1-2.24 2.7-2.24 1.32 0 2.06.44 2.72 1.16l-.94.9c-.38-.45-1-.83-1.78-.83-.84 0-1.23.37-1.23.91 0 .56.35.82 1.12.94l.67.09c1.6.23 2.31.93 2.31 2.11 0 1.4-1.13 2.34-2.88 2.34zm5.38-8.75c-.63 0-.91-.34-.91-.8v-.24c0-.46.28-.8.9-.8.64 0 .9.34.9.8v.24c0 .46-.26.8-.9.8zm-.77 8.58v-7.28h1.52V39h-1.52zm6.56.17c-2.03 0-3.35-1.49-3.35-3.81 0-2.32 1.32-3.8 3.35-3.8 2.03 0 3.35 1.48 3.35 3.8s-1.32 3.8-3.35 3.8zm0-1.26c1.04 0 1.74-.65 1.74-1.93v-1.24c0-1.28-.7-1.93-1.74-1.93s-1.74.65-1.74 1.93v1.24c0 1.28.7 1.93 1.74 1.93zm6.57 1.09h-1.52v-7.28h1.52v1.2h.07c.3-.78.93-1.37 2.05-1.37 1.48 0 2.36 1.04 2.36 2.83V39h-1.52v-4.42c0-1.14-.44-1.71-1.38-1.71-.8 0-1.58.4-1.58 1.26V39zm7.37-8.58c-.63 0-.91-.34-.91-.8v-.24c0-.46.28-.8.9-.8.64 0 .9.34.9.8v.24c0 .46-.26.8-.9.8zm-.77 8.58v-7.28h1.52V39h-1.52zm5.23 0h-1.53v-7.28h1.53v1.2h.07c.3-.78.92-1.37 2.04-1.37 1.49 0 2.37 1.04 2.37 2.83V39h-1.53v-4.42c0-1.14-.43-1.71-1.37-1.71-.8 0-1.58.4-1.58 1.26V39zm12.98.69c0 1.5-1.08 2.28-3.7 2.28-2.38 0-3.3-.65-3.3-1.75 0-.8.47-1.23 1.24-1.4v-.16a1.11 1.11 0 01-.82-1.12c0-.75.58-1.12 1.28-1.28v-.06a2.27 2.27 0 01-1.33-2.16c0-1.48 1.05-2.49 2.9-2.49.5 0 .94.07 1.32.23v-.2c0-.64.3-1.04.95-1.04h1.12v1.24h-1.48v.29a2.28 2.28 0 011.02 1.97c0 1.47-1.07 2.47-2.91 2.47-.35 0-.69-.04-.96-.11-.36.12-.7.36-.7.72 0 .4.38.55 1.03.55h1.79c1.79 0 2.55.76 2.55 2.02zm-1.43.16c0-.5-.34-.82-1.33-.82h-2.47c-.33.2-.5.49-.5.84 0 .59.43 1 1.57 1h.95c1.19 0 1.78-.34 1.78-1.02zm-2.28-4.45c.9 0 1.41-.4 1.41-1.23v-.28c0-.83-.52-1.23-1.41-1.23-.9 0-1.42.4-1.42 1.23v.28c0 .83.52 1.23 1.42 1.23z" fill="#fff"/></svg>