<svg width="728" height="90" viewBox="0 0 728 90" fill="none" xmlns="http://www.w3.org/2000/svg"><path d="M230.57 43.3a8.48 8.48 0 01-6.62-2.82l2.5-2.53a5.69 5.69 0 004.38 2c1.84 0 2.74-.83 2.74-2.1 0-.95-.4-1.65-2.02-1.88l-1.73-.22c-3.67-.48-5.34-2.27-5.34-5.2 0-3.13 2.45-5.3 6.55-5.3 2.62 0 4.62.88 6.04 2.45l-2.52 2.55a4.56 4.56 0 00-3.75-1.65c-1.7 0-2.53.65-2.53 1.7 0 1.2.63 1.65 2.08 1.87l1.72.28c3.58.57 5.3 2.17 5.3 5.17 0 3.36-2.44 5.68-6.8 5.68zm14.73 0c-4.02 0-6.3-2.67-6.3-6.88 0-4.15 2.2-6.85 6.15-6.85 4.35 0 6.1 3.16 6.1 6.7v1.1h-8.42v.2c0 1.73.92 2.83 2.9 2.83 1.55 0 2.4-.73 3.22-1.57l1.85 2.3c-1.17 1.34-3.1 2.17-5.5 2.17zm-.07-11c-1.48 0-2.4 1.08-2.4 2.7v.2h4.6v-.23c0-1.6-.73-2.67-2.2-2.67zm13.6 11c-4.02 0-6.3-2.67-6.3-6.88 0-4.15 2.2-6.85 6.16-6.85 4.35 0 6.1 3.16 6.1 6.7v1.1h-8.43v.2c0 1.73.93 2.83 2.9 2.83 1.55 0 2.4-.73 3.23-1.57l1.85 2.3c-1.18 1.34-3.1 2.17-5.5 2.17zm-.07-11c-1.47 0-2.4 1.08-2.4 2.7v.2h4.6v-.23c0-1.6-.72-2.67-2.2-2.67zM276.31 43h-3.8V25.55h11.57v3.38h-7.77v3.57h6.63v3.35h-6.63V43zm11.97-14.52c-1.5 0-2.15-.78-2.15-1.83v-.55c0-1.05.65-1.83 2.15-1.83s2.15.78 2.15 1.83v.55c0 1.05-.65 1.83-2.15 1.83zM286.43 43V29.87h3.7V43h-3.7zm10.36 0h-3.7V29.87h3.7v2.23h.15a3.58 3.58 0 013.65-2.53c2.67 0 4.1 1.9 4.1 5.2V43h-3.7v-7.92c0-1.68-.48-2.5-1.83-2.5-1.2 0-2.37.62-2.37 1.92V43zm16.16.3c-4.02 0-6.3-2.67-6.3-6.88 0-4.15 2.2-6.85 6.16-6.85 4.34 0 6.1 3.16 6.1 6.7v1.1h-8.43v.2c0 1.73.92 2.83 2.9 2.83 1.55 0 2.4-.73 3.23-1.57l1.84 2.3c-1.17 1.34-3.1 2.17-5.5 2.17zm-.07-11c-1.48 0-2.4 1.08-2.4 2.7v.2h4.6v-.23c0-1.6-.72-2.67-2.2-2.67zM323.2 43h-3.85l4.33-6.67-4.28-6.45h4.2l2.45 4.12h.1l2.38-4.13h3.9l-4.35 6.58 4.37 6.55h-4.2l-2.52-4.27h-.1L323.2 43zm15.85.3c-3.85 0-6.15-2.65-6.15-6.88 0-4.22 2.3-6.85 6.15-6.85 3.85 0 6.15 2.63 6.15 6.85 0 4.23-2.3 6.88-6.15 6.88zm0-2.92c1.45 0 2.3-.96 2.3-2.6V35.1c0-1.65-.85-2.6-2.3-2.6-1.45 0-2.3.95-2.3 2.6v2.67c0 1.65.85 2.6 2.3 2.6zm12.74 2.92a6.85 6.85 0 01-5.53-2.35l2.18-2.2a4.56 4.56 0 003.47 1.67c1.45 0 1.95-.47 1.95-1.25 0-.65-.4-.97-1.32-1.1l-1.43-.17c-2.97-.38-4.42-1.67-4.42-4.05 0-2.53 1.97-4.28 5.1-4.28 2.75 0 4.02.75 5.35 2.05L355 33.8a4.39 4.39 0 00-3.02-1.35c-1.25 0-1.75.45-1.75 1.1 0 .7.3 1.08 1.37 1.23l1.48.2c2.85.37 4.32 1.67 4.32 3.95 0 2.52-2.25 4.37-5.62 4.37zm14.9-14.82c-1.5 0-2.15-.78-2.15-1.83v-.55c0-1.05.65-1.83 2.15-1.83s2.15.78 2.15 1.83v.55c0 1.05-.65 1.83-2.15 1.83zM364.84 43V29.87h3.7V43h-3.7zm10.36 0h-3.7V29.87h3.7v2.23h.15a3.58 3.58 0 013.65-2.53c2.67 0 4.1 1.9 4.1 5.2V43h-3.7v-7.92c0-1.68-.48-2.5-1.83-2.5-1.2 0-2.37.62-2.37 1.92V43zm27.85 0H401c-1.33 0-2.28-.9-2.5-2.3h-.15c-.4 1.7-1.85 2.6-3.85 2.6-2.63 0-4.08-1.55-4.08-3.82 0-2.78 2.15-4.1 5.63-4.1h2.07v-.83c0-1.27-.62-2.07-2.17-2.07-1.48 0-2.25.75-2.83 1.55l-2.2-1.95c1.05-1.55 2.55-2.5 5.3-2.5 3.7 0 5.6 1.7 5.6 4.8v5.74h1.23V43zm-7.18-2.27c1.23 0 2.25-.5 2.25-1.7v-1.55h-1.8c-1.42 0-2.17.52-2.17 1.47v.38c0 .95.62 1.4 1.72 1.4zm14.46 2.57c-3.95 0-6.12-2.67-6.12-6.88 0-4.2 2.17-6.85 6.12-6.85 2.65 0 4.48 1.28 5.25 3.43l-3 1.3c-.22-1-.95-1.8-2.25-1.8-1.5 0-2.27 1.08-2.27 2.73v2.45c0 1.65.77 2.7 2.27 2.7 1.48 0 2.08-.9 2.45-1.96l2.88 1.25c-.88 2.5-2.75 3.63-5.33 3.63zm13.92-.3h-2.2c-2.55 0-3.9-1.33-3.9-3.83v-6.42h-1.85v-2.88h.92c1 0 1.3-.5 1.3-1.4v-2.14h3.33v3.55h2.6v2.87h-2.6v7.38h2.4V43zm4.12-14.52c-1.5 0-2.15-.78-2.15-1.83v-.55c0-1.05.65-1.83 2.15-1.83s2.15.78 2.15 1.83v.55c0 1.05-.65 1.83-2.15 1.83zM426.52 43V29.87h3.7V43h-3.7zm11.97.3c-3.85 0-6.15-2.65-6.15-6.88 0-4.22 2.3-6.85 6.15-6.85 3.85 0 6.15 2.63 6.15 6.85 0 4.23-2.3 6.88-6.15 6.88zm0-2.92c1.45 0 2.3-.96 2.3-2.6V35.1c0-1.65-.85-2.6-2.3-2.6-1.45 0-2.3.95-2.3 2.6v2.67c0 1.65.85 2.6 2.3 2.6zm12 2.62h-3.7V29.87h3.7v2.23h.14a3.58 3.58 0 013.65-2.53c2.68 0 4.1 1.9 4.1 5.2V43h-3.7v-7.92c0-1.68-.47-2.5-1.82-2.5-1.2 0-2.38.62-2.38 1.92V43z" fill="#fff"/><path d="M225.66 63.5V68h-1.26V57.53h4.16c1.84 0 2.93 1.06 2.93 2.97 0 1.53-.74 2.56-2.1 2.88l2.4 4.62h-1.42l-2.27-4.5h-2.44zm0-1.08h2.9c1 0 1.58-.54 1.58-1.5v-.78c0-.96-.58-1.5-1.57-1.5h-2.91v3.78zm10.9 5.76c-2.1 0-3.48-1.59-3.48-4.05s1.38-4.05 3.48-4.05c2.07 0 3.34 1.59 3.34 3.78v.57h-5.56v.36c0 1.33.85 2.34 2.3 2.34.97 0 1.72-.48 2.13-1.33l.85.61c-.5 1.05-1.6 1.77-3.06 1.77zm0-7.1c-1.3 0-2.22 1-2.22 2.34v.11h4.28v-.16c0-1.37-.83-2.28-2.06-2.28zM246.83 71v-4.26h-.06a2.33 2.33 0 01-2.26 1.44c-1.94 0-3.15-1.58-3.15-4.05 0-2.47 1.21-4.05 3.15-4.05 1.06 0 1.86.47 2.26 1.44h.06v-1.26h1.2V71h-1.2zm-2-3.9c1.1 0 2-.57 2-1.57v-2.88c0-.86-.9-1.49-2-1.49-1.34 0-2.18.93-2.18 2.31v1.32c0 1.38.84 2.31 2.19 2.31zm10.52.9v-1.26h-.06c-.3.73-.88 1.44-2.17 1.44-1.6 0-2.61-1.08-2.61-2.96v-4.96h1.2v4.76c0 1.38.61 2.08 1.77 2.08.94 0 1.87-.46 1.87-1.48v-5.36h1.2V68h-1.2zm6.67.18c-2.1 0-3.48-1.59-3.48-4.05s1.38-4.05 3.48-4.05c2.07 0 3.34 1.59 3.34 3.78v.57h-5.56v.36c0 1.33.85 2.34 2.3 2.34.97 0 1.72-.48 2.12-1.33l.86.61c-.5 1.05-1.6 1.77-3.06 1.77zm0-7.1c-1.3 0-2.22 1-2.22 2.34v.11h4.27v-.16c0-1.37-.82-2.28-2.05-2.28zm7.65 7.1a3.6 3.6 0 01-3.06-1.52l.85-.69a2.8 2.8 0 002.3 1.19c1.02 0 1.62-.47 1.62-1.26 0-.6-.33-1.07-1.35-1.22l-.62-.09c-1.42-.2-2.49-.79-2.49-2.23 0-1.53 1.19-2.28 2.76-2.28 1.25 0 2.07.47 2.7 1.25l-.8.72c-.34-.48-1-.95-1.99-.95s-1.51.46-1.51 1.2c0 .75.52 1.05 1.48 1.2l.6.09c1.71.25 2.37 1 2.37 2.17 0 1.5-1.1 2.42-2.86 2.42zm8.09-.18h-1.5c-.83 0-1.28-.53-1.28-1.28v-5.41h-1.27v-1.05h.72c.5 0 .67-.18.67-.7V58.1h1.08v2.15h1.7v1.05h-1.7v5.64h1.58V68zm11.9 0h-.68c-.89 0-1.25-.54-1.34-1.26h-.07c-.33.95-1.16 1.44-2.24 1.44-1.63 0-2.6-.9-2.6-2.34 0-1.45 1.06-2.27 3.3-2.27h1.54v-.76c0-1.1-.6-1.7-1.83-1.7-.93 0-1.55.45-1.97 1.16l-.72-.68c.42-.82 1.35-1.51 2.75-1.51 1.86 0 2.97.98 2.97 2.61v4.26h.88V68zm-4.13-.84c1.18 0 2.04-.61 2.04-1.41v-1.28h-1.6c-1.36 0-1.97.42-1.97 1.17v.32c0 .77.6 1.2 1.53 1.2zm11.72.84h-1.06c-.83 0-1.28-.53-1.28-1.25V56.9h1.2v10.05h1.14V68zm4.67.18c-2.07 0-3.5-1.59-3.5-4.05s1.43-4.05 3.5-4.05c2.07 0 3.5 1.59 3.5 4.05s-1.43 4.05-3.5 4.05zm0-1.07c1.3 0 2.2-.79 2.2-2.42v-1.11c0-1.64-.9-2.43-2.2-2.43-1.29 0-2.2.79-2.2 2.43v1.1c0 1.64.91 2.43 2.2 2.43zm11.77.89h-.68c-.88 0-1.24-.54-1.33-1.26h-.07c-.34.95-1.16 1.44-2.24 1.44-1.63 0-2.6-.9-2.6-2.34 0-1.45 1.06-2.27 3.3-2.27h1.54v-.76c0-1.1-.6-1.7-1.84-1.7-.92 0-1.54.45-1.96 1.16l-.72-.68c.42-.82 1.35-1.51 2.75-1.51 1.86 0 2.97.98 2.97 2.61v4.26h.88V68zm-4.13-.84c1.19 0 2.05-.61 2.05-1.41v-1.28H310c-1.36 0-1.97.42-1.97 1.17v.32c0 .77.6 1.2 1.52 1.2zm7.04.84h-1.2v-7.74h1.2v1.26h.06a2.2 2.2 0 012.2-1.44c1.58 0 2.59 1.08 2.59 2.95V68h-1.2v-4.76c0-1.38-.6-2.08-1.76-2.08-.96 0-1.89.48-1.89 1.47V68zm13.98 0h-1.4l-2.71-7.74h1.2l1.35 3.84.84 2.64h.07l.84-2.64 1.38-3.84h1.16L330.58 68zm9.05 0v-1.26h-.06c-.3.73-.89 1.44-2.18 1.44-1.59 0-2.6-1.08-2.6-2.96v-4.96h1.2v4.76c0 1.38.6 2.08 1.76 2.08.95 0 1.88-.46 1.88-1.48v-5.36h1.2V68h-1.2zm6.1 0h-1.07c-.83 0-1.28-.53-1.28-1.25V56.9h1.2v10.05h1.14V68zm2.94 0h-1.2v-7.74h1.2v1.26h.06a2.2 2.2 0 012.19-1.44c1.59 0 2.6 1.08 2.6 2.95V68h-1.2v-4.76c0-1.38-.6-2.08-1.76-2.08-.96 0-1.9.48-1.9 1.47V68zm10.23.18c-2.1 0-3.48-1.59-3.48-4.05s1.38-4.05 3.48-4.05c2.07 0 3.35 1.59 3.35 3.78v.57h-5.57v.36c0 1.33.86 2.34 2.3 2.34.97 0 1.72-.48 2.13-1.33l.85.61c-.5 1.05-1.6 1.77-3.06 1.77zm0-7.1c-1.3 0-2.22 1-2.22 2.34v.11h4.28v-.16c0-1.37-.83-2.28-2.06-2.28zm6.53 6.92h-1.2v-7.74h1.2v1.43h.07c.27-.74.98-1.43 2.24-1.43h.46v1.2h-.7c-1.3 0-2.07.55-2.07 1.29V68zm10.55 0h-.68c-.88 0-1.25-.54-1.34-1.26h-.07c-.33.95-1.15 1.44-2.24 1.44-1.63 0-2.59-.9-2.59-2.34 0-1.45 1.05-2.27 3.3-2.27h1.53v-.76c0-1.1-.6-1.7-1.83-1.7-.93 0-1.55.45-1.96 1.16l-.73-.68c.43-.82 1.36-1.51 2.75-1.51 1.86 0 2.97.98 2.97 2.61v4.26h.89V68zm-4.13-.84c1.19 0 2.04-.61 2.04-1.41v-1.28h-1.59c-1.37 0-1.98.42-1.98 1.17v.32c0 .77.6 1.2 1.53 1.2zm5.84.84V56.9h1.2v4.62h.06c.4-.98 1.2-1.44 2.26-1.44 1.94 0 3.15 1.58 3.15 4.05 0 2.48-1.21 4.05-3.15 4.05-1.06 0-1.8-.48-2.26-1.44h-.06V68h-1.2zm3.2-.9c1.34 0 2.18-.93 2.18-2.31v-1.32c0-1.38-.84-2.31-2.19-2.31-1.1 0-2 .63-2 1.49v2.88c0 1 .9 1.57 2 1.57zm6.1-8.65c-.51 0-.74-.28-.74-.68v-.2c0-.4.23-.67.74-.67.5 0 .73.27.73.68v.19c0 .4-.22.67-.73.67zm-.6 9.55v-7.74h1.2V68h-1.2zm6.09 0h-1.07c-.82 0-1.27-.53-1.27-1.25V56.9h1.2v10.05h1.14V68zm2.35-9.55c-.51 0-.74-.28-.74-.68v-.2c0-.4.23-.67.74-.67.5 0 .73.27.73.68v.19c0 .4-.22.67-.73.67zm-.6 9.55v-7.74h1.2V68h-1.2zm6.96 0h-1.5c-.83 0-1.28-.53-1.28-1.28v-5.41h-1.27v-1.05h.72c.5 0 .67-.18.67-.7V58.1h1.08v2.15h1.7v1.05h-1.7v5.64h1.58V68zm4.94-2.47l1.88-5.27h1.18l-3.46 9.54c-.35.93-.67 1.2-1.8 1.2h-.62v-1.05h1.21l.59-1.65-2.9-8.04h1.2l1.86 5.27.37 1.25h.07l.42-1.25zM420.57 68h-.68c-.88 0-1.25-.54-1.33-1.26h-.08c-.33.95-1.16 1.44-2.24 1.44-1.63 0-2.59-.9-2.59-2.34 0-1.45 1.05-2.27 3.3-2.27h1.53v-.76c0-1.1-.6-1.7-1.83-1.7-.93 0-1.54.45-1.96 1.16l-.73-.68c.43-.82 1.36-1.51 2.75-1.51 1.86 0 2.97.98 2.97 2.61v4.26h.88V68zm-4.13-.84c1.19 0 2.04-.61 2.04-1.41v-1.28h-1.59c-1.37 0-1.98.42-1.98 1.17v.32c0 .77.6 1.2 1.53 1.2zm7.04.84h-1.2v-7.74h1.2v1.26h.06a2.2 2.2 0 012.19-1.44c1.59 0 2.6 1.08 2.6 2.95V68h-1.2v-4.76c0-1.38-.6-2.08-1.76-2.08-.96 0-1.9.48-1.9 1.47V68zm13.62 0h-.67c-.89 0-1.25-.54-1.34-1.26h-.07c-.33.95-1.16 1.44-2.24 1.44-1.63 0-2.6-.9-2.6-2.34 0-1.45 1.06-2.27 3.3-2.27h1.54v-.76c0-1.1-.6-1.7-1.83-1.7-.93 0-1.55.45-1.97 1.16l-.72-.68c.42-.82 1.35-1.51 2.75-1.51 1.86 0 2.97.98 2.97 2.61v4.26h.88V68zm-4.12-.84c1.18 0 2.04-.61 2.04-1.41v-1.28h-1.6c-1.36 0-1.97.42-1.97 1.17v.32c0 .77.6 1.2 1.53 1.2zm8.18.84h-1.07c-.82 0-1.27-.53-1.27-1.25V56.9h1.2v10.05h1.14V68zm4.5-2.47l1.87-5.27h1.18l-3.46 9.54c-.35.93-.66 1.2-1.8 1.2h-.62v-1.05h1.22l.58-1.65-2.9-8.04h1.2l1.87 5.27.36 1.25h.07l.42-1.25zm6.85 2.65a3.6 3.6 0 01-3.06-1.52l.85-.69a2.8 2.8 0 002.3 1.19c1.02 0 1.62-.47 1.62-1.26 0-.6-.33-1.07-1.35-1.22l-.62-.09c-1.42-.2-2.49-.79-2.49-2.23 0-1.53 1.19-2.28 2.76-2.28 1.25 0 2.07.47 2.7 1.25l-.8.72c-.34-.48-1-.95-1.99-.95s-1.51.46-1.51 1.2c0 .75.52 1.05 1.48 1.2l.6.09c1.71.25 2.37 1 2.37 2.17 0 1.5-1.1 2.42-2.86 2.42zm5.58-9.74c-.5 0-.73-.27-.73-.67v-.2c0-.4.22-.67.73-.67s.74.27.74.68v.19c0 .4-.23.67-.74.67zm-.6 9.56v-7.74h1.2V68h-1.2zm6.08.18a3.6 3.6 0 01-3.06-1.52l.85-.69a2.8 2.8 0 002.3 1.19c1.02 0 1.62-.47 1.62-1.26 0-.6-.33-1.07-1.35-1.22l-.62-.09c-1.42-.2-2.49-.79-2.49-2.23 0-1.53 1.19-2.28 2.76-2.28 1.25 0 2.07.47 2.7 1.25l-.8.72c-.34-.48-1-.95-1.99-.95s-1.51.46-1.51 1.2c0 .75.52 1.05 1.48 1.2l.6.09c1.71.25 2.37 1 2.37 2.17 0 1.5-1.1 2.42-2.86 2.42z" fill="#37D37A"/><path d="M575.33 30a2.67 2.67 0 105.34 0 2.67 2.67 0 00-5.34 0zm90 0a2.67 2.67 0 105.34 0 2.67 2.67 0 00-5.34 0zm-87.33.5h90v-1h-90v1z" fill="#fff"/><path d="M667.5 30v30h1V30h-1zm-89 30V30h-1v30h1zM588.82 49v-6.98h1.32v5.81h2.75V49h-4.07zm7.15.12a2.3 2.3 0 01-1.81-.74 2.6 2.6 0 01-.48-.86 3.6 3.6 0 01-.17-1.14c0-.41.05-.79.16-1.12.11-.33.27-.62.48-.85.2-.24.46-.42.76-.55.3-.13.64-.2 1.02-.2.4 0 .76.07 1.06.21.3.14.54.33.74.57.2.24.33.52.43.84.1.31.15.65.15 1.01v.42h-3.47v.13c0 .38.1.69.32.92.21.23.53.34.95.34.32 0 .58-.07.78-.2.2-.13.39-.3.55-.51l.69.77c-.22.3-.5.54-.88.71-.37.17-.8.25-1.28.25zm-.02-4.5c-.34 0-.61.11-.81.34-.2.23-.3.52-.3.88v.08h2.14v-.09c0-.36-.1-.65-.27-.87-.18-.23-.43-.34-.76-.34zm7.32 4.38a.93.93 0 01-.67-.24 1.17 1.17 0 01-.3-.66h-.06c-.08.34-.26.6-.53.77-.26.17-.6.25-.99.25-.53 0-.94-.14-1.23-.42a1.5 1.5 0 01-.43-1.12c0-.54.2-.94.58-1.2.39-.27.94-.4 1.65-.4h.9v-.38c0-.3-.08-.52-.24-.68-.15-.16-.4-.24-.74-.24-.3 0-.54.07-.73.2a1.9 1.9 0 00-.46.46l-.76-.68c.2-.3.45-.54.77-.72a2.5 2.5 0 011.27-.28c.71 0 1.25.16 1.61.48.37.32.55.78.55 1.38v2.46h.52V49h-.7zm-2.12-.81c.29 0 .53-.06.73-.19.2-.13.3-.31.3-.56v-.69h-.82c-.66 0-1 .21-1 .64v.17c0 .21.07.37.2.48a1 1 0 00.6.15zm3.87.81v-5.22h1.28v1.08h.05c.03-.14.08-.27.15-.4a1.32 1.32 0 011.23-.68h.28v1.21h-.4a2 2 0 00-.98.19c-.22.13-.33.33-.33.62V49h-1.28zm3.93 0v-5.22h1.27v.87h.05c.11-.28.28-.51.5-.7.24-.2.56-.29.97-.29.53 0 .95.18 1.24.53.28.35.42.86.42 1.51V49h-1.27v-3.17c0-.37-.07-.65-.2-.84-.14-.19-.36-.28-.66-.28a1.3 1.3 0 00-.73.22.8.8 0 00-.22.26.69.69 0 00-.1.36V49h-1.27zm8.24 0v-5.22h1.28v.87h.05c.1-.27.26-.5.48-.7.22-.2.52-.29.92-.29.36 0 .67.09.93.26s.45.44.58.79h.02c.1-.3.27-.54.55-.74.28-.2.63-.31 1.05-.31.51 0 .9.18 1.18.53.28.35.42.86.42 1.51V49h-1.28v-3.17c0-.75-.28-1.12-.84-1.12a1.17 1.17 0 00-.68.22.75.75 0 00-.3.62V49h-1.27v-3.17c0-.75-.28-1.12-.84-1.12a1.13 1.13 0 00-.67.22.85.85 0 00-.22.26.76.76 0 00-.08.36V49h-1.28zm10.94.12c-.37 0-.7-.06-1-.19-.3-.13-.55-.31-.77-.55a2.6 2.6 0 01-.48-.86 3.6 3.6 0 01-.17-1.14c0-.42.06-.8.17-1.13.12-.33.28-.62.48-.85.22-.24.47-.42.76-.55.3-.13.64-.19 1.01-.19.38 0 .71.06 1.01.19a2.36 2.36 0 011.25 1.4c.12.33.17.71.17 1.13 0 .42-.05.8-.17 1.14-.1.33-.27.62-.49.86-.2.24-.46.42-.76.55-.3.13-.63.19-1 .19zm0-1.03c.34 0 .61-.1.8-.31.2-.2.3-.51.3-.91v-.97c0-.4-.1-.7-.3-.9-.19-.2-.46-.31-.8-.31-.33 0-.6.1-.79.31-.19.2-.29.5-.29.9v.97c0 .4.1.7.3.91.19.2.45.31.78.31zm3.57.91v-5.22h1.28v1.08h.05c.03-.14.08-.27.15-.4a1.3 1.3 0 01.68-.59c.16-.06.34-.09.55-.09h.28v1.21h-.4a2 2 0 00-.98.19c-.22.13-.33.33-.33.62V49h-1.28zm5.99.12a2.29 2.29 0 01-1.81-.74c-.21-.24-.37-.53-.48-.86a3.6 3.6 0 01-.17-1.14c0-.41.05-.79.16-1.12.1-.33.27-.62.48-.85.2-.24.46-.42.76-.55.3-.13.64-.2 1.02-.2.4 0 .76.07 1.06.21.3.14.54.33.74.57.19.24.33.52.43.84.1.31.15.65.15 1.01v.42h-3.47v.13c0 .38.1.69.32.92.2.23.53.34.95.34.32 0 .58-.07.78-.2.2-.13.39-.3.55-.51l.69.77c-.22.3-.51.54-.88.71-.37.17-.8.25-1.28.25zm-.02-4.5c-.34 0-.61.11-.81.34-.2.23-.3.52-.3.88v.08h2.14v-.09c0-.36-.1-.65-.27-.87-.18-.23-.43-.34-.76-.34zM647.5 45h7.08l-1.78-1.8.7-.7 3 3-3 3-.7-.7 1.78-1.8h-7.08v-1z" fill="#fff"/><path d="M575.33 60a2.67 2.67 0 105.34 0 2.67 2.67 0 00-5.34 0zm90 0a2.67 2.67 0 105.34 0 2.67 2.67 0 00-5.34 0zm-87.33.5h90v-1h-90v1z" fill="#fff"/></svg>