<svg width="728" height="90" viewBox="0 0 728 90" fill="none" xmlns="http://www.w3.org/2000/svg"><path d="M230.57 43.3a8.48 8.48 0 01-6.62-2.82l2.5-2.53a5.69 5.69 0 004.38 2c1.84 0 2.74-.83 2.74-2.1 0-.95-.4-1.65-2.02-1.88l-1.73-.22c-3.67-.48-5.34-2.27-5.34-5.2 0-3.13 2.45-5.3 6.55-5.3 2.62 0 4.62.88 6.04 2.45l-2.52 2.55a4.56 4.56 0 00-3.75-1.65c-1.7 0-2.53.65-2.53 1.7 0 1.2.63 1.65 2.08 1.87l1.72.28c3.58.57 5.3 2.17 5.3 5.17 0 3.36-2.44 5.68-6.8 5.68zm14.73 0c-4.02 0-6.3-2.67-6.3-6.88 0-4.15 2.2-6.85 6.15-6.85 4.35 0 6.1 3.16 6.1 6.7v1.1h-8.42v.2c0 1.73.92 2.83 2.9 2.83 1.55 0 2.4-.73 3.22-1.57l1.85 2.3c-1.17 1.34-3.1 2.17-5.5 2.17zm-.07-11c-1.48 0-2.4 1.08-2.4 2.7v.2h4.6v-.23c0-1.6-.73-2.67-2.2-2.67zm13.6 11c-4.02 0-6.3-2.67-6.3-6.88 0-4.15 2.2-6.85 6.16-6.85 4.35 0 6.1 3.16 6.1 6.7v1.1h-8.43v.2c0 1.73.93 2.83 2.9 2.83 1.55 0 2.4-.73 3.23-1.57l1.85 2.3c-1.18 1.34-3.1 2.17-5.5 2.17zm-.07-11c-1.47 0-2.4 1.08-2.4 2.7v.2h4.6v-.23c0-1.6-.72-2.67-2.2-2.67zM276.31 43h-3.8V25.55h11.57v3.38h-7.77v3.57h6.63v3.35h-6.63V43zm11.97-14.52c-1.5 0-2.15-.78-2.15-1.83v-.55c0-1.05.65-1.83 2.15-1.83s2.15.78 2.15 1.83v.55c0 1.05-.65 1.83-2.15 1.83zM286.43 43V29.87h3.7V43h-3.7zm10.36 0h-3.7V29.87h3.7v2.23h.15a3.58 3.58 0 013.65-2.53c2.67 0 4.1 1.9 4.1 5.2V43h-3.7v-7.92c0-1.68-.48-2.5-1.83-2.5-1.2 0-2.37.62-2.37 1.92V43zm16.16.3c-4.02 0-6.3-2.67-6.3-6.88 0-4.15 2.2-6.85 6.16-6.85 4.34 0 6.1 3.16 6.1 6.7v1.1h-8.43v.2c0 1.73.92 2.83 2.9 2.83 1.55 0 2.4-.73 3.23-1.57l1.84 2.3c-1.17 1.34-3.1 2.17-5.5 2.17zm-.07-11c-1.48 0-2.4 1.08-2.4 2.7v.2h4.6v-.23c0-1.6-.72-2.67-2.2-2.67zM323.2 43h-3.85l4.33-6.67-4.28-6.45h4.2l2.45 4.12h.1l2.38-4.13h3.9l-4.35 6.58 4.37 6.55h-4.2l-2.52-4.27h-.1L323.2 43zm15.85.3c-3.85 0-6.15-2.65-6.15-6.88 0-4.22 2.3-6.85 6.15-6.85 3.85 0 6.15 2.63 6.15 6.85 0 4.23-2.3 6.88-6.15 6.88zm0-2.92c1.45 0 2.3-.96 2.3-2.6V35.1c0-1.65-.85-2.6-2.3-2.6-1.45 0-2.3.95-2.3 2.6v2.67c0 1.65.85 2.6 2.3 2.6zm12.74 2.92a6.85 6.85 0 01-5.53-2.35l2.18-2.2a4.56 4.56 0 003.47 1.67c1.45 0 1.95-.47 1.95-1.25 0-.65-.4-.97-1.32-1.1l-1.43-.17c-2.97-.38-4.42-1.67-4.42-4.05 0-2.53 1.97-4.28 5.1-4.28 2.75 0 4.02.75 5.35 2.05L355 33.8a4.39 4.39 0 00-3.02-1.35c-1.25 0-1.75.45-1.75 1.1 0 .7.3 1.08 1.37 1.23l1.48.2c2.85.37 4.32 1.67 4.32 3.95 0 2.52-2.25 4.37-5.62 4.37zm14.9-14.82c-1.5 0-2.15-.78-2.15-1.83v-.55c0-1.05.65-1.83 2.15-1.83s2.15.78 2.15 1.83v.55c0 1.05-.65 1.83-2.15 1.83zM364.84 43V29.87h3.7V43h-3.7zm10.36 0h-3.7V29.87h3.7v2.23h.15a3.58 3.58 0 013.65-2.53c2.67 0 4.1 1.9 4.1 5.2V43h-3.7v-7.92c0-1.68-.48-2.5-1.83-2.5-1.2 0-2.37.62-2.37 1.92V43zm27.85 0H401c-1.33 0-2.28-.9-2.5-2.3h-.15c-.4 1.7-1.85 2.6-3.85 2.6-2.63 0-4.08-1.55-4.08-3.82 0-2.78 2.15-4.1 5.63-4.1h2.07v-.83c0-1.27-.62-2.07-2.17-2.07-1.48 0-2.25.75-2.83 1.55l-2.2-1.95c1.05-1.55 2.55-2.5 5.3-2.5 3.7 0 5.6 1.7 5.6 4.8v5.74h1.23V43zm-7.18-2.27c1.23 0 2.25-.5 2.25-1.7v-1.55h-1.8c-1.42 0-2.17.52-2.17 1.47v.38c0 .95.62 1.4 1.72 1.4zm14.46 2.57c-3.95 0-6.12-2.67-6.12-6.88 0-4.2 2.17-6.85 6.12-6.85 2.65 0 4.48 1.28 5.25 3.43l-3 1.3c-.22-1-.95-1.8-2.25-1.8-1.5 0-2.27 1.08-2.27 2.73v2.45c0 1.65.77 2.7 2.27 2.7 1.48 0 2.08-.9 2.45-1.96l2.88 1.25c-.88 2.5-2.75 3.63-5.33 3.63zm13.92-.3h-2.2c-2.55 0-3.9-1.33-3.9-3.83v-6.42h-1.85v-2.88h.92c1 0 1.3-.5 1.3-1.4v-2.14h3.33v3.55h2.6v2.87h-2.6v7.38h2.4V43zm4.12-14.52c-1.5 0-2.15-.78-2.15-1.83v-.55c0-1.05.65-1.83 2.15-1.83s2.15.78 2.15 1.83v.55c0 1.05-.65 1.83-2.15 1.83zM426.52 43V29.87h3.7V43h-3.7zm11.97.3c-3.85 0-6.15-2.65-6.15-6.88 0-4.22 2.3-6.85 6.15-6.85 3.85 0 6.15 2.63 6.15 6.85 0 4.23-2.3 6.88-6.15 6.88zm0-2.92c1.45 0 2.3-.96 2.3-2.6V35.1c0-1.65-.85-2.6-2.3-2.6-1.45 0-2.3.95-2.3 2.6v2.67c0 1.65.85 2.6 2.3 2.6zm12 2.62h-3.7V29.87h3.7v2.23h.14a3.58 3.58 0 013.65-2.53c2.68 0 4.1 1.9 4.1 5.2V43h-3.7v-7.92c0-1.68-.47-2.5-1.82-2.5-1.2 0-2.38.62-2.38 1.92V43z" fill="#fff"/><path d="M224.4 68V57.53h6.23v1.11h-4.97v3.51h4.54v1.11h-4.54V68h-1.26zm7.96 0v-7.74h1.2v1.43h.08c.14-.38.39-.7.75-1a2.3 2.3 0 011.48-.43h.47v1.2h-.7a2.7 2.7 0 00-1.54.38c-.36.23-.54.54-.54.91V68h-1.2zm8.35.18a3.22 3.22 0 01-2.53-1.1c-.3-.36-.54-.78-.71-1.27a5.5 5.5 0 01-.24-1.68c0-.61.08-1.16.24-1.66.17-.5.4-.93.7-1.28a3.14 3.14 0 012.54-1.11 3.05 3.05 0 012.45 1.08c.28.33.5.73.65 1.19.16.45.24.96.24 1.51v.57h-5.56v.36c0 .33.05.64.15.93a2.15 2.15 0 001.17 1.23c.29.12.61.18.97.18a2.25 2.25 0 002.13-1.33l.86.61c-.25.53-.64.96-1.17 1.29-.53.32-1.16.48-1.9.48zm0-7.1a2.2 2.2 0 00-1.6.66 2.52 2.52 0 00-.62 1.68v.11h4.27v-.16c0-.7-.19-1.24-.57-1.65a1.88 1.88 0 00-1.48-.63zm8.23 7.1a3.22 3.22 0 01-2.53-1.1c-.3-.36-.54-.78-.71-1.27a5.5 5.5 0 01-.24-1.68c0-.61.08-1.16.24-1.66.17-.5.4-.93.7-1.28a3.14 3.14 0 012.54-1.11 3.05 3.05 0 012.45 1.08c.28.33.5.73.65 1.19.16.45.24.96.24 1.51v.57h-5.56v.36c0 .33.05.64.15.93a2.15 2.15 0 001.17 1.23c.29.12.61.18.97.18a2.25 2.25 0 002.13-1.33l.86.61c-.25.53-.64.96-1.17 1.29-.53.32-1.16.48-1.9.48zm0-7.1a2.2 2.2 0 00-1.6.66 2.52 2.52 0 00-.62 1.68v.11h4.27v-.16c0-.7-.19-1.24-.57-1.65a1.88 1.88 0 00-1.48-.63zM259.08 68c-.42 0-.74-.11-.96-.34a1.32 1.32 0 01-.31-.9V56.9h1.2v10.05h1.13V68h-1.06zm5.74.18c-.52 0-1-.1-1.43-.29-.43-.19-.8-.45-1.1-.8-.3-.37-.54-.79-.71-1.28a5.2 5.2 0 01-.26-1.68c0-.61.09-1.16.26-1.66s.4-.93.7-1.28a3.1 3.1 0 011.11-.82c.43-.2.9-.29 1.43-.29.52 0 .99.1 1.4.29.44.19.8.46 1.12.82.3.35.55.78.72 1.28.17.5.25 1.05.25 1.66a5.2 5.2 0 01-.25 1.68c-.17.49-.41.91-.72 1.27s-.68.63-1.11.81c-.42.2-.9.29-1.41.29zm0-1.07c.65 0 1.18-.2 1.59-.6.4-.4.61-1 .61-1.83v-1.1c0-.82-.2-1.43-.61-1.84-.41-.4-.94-.6-1.6-.6-.64 0-1.17.2-1.58.6-.41.4-.62 1.02-.62 1.84v1.1c0 .82.2 1.43.62 1.83.4.4.94.6 1.59.6zm11.1.89c-.46 0-.78-.12-.98-.36a1.82 1.82 0 01-.36-.9h-.08a2 2 0 01-.84 1.08 2.6 2.6 0 01-1.4.36c-.81 0-1.45-.21-1.91-.63a2.23 2.23 0 01-.68-1.71c0-.73.27-1.29.8-1.68.54-.39 1.37-.58 2.5-.58h1.53v-.77c0-.55-.15-.97-.45-1.26-.3-.29-.76-.43-1.38-.43-.47 0-.86.1-1.18.31-.31.21-.57.49-.78.84l-.72-.68c.2-.42.54-.77 1-1.06.46-.3 1.04-.45 1.74-.45.94 0 1.67.23 2.2.69.51.46.77 1.1.77 1.92v4.26h.89V68h-.68zm-3.46-.84c.3 0 .58-.03.83-.1.25-.08.46-.17.64-.3.18-.14.32-.29.42-.45.1-.17.15-.36.15-.56v-1.28h-1.59c-.69 0-1.2.1-1.51.3a.97.97 0 00-.47.88v.31c0 .38.14.68.4.89.29.2.66.31 1.13.31zm5.84.84v-7.74h1.2v1.26h.06c.19-.44.45-.79.8-1.05.34-.26.8-.39 1.39-.39.8 0 1.43.26 1.89.78.47.51.7 1.23.7 2.17V68h-1.2v-4.76c0-1.39-.58-2.08-1.75-2.08-.24 0-.48.03-.7.09-.23.06-.43.15-.6.27-.19.12-.33.27-.44.46-.1.19-.15.4-.15.65V68h-1.2zm12.07-11.1h1.2v4.62h.06c.2-.49.49-.85.87-1.08a2.6 2.6 0 011.4-.36 2.77 2.77 0 012.3 1.1c.27.34.48.77.62 1.27.15.5.22 1.06.22 1.68 0 .62-.07 1.18-.22 1.68-.14.5-.35.92-.63 1.27a2.77 2.77 0 01-2.3 1.1c-1.05 0-1.8-.48-2.26-1.44h-.06V68h-1.2V56.9zm3.2 10.2c.67 0 1.2-.21 1.6-.63.39-.43.58-.99.58-1.68v-1.32c0-.69-.2-1.24-.58-1.66a2.06 2.06 0 00-1.6-.65 2.54 2.54 0 00-1.42.42c-.18.13-.32.29-.43.48-.1.18-.15.38-.15.59v2.88c0 .25.05.47.15.67a1.7 1.7 0 001.06.8c.25.06.51.1.78.1zm8.43 1.08c-.52 0-1-.1-1.43-.29-.43-.19-.8-.45-1.11-.8-.3-.37-.53-.79-.7-1.28a5.2 5.2 0 01-.26-1.68c0-.61.08-1.16.25-1.66.18-.5.41-.93.71-1.28a3.1 3.1 0 011.11-.82c.43-.2.9-.29 1.43-.29.51 0 .99.1 1.4.29.44.19.8.46 1.12.82.3.35.55.78.72 1.28.16.5.25 1.05.25 1.66a5.2 5.2 0 01-.25 1.68c-.18.49-.42.91-.73 1.27-.3.36-.68.63-1.1.81-.43.2-.9.29-1.42.29zm0-1.07c.64 0 1.18-.2 1.58-.6.42-.4.62-1 .62-1.83v-1.1c0-.82-.2-1.43-.62-1.84-.4-.4-.94-.6-1.58-.6-.65 0-1.19.2-1.6.6-.4.4-.61 1.02-.61 1.84v1.1c0 .82.2 1.43.61 1.83.42.4.95.6 1.6.6zm8.39 1.07c-.52 0-1-.1-1.43-.29-.43-.19-.8-.45-1.1-.8-.3-.37-.54-.79-.71-1.28a5.2 5.2 0 01-.26-1.68c0-.61.09-1.16.26-1.66s.4-.93.7-1.28a3.1 3.1 0 011.11-.82c.43-.2.9-.29 1.43-.29.52 0 .99.1 1.4.29.44.19.8.46 1.12.82.3.35.55.78.72 1.28.17.5.25 1.05.25 1.66a5.2 5.2 0 01-.25 1.68c-.17.49-.41.91-.72 1.27s-.68.63-1.11.81c-.42.2-.9.29-1.41.29zm0-1.07c.65 0 1.18-.2 1.59-.6.4-.4.61-1 .61-1.83v-1.1c0-.82-.2-1.43-.61-1.84-.41-.4-.94-.6-1.6-.6-.64 0-1.17.2-1.58.6-.41.4-.62 1.02-.62 1.84v1.1c0 .82.2 1.43.62 1.83.4.4.94.6 1.59.6zm5.47-10.21h1.2v7.04h.06l1.18-1.32 2.2-2.36h1.45l-2.87 3.06 3.15 4.68h-1.45l-2.57-3.94-1.15 1.18V68h-1.2V56.9zM329.02 68l-2.71-7.74h1.2l1.35 3.84.84 2.64h.07l.84-2.64 1.38-3.84h1.16L330.42 68h-1.4zm10.44-1.26h-.06c-.07.18-.17.36-.3.54-.1.17-.25.33-.42.47a2.1 2.1 0 01-.61.31c-.24.08-.52.12-.84.12-.8 0-1.44-.26-1.9-.77a3.15 3.15 0 01-.71-2.19v-4.96h1.2v4.76c0 1.39.59 2.08 1.77 2.08.24 0 .47-.03.69-.09.23-.06.43-.15.6-.27a1.29 1.29 0 00.58-1.13v-5.35h1.2V68h-1.2v-1.26zM344.5 68c-.43 0-.75-.11-.96-.34a1.32 1.32 0 01-.32-.9V56.9h1.2v10.05h1.14V68h-1.06zm2.8 0v-7.74h1.2v1.26h.07c.19-.44.45-.79.8-1.05.34-.26.8-.39 1.39-.39.8 0 1.43.26 1.89.78.47.51.7 1.23.7 2.17V68h-1.2v-4.76c0-1.39-.58-2.08-1.75-2.08-.24 0-.48.03-.7.09-.23.06-.43.15-.6.27-.19.12-.33.27-.44.46-.1.19-.15.4-.15.65V68h-1.2zm11.44.18a3.22 3.22 0 01-2.53-1.1c-.3-.36-.54-.78-.7-1.27a5.5 5.5 0 01-.25-1.68c0-.61.08-1.16.24-1.66.17-.5.4-.93.7-1.28a3.14 3.14 0 012.54-1.11 3.05 3.05 0 012.44 1.08c.3.33.52.73.67 1.19.16.45.24.96.24 1.51v.57h-5.57v.36c0 .33.05.64.15.93a2.15 2.15 0 001.17 1.23c.3.12.62.18.98.18a2.25 2.25 0 002.13-1.33l.85.61c-.25.53-.64.96-1.17 1.29-.53.32-1.16.48-1.89.48zm0-7.1a2.2 2.2 0 00-1.6.66 2.52 2.52 0 00-.61 1.68v.11h4.27v-.16c0-.7-.2-1.24-.57-1.65a1.88 1.88 0 00-1.49-.63zm5.32 6.92v-7.74h1.2v1.43h.08c.14-.38.39-.7.75-1a2.3 2.3 0 011.49-.43h.46v1.2h-.7a2.7 2.7 0 00-1.53.38c-.37.23-.55.54-.55.91V68h-1.2zm11.08 0c-.45 0-.78-.12-.98-.36a1.82 1.82 0 01-.36-.9h-.07a2 2 0 01-.84 1.08 2.6 2.6 0 01-1.4.36c-.82 0-1.46-.21-1.92-.63a2.23 2.23 0 01-.67-1.71c0-.73.26-1.29.8-1.68.53-.39 1.37-.58 2.5-.58h1.53v-.77c0-.55-.15-.97-.45-1.26-.3-.29-.76-.43-1.38-.43-.47 0-.87.1-1.19.31-.3.21-.57.49-.78.84l-.72-.68c.21-.42.55-.77 1-1.06.47-.3 1.05-.45 1.75-.45.94 0 1.67.23 2.19.69.52.46.78 1.1.78 1.92v4.26h.88V68h-.67zm-3.45-.84c.3 0 .57-.03.82-.1.25-.08.47-.17.65-.3.18-.14.32-.29.42-.45.1-.17.15-.36.15-.56v-1.28h-1.6c-.68 0-1.19.1-1.5.3a.97.97 0 00-.47.88v.31c0 .38.13.68.4.89.28.2.66.31 1.13.31zm5.84-10.26h1.2v4.62h.06c.2-.49.49-.85.87-1.08a2.6 2.6 0 011.4-.36 2.77 2.77 0 012.3 1.1c.27.34.48.77.62 1.27.15.5.22 1.06.22 1.68 0 .62-.07 1.18-.22 1.68-.14.5-.35.92-.63 1.27a2.77 2.77 0 01-2.3 1.1c-1.05 0-1.8-.48-2.26-1.44h-.06V68h-1.2V56.9zm3.2 10.2c.67 0 1.2-.21 1.6-.63.39-.43.58-.99.58-1.68v-1.32c0-.69-.2-1.24-.58-1.66a2.06 2.06 0 00-1.6-.65 2.54 2.54 0 00-1.42.42c-.18.13-.32.29-.43.48-.1.18-.15.38-.15.59v2.88c0 .25.05.47.15.67a1.7 1.7 0 001.06.8c.25.06.51.1.78.1zm6.1-8.65c-.26 0-.45-.07-.57-.19a.74.74 0 01-.17-.49v-.2c0-.2.06-.35.17-.48.12-.13.3-.19.57-.19.26 0 .44.07.55.2.12.12.18.27.18.48v.19a.7.7 0 01-.18.5c-.1.11-.3.17-.55.17zm-.6 1.81h1.2V68h-1.2v-7.74zm5.02 7.74c-.42 0-.74-.11-.96-.34a1.32 1.32 0 01-.31-.9V56.9h1.2v10.05h1.14V68h-1.07zm3.42-9.55c-.27 0-.46-.07-.57-.19a.74.74 0 01-.17-.49v-.2c0-.2.06-.35.17-.48.11-.13.3-.19.56-.19.26 0 .45.07.56.2.12.12.18.27.18.48v.19a.7.7 0 01-.18.5c-.11.11-.3.17-.56.17zm-.6 1.81h1.2V68h-1.2v-7.74zm5.45 7.74c-.41 0-.73-.11-.95-.34a1.36 1.36 0 01-.32-.94v-5.41h-1.27v-1.05h.71c.26 0 .44-.05.53-.15.1-.11.15-.3.15-.55V58.1h1.08v2.15h1.7v1.05h-1.7v5.64h1.57V68h-1.5zm8.32-7.74h1.19l-3.47 9.54c-.09.23-.18.42-.27.57-.09.16-.2.28-.33.38-.13.08-.3.15-.5.19a3.5 3.5 0 01-.7.06h-.61v-1.05h1.21l.59-1.65-2.9-8.04h1.2l1.86 5.27.36 1.25h.08l.42-1.25 1.87-5.27zM419.73 68c-.45 0-.78-.12-.98-.36a1.82 1.82 0 01-.36-.9h-.07a2 2 0 01-.84 1.08 2.6 2.6 0 01-1.4.36c-.82 0-1.46-.21-1.92-.63a2.23 2.23 0 01-.67-1.71c0-.73.26-1.29.8-1.68.53-.39 1.37-.58 2.5-.58h1.53v-.77c0-.55-.15-.97-.45-1.26-.3-.29-.76-.43-1.38-.43-.47 0-.87.1-1.19.31-.3.21-.57.49-.78.84l-.72-.68c.21-.42.55-.77 1-1.06.47-.3 1.05-.45 1.75-.45.94 0 1.67.23 2.19.69.52.46.78 1.1.78 1.92v4.26h.88V68h-.67zm-3.45-.84c.3 0 .57-.03.82-.1.25-.08.47-.17.65-.3.18-.14.32-.29.42-.45.1-.17.15-.36.15-.56v-1.28h-1.6c-.68 0-1.19.1-1.5.3a.97.97 0 00-.47.88v.31c0 .38.13.68.4.89.28.2.66.31 1.13.31zm5.84.84v-7.74h1.2v1.26h.06c.19-.44.45-.79.8-1.05.34-.26.8-.39 1.39-.39.8 0 1.43.26 1.89.78.47.51.7 1.23.7 2.17V68h-1.2v-4.76c0-1.39-.58-2.08-1.75-2.08-.24 0-.48.03-.7.09-.23.06-.43.15-.6.27-.19.12-.33.27-.44.46-.1.19-.15.4-.15.65V68h-1.2zm14.15 0c-.45 0-.78-.12-.98-.36a1.82 1.82 0 01-.36-.9h-.07a2 2 0 01-.84 1.08 2.6 2.6 0 01-1.4.36c-.82 0-1.46-.21-1.92-.63a2.23 2.23 0 01-.67-1.71c0-.73.26-1.29.8-1.68.53-.39 1.37-.58 2.5-.58h1.53v-.77c0-.55-.15-.97-.45-1.26-.3-.29-.76-.43-1.38-.43-.47 0-.87.1-1.19.31-.3.21-.57.49-.78.84l-.72-.68c.21-.42.55-.77 1-1.06.47-.3 1.05-.45 1.75-.45.94 0 1.67.23 2.19.69.52.46.78 1.1.78 1.92v4.26h.88V68h-.67zm-3.45-.84c.3 0 .57-.03.82-.1.25-.08.47-.17.65-.3.18-.14.32-.29.42-.45.1-.17.15-.36.15-.56v-1.28h-1.6c-.68 0-1.19.1-1.5.3a.97.97 0 00-.47.88v.31c0 .38.13.68.4.89.28.2.66.31 1.13.31zm7.11.84c-.42 0-.74-.11-.96-.34a1.32 1.32 0 01-.32-.9V56.9h1.2v10.05H441V68h-1.06zm7.44-7.74h1.18l-3.47 9.54c-.08.23-.18.42-.26.57-.1.16-.2.28-.33.38-.13.08-.3.15-.5.19a3.5 3.5 0 01-.7.06h-.62v-1.05h1.21l.59-1.65-2.9-8.04h1.2l1.87 5.27.36 1.25h.07l.42-1.25 1.88-5.27zm4.98 7.92c-.72 0-1.33-.14-1.82-.4-.48-.28-.9-.66-1.24-1.11l.85-.7c.3.39.64.68 1 .89.38.2.8.3 1.3.3s.9-.11 1.18-.33c.3-.22.44-.53.44-.93 0-.3-.1-.56-.3-.77-.2-.21-.54-.36-1.05-.44l-.62-.1a5.54 5.54 0 01-.99-.22c-.3-.11-.56-.25-.8-.42a2 2 0 01-.52-.66 2.2 2.2 0 01-.18-.93c0-.38.07-.71.21-.99.14-.29.33-.53.57-.72.25-.19.55-.33.89-.42.34-.1.7-.15 1.1-.15.62 0 1.15.11 1.57.33.43.22.8.53 1.12.92l-.8.72a2.37 2.37 0 00-2-.95c-.49 0-.87.11-1.13.33-.25.21-.37.5-.37.87 0 .38.12.66.37.83.26.16.63.29 1.11.37l.6.09c.86.13 1.47.38 1.83.75.36.36.54.83.54 1.42a2.2 2.2 0 01-.76 1.77c-.51.44-1.21.65-2.1.65zm5.58-9.74c-.26 0-.45-.05-.57-.17a.74.74 0 01-.16-.5v-.2c0-.2.05-.35.16-.48.12-.13.31-.19.57-.19.26 0 .45.07.56.2.12.12.18.27.18.48v.19a.7.7 0 01-.18.5c-.11.11-.3.17-.56.17zm-.6 1.82h1.2V68h-1.2v-7.74zm6.08 7.92c-.72 0-1.33-.14-1.82-.4-.48-.28-.9-.66-1.24-1.11l.85-.7c.3.39.64.68 1 .89.38.2.8.3 1.3.3s.9-.11 1.18-.33c.3-.22.44-.53.44-.93 0-.3-.1-.56-.3-.77-.2-.21-.54-.36-1.05-.44l-.62-.1a5.54 5.54 0 01-.99-.22c-.3-.11-.56-.25-.8-.42a2 2 0 01-.52-.66 2.2 2.2 0 01-.18-.93c0-.38.07-.71.21-.99.14-.29.33-.53.57-.72.25-.19.55-.33.89-.42.34-.1.7-.15 1.1-.15.62 0 1.15.11 1.57.33.43.22.8.53 1.12.92l-.8.72a2.37 2.37 0 00-2-.95c-.49 0-.87.11-1.13.33-.25.21-.37.5-.37.87 0 .38.12.66.37.83.26.16.63.29 1.11.37l.6.09c.86.13 1.47.38 1.83.75.36.36.54.83.54 1.42a2.2 2.2 0 01-.76 1.77c-.51.44-1.21.65-2.1.65z" fill="#37D37A"/><path d="M575.33 30a2.67 2.67 0 105.34 0 2.67 2.67 0 00-5.34 0zm90 0a2.67 2.67 0 105.34 0 2.67 2.67 0 00-5.34 0zm-87.33.5h90v-1h-90v1z" fill="#fff"/><path d="M667.5 30v30h1V30h-1zm-89 30V30h-1v30h1zM588.82 49v-6.98h1.32v5.81h2.75V49h-4.07zm7.15.12a2.3 2.3 0 01-1.81-.74 2.6 2.6 0 01-.48-.86 3.6 3.6 0 01-.17-1.14c0-.41.05-.79.16-1.12.11-.33.27-.62.48-.85.2-.24.46-.42.76-.55.3-.13.64-.2 1.02-.2.4 0 .76.07 1.06.21.3.14.54.33.74.57.2.24.33.52.43.84.1.31.15.65.15 1.01v.42h-3.47v.13c0 .38.1.69.32.92.21.23.53.34.95.34.32 0 .58-.07.78-.2.2-.13.39-.3.55-.51l.69.77c-.22.3-.5.54-.88.71-.37.17-.8.25-1.28.25zm-.02-4.5c-.34 0-.61.11-.81.34-.2.23-.3.52-.3.88v.08h2.14v-.09c0-.36-.1-.65-.27-.87-.18-.23-.43-.34-.76-.34zm7.32 4.38a.93.93 0 01-.67-.24 1.17 1.17 0 01-.3-.66h-.06c-.08.34-.26.6-.53.77-.26.17-.6.25-.99.25-.53 0-.94-.14-1.23-.42a1.5 1.5 0 01-.43-1.12c0-.54.2-.94.58-1.2.39-.27.94-.4 1.65-.4h.9v-.38c0-.3-.08-.52-.24-.68-.15-.16-.4-.24-.74-.24-.3 0-.54.07-.73.2a1.9 1.9 0 00-.46.46l-.76-.68c.2-.3.45-.54.77-.72a2.5 2.5 0 011.27-.28c.71 0 1.25.16 1.61.48.37.32.55.78.55 1.38v2.46h.52V49h-.7zm-2.12-.81c.29 0 .53-.06.73-.19.2-.13.3-.31.3-.56v-.69h-.82c-.66 0-1 .21-1 .64v.17c0 .21.07.37.2.48a1 1 0 00.6.15zm3.87.81v-5.22h1.28v1.08h.05c.03-.14.08-.27.15-.4a1.32 1.32 0 011.23-.68h.28v1.21h-.4a2 2 0 00-.98.19c-.22.13-.33.33-.33.62V49h-1.28zm3.93 0v-5.22h1.27v.87h.05c.11-.28.28-.51.5-.7.24-.2.56-.29.97-.29.53 0 .95.18 1.24.53.28.35.42.86.42 1.51V49h-1.27v-3.17c0-.37-.07-.65-.2-.84-.14-.19-.36-.28-.66-.28a1.3 1.3 0 00-.73.22.8.8 0 00-.22.26.69.69 0 00-.1.36V49h-1.27zm8.24 0v-5.22h1.28v.87h.05c.1-.27.26-.5.48-.7.22-.2.52-.29.92-.29.36 0 .67.09.93.26s.45.44.58.79h.02c.1-.3.27-.54.55-.74.28-.2.63-.31 1.05-.31.51 0 .9.18 1.18.53.28.35.42.86.42 1.51V49h-1.28v-3.17c0-.75-.28-1.12-.84-1.12a1.17 1.17 0 00-.68.22.75.75 0 00-.3.62V49h-1.27v-3.17c0-.75-.28-1.12-.84-1.12a1.13 1.13 0 00-.67.22.85.85 0 00-.22.26.76.76 0 00-.08.36V49h-1.28zm10.94.12c-.37 0-.7-.06-1-.19-.3-.13-.55-.31-.77-.55a2.6 2.6 0 01-.48-.86 3.6 3.6 0 01-.17-1.14c0-.42.06-.8.17-1.13.12-.33.28-.62.48-.85.22-.24.47-.42.76-.55.3-.13.64-.19 1.01-.19.38 0 .71.06 1.01.19a2.36 2.36 0 011.25 1.4c.12.33.17.71.17 1.13 0 .42-.05.8-.17 1.14-.1.33-.27.62-.49.86-.2.24-.46.42-.76.55-.3.13-.63.19-1 .19zm0-1.03c.34 0 .61-.1.8-.31.2-.2.3-.51.3-.91v-.97c0-.4-.1-.7-.3-.9-.19-.2-.46-.31-.8-.31-.33 0-.6.1-.79.31-.19.2-.29.5-.29.9v.97c0 .4.1.7.3.91.19.2.45.31.78.31zm3.57.91v-5.22h1.28v1.08h.05c.03-.14.08-.27.15-.4a1.3 1.3 0 01.68-.59c.16-.06.34-.09.55-.09h.28v1.21h-.4a2 2 0 00-.98.19c-.22.13-.33.33-.33.62V49h-1.28zm5.99.12a2.29 2.29 0 01-1.81-.74c-.21-.24-.37-.53-.48-.86a3.6 3.6 0 01-.17-1.14c0-.41.05-.79.16-1.12.1-.33.27-.62.48-.85.2-.24.46-.42.76-.55.3-.13.64-.2 1.02-.2.4 0 .76.07 1.06.21.3.14.54.33.74.57.19.24.33.52.43.84.1.31.15.65.15 1.01v.42h-3.47v.13c0 .38.1.69.32.92.2.23.53.34.95.34.32 0 .58-.07.78-.2.2-.13.39-.3.55-.51l.69.77c-.22.3-.51.54-.88.71-.37.17-.8.25-1.28.25zm-.02-4.5c-.34 0-.61.11-.81.34-.2.23-.3.52-.3.88v.08h2.14v-.09c0-.36-.1-.65-.27-.87-.18-.23-.43-.34-.76-.34zM647.5 45h7.08l-1.78-1.8.7-.7 3 3-3 3-.7-.7 1.78-1.8h-7.08v-1z" fill="#fff"/><path d="M575.33 60a2.67 2.67 0 105.34 0 2.67 2.67 0 00-5.34 0zm90 0a2.67 2.67 0 105.34 0 2.67 2.67 0 00-5.34 0zm-87.33.5h90v-1h-90v1z" fill="#fff"/></svg>