<svg width="728" height="90" viewBox="0 0 728 90" fill="none" xmlns="http://www.w3.org/2000/svg"><path d="M218 17.33a2.67 2.67 0 100 5.34 2.67 2.67 0 000-5.34zm0 50a2.67 2.67 0 100 5.34 2.67 2.67 0 000-5.34zM217.5 20v50h1V20h-1z" fill="#37D37A"/><path d="M234.72 40V26.04h4.94c3.56 0 5.9 2.32 5.9 6.98s-2.34 6.98-5.9 6.98h-4.94zm2.26-2h2.68c2.08 0 3.48-1.34 3.48-3.86V31.9c0-2.52-1.4-3.86-3.48-3.86h-2.68V38zm15.31 2.24c-2.96 0-4.78-2.12-4.78-5.44 0-3.32 1.82-5.44 4.78-5.44 3.06 0 4.62 2.3 4.62 5.18v.82h-7.14v.34c0 1.6.98 2.74 2.74 2.74 1.28 0 2.14-.6 2.74-1.56l1.28 1.26c-.78 1.26-2.3 2.1-4.24 2.1zm0-9.18c-1.5 0-2.52 1.12-2.52 2.72v.14h4.84v-.2c0-1.6-.88-2.66-2.32-2.66zm12.45 3.96h-5.54V32.8h5.54v2.22zm4.99 4.98h-2.18V29.6h2.18v2h.1c.3-1.06 1.2-2 2.86-2h.58v2.1h-.86c-1.72 0-2.68.58-2.68 1.66V40zm6.57-12.26c-.9 0-1.3-.48-1.3-1.14v-.34c0-.66.4-1.14 1.3-1.14s1.28.48 1.28 1.14v.34c0 .66-.38 1.14-1.27 1.14zM275.2 40V29.6h2.19V40h-2.19zm8.6.24a5.02 5.02 0 01-4.22-1.96l1.4-1.28c.76.92 1.7 1.48 2.94 1.48 1.26 0 1.9-.52 1.9-1.4 0-.66-.4-1.16-1.48-1.3l-.96-.12c-2.12-.26-3.42-1.18-3.42-3.1 0-2.02 1.58-3.2 3.86-3.2a4.7 4.7 0 013.88 1.66l-1.34 1.28a3.31 3.31 0 00-2.54-1.18c-1.2 0-1.76.52-1.76 1.3 0 .8.5 1.16 1.6 1.34l.96.12c2.28.34 3.3 1.34 3.3 3.02 0 2-1.62 3.34-4.12 3.34zm6.58-.24V25.2h2.18v9.08h.1l1.44-1.86 2.5-2.82h2.54l-3.64 4.02 4.08 6.38h-2.6L294 35.04l-1.44 1.56V40h-2.18zm19.28 0h-1.4c-1.48 0-2.22-.82-2.22-2.16V25.2h2.18v13.02h1.44V40zm6.17.24c-2.96 0-4.78-2.12-4.78-5.44 0-3.32 1.82-5.44 4.78-5.44 3.06 0 4.62 2.3 4.62 5.18v.82h-7.14v.34c0 1.6.98 2.74 2.74 2.74 1.28 0 2.14-.6 2.74-1.56l1.28 1.26c-.78 1.26-2.3 2.1-4.24 2.1zm0-9.18c-1.5 0-2.52 1.12-2.52 2.72v.14h4.84v-.2c0-1.6-.88-2.66-2.32-2.66zm9.21 8.94h-2.18V29.6h2.18v1.72h.1a2.9 2.9 0 012.92-1.96c2.12 0 3.38 1.48 3.38 4.04V40h-2.18v-6.32c0-1.62-.62-2.44-1.96-2.44-1.14 0-2.26.58-2.26 1.8V40zM341 40v-1.72h-.1a2.97 2.97 0 01-2.92 1.96c-2.62 0-4.14-2.02-4.14-5.44 0-3.42 1.52-5.44 4.14-5.44 1.38 0 2.48.72 2.92 1.96h.1V25.2h2.18V40H341zm-2.36-1.64c1.32 0 2.36-.72 2.36-1.78v-3.56c0-1.06-1.04-1.78-2.36-1.78-1.5 0-2.5 1.06-2.5 2.66v1.8c0 1.6 1 2.66 2.5 2.66zm8.76-10.62c-.9 0-1.3-.48-1.3-1.14v-.34c0-.66.4-1.14 1.3-1.14s1.28.48 1.28 1.14v.34c0 .66-.38 1.14-1.28 1.14zM346.3 40V29.6h2.18V40h-2.18zm7.47 0h-2.18V29.6h2.18v1.72h.1a2.9 2.9 0 012.92-1.96c2.12 0 3.38 1.48 3.38 4.04V40H358v-6.32c0-1.62-.62-2.44-1.96-2.44-1.14 0-2.26.58-2.26 1.8V40zm18.54.98c0 2.16-1.54 3.26-5.28 3.26-3.4 0-4.72-.92-4.72-2.5 0-1.14.68-1.76 1.78-2v-.22a1.59 1.59 0 01-1.18-1.6c0-1.08.84-1.6 1.84-1.84V36a3.25 3.25 0 01-1.9-3.08c0-2.12 1.5-3.56 4.14-3.56a5 5 0 011.88.32v-.28c0-.92.44-1.48 1.36-1.48h1.6v1.76h-2.12v.42a3.26 3.26 0 011.46 2.82c0 2.1-1.52 3.52-4.16 3.52-.5 0-.98-.06-1.36-.16-.52.18-1 .52-1 1.04 0 .56.54.78 1.46.78h2.56c2.56 0 3.64 1.08 3.64 2.88zm-2.04.24c0-.72-.48-1.18-1.9-1.18h-3.52c-.48.28-.72.7-.72 1.2 0 .84.62 1.42 2.24 1.42h1.36c1.7 0 2.54-.48 2.54-1.44zm-3.26-6.36c1.28 0 2.02-.58 2.02-1.76v-.4c0-1.18-.74-1.76-2.02-1.76s-2.02.58-2.02 1.76v.4c0 1.18.74 1.76 2.02 1.76zM380.46 40l-2.84-10.4h2.12l1.06 4.36.94 3.94h.06l1.08-3.94 1.26-4.36h1.96l1.28 4.36 1.1 3.94h.06l.92-3.94 1.08-4.36h2.02l-2.8 10.4h-2.46l-1.36-4.74-.84-2.92h-.04l-.82 2.92-1.38 4.74h-2.4zm15.28-12.26c-.9 0-1.3-.48-1.3-1.14v-.34c0-.66.4-1.14 1.3-1.14s1.28.48 1.28 1.14v.34c0 .66-.38 1.14-1.28 1.14zM394.64 40V29.6h2.18V40h-2.18zm10.07 0h-1.9c-1.5 0-2.3-.84-2.3-2.26v-6.36h-1.62V29.6h.88c.72 0 .96-.3.96-1.02v-1.82h1.96v2.84h2.18v1.78h-2.18v6.84h2.02V40zm2.53 0V25.2h2.18v6.12h.1a2.9 2.9 0 012.92-1.96c2.12 0 3.38 1.48 3.38 4.04V40h-2.18v-6.34c0-1.6-.62-2.42-1.96-2.42-1.14 0-2.26.58-2.26 1.78V40h-2.18zM245.8 66h-2.36l-1.26-3.78h-5.22L235.74 66h-2.3l4.76-13.96h2.84L245.8 66zm-4.18-5.72l-2-6.16h-.1l-2.02 6.16h4.12zM253.44 66h-6.08v-1.84h1.9V53.88h-1.9v-1.84h6.08v1.84h-1.92v10.28h1.92V66zm7.3-4.98h-5.54V58.8h5.54v2.22zm2.8 8.98V55.6h2.18v1.72h.1a2.94 2.94 0 012.92-1.96c2.62 0 4.14 2.02 4.14 5.44 0 3.42-1.52 5.44-4.14 5.44a2.97 2.97 0 01-2.92-1.96h-.1V70h-2.18zm4.54-5.64c1.5 0 2.5-1.06 2.5-2.66v-1.8c0-1.6-1-2.66-2.5-2.66-1.32 0-2.36.72-2.36 1.78v3.56c0 1.06 1.04 1.78 2.36 1.78zm11.38 1.88c-2.9 0-4.78-2.12-4.78-5.44 0-3.32 1.88-5.44 4.78-5.44 2.9 0 4.78 2.12 4.78 5.44 0 3.32-1.88 5.44-4.78 5.44zm0-1.8c1.48 0 2.48-.92 2.48-2.76v-1.76c0-1.84-1-2.76-2.48-2.76s-2.48.92-2.48 2.76v1.76c0 1.84 1 2.76 2.48 2.76zm8.87 1.56l-2.84-10.4h2.12l1.06 4.36.94 3.94h.06l1.08-3.94 1.26-4.36h1.96l1.28 4.36 1.1 3.94h.06l.92-3.94 1.08-4.36h2.02l-2.8 10.4h-2.46l-1.36-4.74-.84-2.92h-.04l-.82 2.92-1.38 4.74h-2.4zm18.12.24c-2.96 0-4.78-2.12-4.78-5.44 0-3.32 1.82-5.44 4.78-5.44 3.06 0 4.62 2.3 4.62 5.18v.82h-7.14v.34c0 1.6.98 2.74 2.74 2.74 1.28 0 2.14-.6 2.74-1.56l1.28 1.26c-.78 1.26-2.3 2.1-4.24 2.1zm0-9.18c-1.5 0-2.52 1.12-2.52 2.72v.14h4.84v-.2c0-1.6-.88-2.66-2.32-2.66zm9.22 8.94h-2.18V55.6h2.18v2h.1c.3-1.06 1.2-2 2.86-2h.58v2.1h-.86c-1.72 0-2.68.58-2.68 1.66V66zm9.45.24c-2.96 0-4.78-2.12-4.78-5.44 0-3.32 1.82-5.44 4.78-5.44 3.06 0 4.62 2.3 4.62 5.18v.82h-7.14v.34c0 1.6.98 2.74 2.74 2.74 1.28 0 2.14-.6 2.74-1.56l1.28 1.26c-.78 1.26-2.3 2.1-4.24 2.1zm0-9.18c-1.5 0-2.52 1.12-2.52 2.72v.14h4.84v-.2c0-1.6-.88-2.66-2.32-2.66zM338.7 66v-1.72h-.1a2.97 2.97 0 01-2.92 1.96c-2.62 0-4.14-2.02-4.14-5.44 0-3.42 1.52-5.44 4.14-5.44 1.38 0 2.48.72 2.92 1.96h.1V51.2h2.18V66h-2.18zm-2.36-1.64c1.32 0 2.36-.72 2.36-1.78v-3.56c0-1.06-1.04-1.78-2.36-1.78-1.5 0-2.5 1.06-2.5 2.66v1.8c0 1.6 1 2.66 2.5 2.66zm16.4 1.88c-3 0-4.72-2.12-4.72-5.44 0-3.32 1.72-5.44 4.72-5.44 2.08 0 3.4 1.02 4.02 2.56l-1.8.84c-.3-.96-1.04-1.58-2.22-1.58-1.6 0-2.42 1.1-2.42 2.7v1.86c0 1.6.82 2.7 2.42 2.7 1.26 0 2-.68 2.44-1.72l1.66.88c-.68 1.7-2.1 2.64-4.1 2.64zm8.36-.24h-2.19V55.6h2.19v2h.1c.3-1.06 1.2-2 2.86-2h.57v2.1h-.86c-1.71 0-2.67.58-2.67 1.66V66zm9.45.24c-2.96 0-4.78-2.12-4.78-5.44 0-3.32 1.82-5.44 4.78-5.44 3.06 0 4.62 2.3 4.62 5.18v.82h-7.14v.34c0 1.6.98 2.74 2.74 2.74 1.28 0 2.14-.6 2.74-1.56l1.28 1.26c-.78 1.26-2.3 2.1-4.24 2.1zm0-9.18c-1.5 0-2.52 1.12-2.52 2.72v.14h4.84v-.2c0-1.6-.88-2.66-2.32-2.66zM384.13 66v-1.72h-.1a2.97 2.97 0 01-2.92 1.96c-2.62 0-4.14-2.02-4.14-5.44 0-3.42 1.52-5.44 4.14-5.44 1.38 0 2.48.72 2.92 1.96h.1V51.2h2.18V66h-2.18zm-2.36-1.64c1.32 0 2.36-.72 2.36-1.78v-3.56c0-1.06-1.04-1.78-2.36-1.78-1.5 0-2.5 1.06-2.5 2.66v1.8c0 1.6 1 2.66 2.5 2.66zm8.75-10.62c-.9 0-1.3-.48-1.3-1.14v-.34c0-.66.4-1.14 1.3-1.14s1.28.48 1.28 1.14v.34c0 .66-.38 1.14-1.28 1.14zM389.42 66V55.6h2.18V66h-2.18zm10.08 0h-1.9c-1.5 0-2.3-.84-2.3-2.26v-6.36h-1.62V55.6h.88c.72 0 .96-.3.96-1.02v-1.82h1.96v2.84h2.18v1.78h-2.18v6.84h2.02V66zm13.79 0v-1.72h-.1a2.97 2.97 0 01-2.92 1.96c-2.62 0-4.14-2.02-4.14-5.44 0-3.42 1.52-5.44 4.14-5.44 1.38 0 2.48.72 2.92 1.96h.1V51.2h2.18V66h-2.18zm-2.36-1.64c1.32 0 2.36-.72 2.36-1.78v-3.56c0-1.06-1.04-1.78-2.36-1.78-1.5 0-2.5 1.06-2.5 2.66v1.8c0 1.6 1 2.66 2.5 2.66zm11.73 1.88c-2.96 0-4.78-2.12-4.78-5.44 0-3.32 1.82-5.44 4.78-5.44 3.06 0 4.62 2.3 4.62 5.18v.82h-7.14v.34c0 1.6.98 2.74 2.74 2.74 1.28 0 2.14-.6 2.74-1.56l1.28 1.26c-.78 1.26-2.3 2.1-4.24 2.1zm0-9.18c-1.5 0-2.52 1.12-2.52 2.72v.14h4.84v-.2c0-1.6-.88-2.66-2.32-2.66zm11.06 9.18c-3 0-4.72-2.12-4.72-5.44 0-3.32 1.72-5.44 4.72-5.44 2.08 0 3.4 1.02 4.02 2.56l-1.8.84c-.3-.96-1.04-1.58-2.22-1.58-1.6 0-2.42 1.1-2.42 2.7v1.86c0 1.6.82 2.7 2.42 2.7 1.26 0 2-.68 2.44-1.72l1.66.88c-.68 1.7-2.1 2.64-4.1 2.64zm7.27-12.5c-.9 0-1.3-.48-1.3-1.14v-.34c0-.66.4-1.14 1.3-1.14s1.28.48 1.28 1.14v.34c0 .66-.38 1.14-1.28 1.14zM439.9 66V55.6h2.18V66h-2.18zm8.6.24a5.02 5.02 0 01-4.23-1.96l1.4-1.28c.76.92 1.7 1.48 2.94 1.48 1.26 0 1.9-.52 1.9-1.4 0-.66-.4-1.16-1.48-1.3l-.95-.12c-2.13-.26-3.43-1.18-3.43-3.1 0-2.02 1.59-3.2 3.87-3.2a4.7 4.7 0 013.88 1.66l-1.34 1.28a3.31 3.31 0 00-2.55-1.18c-1.2 0-1.75.52-1.75 1.3 0 .8.5 1.16 1.6 1.34l.95.12c2.28.34 3.3 1.34 3.3 3.02 0 2-1.62 3.34-4.12 3.34zm7.68-12.5c-.9 0-1.3-.48-1.3-1.14v-.34c0-.66.4-1.14 1.3-1.14s1.28.48 1.28 1.14v.34c0 .66-.38 1.14-1.28 1.14zM455.07 66V55.6h2.18V66h-2.18zm9.37.24c-2.9 0-4.78-2.12-4.78-5.44 0-3.32 1.88-5.44 4.78-5.44 2.9 0 4.78 2.12 4.78 5.44 0 3.32-1.88 5.44-4.78 5.44zm0-1.8c1.48 0 2.48-.92 2.48-2.76v-1.76c0-1.84-1-2.76-2.48-2.76s-2.48.92-2.48 2.76v1.76c0 1.84 1 2.76 2.48 2.76zm9.39 1.56h-2.18V55.6h2.18v1.72h.1a2.9 2.9 0 012.92-1.96c2.12 0 3.38 1.48 3.38 4.04V66h-2.18v-6.32c0-1.62-.62-2.44-1.96-2.44-1.14 0-2.26.58-2.26 1.8V66zm10.52-12.26c-.9 0-1.3-.48-1.3-1.14v-.34c0-.66.4-1.14 1.3-1.14s1.28.48 1.28 1.14v.34c0 .66-.38 1.14-1.28 1.14zM483.25 66V55.6h2.18V66h-2.18zm7.47 0h-2.18V55.6h2.18v1.72h.1a2.9 2.9 0 012.92-1.96c2.12 0 3.38 1.48 3.38 4.04V66h-2.18v-6.32c0-1.62-.62-2.44-1.96-2.44-1.14 0-2.26.58-2.26 1.8V66zm18.55.98c0 2.16-1.54 3.26-5.28 3.26-3.4 0-4.72-.92-4.72-2.5 0-1.14.68-1.76 1.78-2v-.22a1.59 1.59 0 01-1.18-1.6c0-1.08.84-1.6 1.84-1.84V62a3.25 3.25 0 01-1.9-3.08c0-2.12 1.5-3.56 4.14-3.56a5 5 0 011.88.32v-.28c0-.92.44-1.48 1.36-1.48h1.6v1.76h-2.12v.42a3.26 3.26 0 011.46 2.82c0 2.1-1.52 3.52-4.16 3.52-.5 0-.98-.06-1.36-.16-.52.18-1 .52-1 1.04 0 .56.54.78 1.46.78h2.56c2.56 0 3.64 1.08 3.64 2.88zm-2.04.24c0-.72-.48-1.18-1.9-1.18h-3.52c-.48.28-.72.7-.72 1.2 0 .84.62 1.42 2.24 1.42h1.36c1.7 0 2.54-.48 2.54-1.44zm-3.26-6.36c1.28 0 2.02-.58 2.02-1.76v-.4c0-1.18-.74-1.76-2.02-1.76s-2.02.58-2.02 1.76v.4c0 1.18.74 1.76 2.02 1.76z" fill="#fff"/></svg>