<svg width="728" height="90" viewBox="0 0 728 90" fill="none" xmlns="http://www.w3.org/2000/svg"><path d="M183.13 31.8a1.88 1.88 0 000 3.77 1.88 1.88 0 000-3.77zm0 3.39a1.5 1.5 0 010-3 1.5 1.5 0 010 3z" fill="#080808"/><path d="M183.63 33.81a.4.4 0 00-.18-.1c.12-.04.22-.1.28-.19.06-.08.1-.19.1-.32 0-.19-.07-.33-.19-.41-.12-.1-.3-.14-.56-.14h-.78v1.98h.5v-.75h.15c.08 0 .15.02.2.06.05.03.1.1.15.2l.24.49h.53l-.27-.56a.94.94 0 00-.17-.26zm-.38-.34c-.05.04-.12.06-.22.06h-.22v-.5h.22c.1 0 .18.01.22.05.05.04.07.1.07.2 0 .08-.02.15-.07.19zM35.99 38.01L24.67 54.84H20l13.62-20.03 2.37 3.2z" fill="#080808"/><path d="M40.73 45.23l-2.37-3.62-9.01 13.24h4.8l6.58-9.62z" fill="#019055"/><path d="M42 36.27V28.8L36 38.01l2.37 3.6L42 36.27zM42 36.27V28.8l17 26.06h-4.98L42 36.27z" fill="#080808"/><path d="M131.38 44.83l-6.62-9.36h4.6l4.22 6.02 4.26-6.02h4.54l-6.43 9.22 6.43 9.77h-4.69l-3.92-6.56-4.4 6.56h-4.67l6.68-9.63z" fill="#019055"/><path d="M63.52 45.74c0-2.46.14-4.25.43-5.36a5.62 5.62 0 011.5-2.75A6.69 6.69 0 0168.33 36c1.18-.36 2.64-.54 4.38-.54h6v3.32h-6.33c-1.66 0-2.89.36-3.7 1.07-.82.74-1.23 1.92-1.23 3.55h11.25v3.29H67.44v7.76h-3.92v-8.72zM85.96 54.46h-4.1v-19h4.1v19zM89.07 35.47h4.98l7.64 13.64-.18-13.64h4.02v18.99h-4.56L92.91 40.1l.19 14.36h-4.03v-19z" fill="#080808"/><path d="M117 38.79c-1.38 0-2.45.36-3.2 1.08-.38.38-.67.83-.9 1.37a5.56 5.56 0 00-.3 1.95l10.28.02v3.3h-10.31c0 1.65.34 2.83 1.03 3.55.69.72 1.82 1.08 3.41 1.08h6.47l-2.34 3.32h-4.31c-1.5 0-2.66-.13-3.46-.39A6.58 6.58 0 01111 52.8a6.87 6.87 0 01-2.15-3.03 12.31 12.31 0 01-.72-4.45c0-3.34.71-5.82 2.14-7.44 1.43-1.6 3.64-2.4 6.65-2.4h4.2l2.35 3.32h-6.47zM142.2 44.78c0-3.26.77-5.69 2.31-7.28 1.53-1.6 3.87-2.39 7.03-2.39s5.51.81 7.03 2.44c1.52 1.61 2.28 4.08 2.28 7.4 0 3.33-.76 5.83-2.28 7.45-1.53 1.63-3.88 2.45-7.03 2.45-3.16 0-5.57-.82-7.08-2.45-1.5-1.62-2.27-4.16-2.27-7.63zm9.34-6.43c-1.68 0-2.94.54-3.79 1.62-.84 1.08-1.25 2.69-1.25 4.83 0 2.31.4 4.02 1.2 5.11.81 1.1 2.1 1.65 3.84 1.65 1.75 0 3-.55 3.81-1.65.82-1.07 1.24-2.73 1.24-4.96 0-2.22-.41-3.88-1.24-4.98-.82-1.08-2.09-1.62-3.8-1.62h-.01zM179.68 38.88h-9.71c-1.08 0-1.85.18-2.32.55-.48.4-.72 1.03-.72 1.91 0 .67.2 1.18.61 1.54a3 3 0 001.86.51h5.2c2.17 0 3.7.42 4.62 1.24.9.85 1.35 2.24 1.35 4.16 0 1.93-.52 3.37-1.56 4.28-1.06.92-2.71 1.39-4.97 1.39h-10.47v-3.37h9.86c1.12 0 1.92-.17 2.38-.52.45-.32.67-.87.67-1.64 0-.77-.21-1.32-.64-1.7-.43-.32-1.15-.48-2.15-.48h-4.64c-2.15 0-3.72-.44-4.72-1.32-1.01-.89-1.52-2.26-1.52-4.13 0-2 .53-3.47 1.6-4.43 1.05-.93 2.7-1.4 4.97-1.4h10.3v3.42-.01z" fill="#019055"/></svg>