<svg width="728" height="90" viewBox="0 0 728 90" fill="none" xmlns="http://www.w3.org/2000/svg"><circle cx="263.5" cy="45" r="2.5" fill="#019055"/><path d="M263.5 15.58a2.67 2.67 0 100 5.34 2.67 2.67 0 000-5.34zm0 53.5a2.67 2.67 0 100 5.34 2.67 2.67 0 000-5.34zm-.5-50.83v53.5h1v-53.5h-1z" fill="#019055"/><path d="M283.83 24l-.94-2.84h-3.92l-.92 2.84h-1.72l3.57-10.47h2.13L285.6 24h-1.77zm-2.87-8.91h-.07l-1.51 4.62h3.08l-1.5-4.62zm6.14 1.11h1.64v1.29h.07c.17-.47.45-.83.83-1.08a2.4 2.4 0 011.36-.39c1 0 1.76.36 2.3 1.08.54.71.8 1.71.8 3s-.26 2.3-.8 3.01a2.71 2.71 0 01-2.3 1.07 2.19 2.19 0 01-2.19-1.47h-.07V27h-1.64V16.2zm3.4 6.57c.58 0 1.03-.18 1.37-.54.34-.37.51-.86.51-1.46v-1.34c0-.6-.17-1.09-.5-1.45-.35-.37-.8-.55-1.37-.55-.5 0-.92.13-1.26.38-.34.24-.51.55-.51.96v2.66c0 .4.17.73.5.98.35.24.77.36 1.27.36zm5.48-6.57h1.63v1.29h.08c.17-.47.44-.83.82-1.08a2.4 2.4 0 011.37-.39c.99 0 1.75.36 2.3 1.08.53.71.8 1.71.8 3s-.27 2.3-.8 3.01a2.71 2.71 0 01-2.3 1.07 2.19 2.19 0 01-2.19-1.47h-.08V27h-1.63V16.2zm3.4 6.57c.57 0 1.03-.18 1.37-.54.34-.37.5-.86.5-1.46v-1.34c0-.6-.16-1.09-.5-1.45-.34-.37-.8-.55-1.37-.55-.5 0-.92.13-1.26.38-.34.24-.5.55-.5.96v2.66c0 .4.16.73.5.98.34.24.76.36 1.26.36zm5.48 1.23v-7.8h1.63v1.5h.08c.1-.4.34-.75.69-1.05.35-.3.83-.45 1.45-.45h.44v1.57h-.65c-.65 0-1.15.11-1.5.32-.34.21-.5.52-.5.93V24h-1.64zm8.72.18c-.54 0-1.03-.1-1.48-.29a3.15 3.15 0 01-1.13-.8 3.85 3.85 0 01-.72-1.3 5.34 5.34 0 01-.25-1.69c0-.62.08-1.18.25-1.68.17-.51.41-.94.72-1.29.31-.36.69-.63 1.13-.82.45-.2.94-.29 1.48-.29s1.03.1 1.47.29c.45.19.83.46 1.14.82.31.35.55.78.72 1.29.17.5.26 1.06.26 1.68 0 .62-.09 1.18-.26 1.7-.17.5-.4.93-.72 1.29-.3.34-.69.61-1.14.8-.44.2-.93.29-1.47.29zm0-1.35c.56 0 1.01-.17 1.35-.51.34-.35.51-.87.51-1.56v-1.32c0-.69-.17-1.2-.5-1.55a1.8 1.8 0 00-1.36-.52 1.8 1.8 0 00-1.35.52c-.34.34-.5.86-.5 1.55v1.32c0 .69.16 1.21.5 1.56.34.34.8.51 1.35.51zm6.99 1.17l-2.66-7.8h1.62l1.19 3.55.8 2.73h.08l.8-2.73 1.21-3.55h1.56L322.5 24h-1.92zm8.92.18c-.56 0-1.06-.1-1.5-.29a3.15 3.15 0 01-1.12-.8 3.85 3.85 0 01-.72-1.3 5.64 5.64 0 01-.24-1.69c0-.62.08-1.18.24-1.68.17-.51.4-.94.72-1.29.3-.36.68-.63 1.12-.82.44-.2.94-.29 1.5-.29.57 0 1.07.1 1.5.3.44.2.8.48 1.1.84.29.35.5.76.64 1.23.15.47.23.97.23 1.52v.61h-5.36v.25c0 .6.18 1.1.53 1.49.36.38.87.57 1.53.57.48 0 .88-.1 1.21-.31.33-.21.61-.5.84-.86l.96.95c-.29.48-.7.86-1.26 1.15-.55.28-1.19.42-1.92.42zm0-6.88a1.8 1.8 0 00-1.38.57c-.16.18-.28.39-.37.64-.1.25-.14.52-.14.82v.11h3.63v-.15c0-.6-.15-1.08-.46-1.44a1.57 1.57 0 00-1.28-.55zm8.82 6.7v-7.8h1.64v1.29h.07c.08-.2.18-.39.29-.57.12-.18.26-.34.42-.47.17-.13.36-.24.58-.31.23-.08.5-.12.8-.12.53 0 1 .13 1.4.39.42.26.72.66.9 1.2h.05c.14-.44.41-.81.81-1.13.4-.3.92-.46 1.55-.46.78 0 1.38.27 1.81.8.43.52.65 1.26.65 2.23V24h-1.64v-4.75c0-.6-.11-1.05-.34-1.36-.23-.3-.6-.46-1.1-.46a1.98 1.98 0 00-1.1.33 1.23 1.23 0 00-.48 1V24h-1.64v-4.75c0-1.21-.48-1.82-1.43-1.82a2.08 2.08 0 00-1.1.33 1.22 1.22 0 00-.5 1V24h-1.64zm16.29.18c-.54 0-1.04-.1-1.49-.29a3.15 3.15 0 01-1.12-.8 3.85 3.85 0 01-.72-1.3 5.34 5.34 0 01-.25-1.69c0-.62.08-1.18.25-1.68.17-.51.41-.94.72-1.29.31-.36.69-.63 1.13-.82.44-.2.94-.29 1.48-.29s1.03.1 1.47.29c.45.19.83.46 1.14.82.31.35.55.78.72 1.29.17.5.25 1.06.25 1.68 0 .62-.08 1.18-.25 1.7-.17.5-.41.93-.72 1.29-.31.34-.69.61-1.14.8-.44.2-.93.29-1.47.29zm0-1.35c.56 0 1.01-.17 1.35-.51.34-.35.51-.87.51-1.56v-1.32c0-.69-.17-1.2-.51-1.55a1.8 1.8 0 00-1.35-.52 1.8 1.8 0 00-1.35.52c-.34.34-.51.86-.51 1.55v1.32c0 .69.17 1.21.51 1.56.34.34.79.51 1.35.51zM360 24v-7.8h1.64v1.5h.08c.1-.4.34-.75.69-1.05.35-.3.83-.45 1.45-.45h.44v1.57h-.65c-.65 0-1.15.11-1.5.32-.34.21-.5.52-.5.93V24H360zm8.74.18c-.56 0-1.06-.1-1.5-.29a3.15 3.15 0 01-1.13-.8 3.85 3.85 0 01-.72-1.3 5.64 5.64 0 01-.24-1.69c0-.62.08-1.18.24-1.68.17-.51.41-.94.72-1.29.31-.36.69-.63 1.13-.82.44-.2.94-.29 1.5-.29.57 0 1.07.1 1.5.3.44.2.8.48 1.1.84.28.35.5.76.64 1.23.15.47.22.97.22 1.52v.61h-5.35v.25c0 .6.17 1.1.52 1.49.36.38.87.57 1.53.57.48 0 .89-.1 1.22-.31.33-.21.6-.5.84-.86l.96.95c-.3.48-.71.86-1.26 1.15-.55.28-1.2.42-1.92.42zm0-6.88a1.8 1.8 0 00-1.38.57c-.16.18-.29.39-.38.64-.09.25-.13.52-.13.82v.11h3.63v-.15c0-.6-.16-1.08-.47-1.44a1.57 1.57 0 00-1.27-.55zm11.83 6.88c-.56 0-1.06-.1-1.5-.29a3.01 3.01 0 01-1.1-.8 3.8 3.8 0 01-.7-1.3 5.64 5.64 0 01-.24-1.69c0-.62.08-1.18.24-1.68.16-.51.4-.94.7-1.29.3-.36.66-.63 1.1-.82.44-.2.94-.29 1.5-.29.78 0 1.42.18 1.92.53.5.34.87.81 1.1 1.39l-1.35.63a1.63 1.63 0 00-1.67-1.18c-.6 0-1.05.18-1.36.56-.3.38-.45.86-.45 1.46v1.4c0 .6.15 1.09.45 1.46.3.38.76.56 1.36.56.48 0 .86-.11 1.14-.34.3-.24.52-.56.7-.95l1.24.66a3.09 3.09 0 01-1.17 1.47 3.4 3.4 0 01-1.9.51zm9.36-1.47h-.06c-.07.19-.17.38-.29.55a1.8 1.8 0 01-1.06.8c-.24.08-.52.12-.84.12-.81 0-1.44-.26-1.9-.78a3.37 3.37 0 01-.65-2.23V16.2h1.63v4.75c0 1.21.5 1.82 1.5 1.82.21 0 .42-.02.62-.07.2-.06.37-.15.52-.26.16-.11.29-.25.38-.42.1-.17.15-.37.15-.6V16.2h1.63V24h-1.63v-1.29zm6.45 1.47a4 4 0 01-1.86-.39c-.5-.26-.94-.62-1.3-1.08l1.04-.96c.3.35.61.63.96.82.36.2.78.29 1.25.29.48 0 .83-.09 1.06-.27a.94.94 0 00.36-.78.86.86 0 00-.25-.63c-.16-.18-.45-.3-.86-.34l-.72-.1c-.8-.1-1.43-.32-1.89-.68-.45-.38-.67-.92-.67-1.64 0-.38.07-.72.2-1 .15-.3.34-.56.6-.76.25-.2.56-.36.9-.48.37-.1.76-.16 1.2-.16.7 0 1.26.11 1.7.33.45.22.85.52 1.2.91l-1 .96c-.2-.23-.47-.44-.8-.61a2.23 2.23 0 00-1.1-.27c-.46 0-.8.09-1.01.27a.88.88 0 00-.32.7c0 .3.1.53.29.68.19.15.5.26.91.33l.72.09c.86.13 1.49.39 1.88.77.4.37.6.87.6 1.5 0 .38-.08.72-.23 1.03-.14.3-.34.56-.61.78-.27.22-.6.39-.98.51s-.8.18-1.27.18zm7-.18c-.58 0-1-.14-1.3-.43-.29-.3-.43-.73-.43-1.27v-4.77h-1.22V16.2h.66c.27 0 .46-.06.56-.18.1-.12.16-.31.16-.58v-1.37h1.47v2.13h1.64v1.34h-1.64v5.13h1.52V24h-1.43zm6.31.18c-.54 0-1.03-.1-1.48-.29a3.15 3.15 0 01-1.13-.8 3.85 3.85 0 01-.72-1.3 5.34 5.34 0 01-.25-1.69c0-.62.08-1.18.25-1.68.17-.51.41-.94.72-1.29.31-.36.69-.63 1.13-.82.45-.2.94-.29 1.48-.29s1.03.1 1.47.29c.45.19.83.46 1.14.82.31.35.55.78.72 1.29.17.5.26 1.06.26 1.68 0 .62-.09 1.18-.26 1.7-.17.5-.4.93-.72 1.29-.3.34-.69.61-1.14.8-.44.2-.93.29-1.47.29zm0-1.35c.56 0 1.01-.17 1.35-.51.34-.35.51-.87.51-1.56v-1.32c0-.69-.17-1.2-.5-1.55a1.8 1.8 0 00-1.36-.52 1.8 1.8 0 00-1.35.52c-.34.34-.5.86-.5 1.55v1.32c0 .69.16 1.21.5 1.56.34.34.8.51 1.35.51zM415.1 24v-7.8h1.63v1.29h.08c.08-.2.18-.39.29-.57a1.74 1.74 0 011-.78c.23-.08.5-.12.8-.12.53 0 1 .13 1.4.39.41.26.71.66.9 1.2h.05c.14-.44.41-.81.81-1.13.4-.3.92-.46 1.55-.46.77 0 1.38.27 1.81.8.43.52.64 1.26.64 2.23V24h-1.63v-4.75c0-.6-.12-1.05-.35-1.36-.22-.3-.59-.46-1.09-.46a1.98 1.98 0 00-1.11.33 1.23 1.23 0 00-.48 1V24h-1.63v-4.75c0-1.21-.48-1.82-1.43-1.82a2.08 2.08 0 00-1.11.33 1.22 1.22 0 00-.5 1V24h-1.63zm16.29.18c-.56 0-1.06-.1-1.5-.29a3.15 3.15 0 01-1.13-.8 3.85 3.85 0 01-.72-1.3 5.64 5.64 0 01-.24-1.69c0-.62.08-1.18.24-1.68.17-.51.41-.94.72-1.29.31-.36.69-.63 1.13-.82.44-.2.94-.29 1.5-.29.57 0 1.07.1 1.5.3.44.2.8.48 1.1.84.28.35.5.76.64 1.23.15.47.22.97.22 1.52v.61h-5.35v.25c0 .6.17 1.1.52 1.49.36.38.87.57 1.53.57.48 0 .89-.1 1.22-.31.33-.21.6-.5.84-.86l.96.95c-.3.48-.71.86-1.26 1.15-.55.28-1.2.42-1.92.42zm0-6.88a1.8 1.8 0 00-1.38.57c-.16.18-.29.39-.38.64-.09.25-.13.52-.13.82v.11h3.63v-.15c0-.6-.16-1.08-.47-1.44a1.57 1.57 0 00-1.27-.55zm5.27 6.7v-7.8h1.64v1.5h.07c.11-.4.34-.75.7-1.05.34-.3.83-.45 1.45-.45h.43v1.57h-.64c-.65 0-1.15.11-1.5.32-.34.21-.51.52-.51.93V24h-1.64zm8.22.18a4 4 0 01-1.86-.39c-.5-.26-.94-.62-1.3-1.08l1.04-.96c.3.35.61.63.96.82.36.2.78.29 1.25.29.48 0 .83-.09 1.06-.27a.94.94 0 00.36-.78.86.86 0 00-.25-.63c-.16-.18-.45-.3-.86-.34l-.72-.1c-.8-.1-1.43-.32-1.89-.68-.45-.38-.67-.92-.67-1.64 0-.38.07-.72.2-1 .15-.3.34-.56.6-.76.25-.2.56-.36.9-.48.37-.1.76-.16 1.2-.16.7 0 1.26.11 1.7.33.45.22.85.52 1.2.91l-1 .96c-.2-.23-.47-.44-.8-.61a2.23 2.23 0 00-1.1-.27c-.46 0-.8.09-1.01.27a.88.88 0 00-.32.7c0 .3.1.53.29.68.19.15.5.26.91.33l.72.09c.86.13 1.49.39 1.88.77.4.37.6.87.6 1.5 0 .38-.08.72-.23 1.03-.14.3-.34.56-.61.78-.27.22-.6.39-.98.51s-.8.18-1.27.18zM278.98 51h-1.69V40.53h4.51c.94 0 1.69.28 2.22.85.55.56.81 1.33.81 2.3a3.2 3.2 0 01-.52 1.88c-.34.48-.85.83-1.51 1.03l2.26 4.41h-1.89l-2.1-4.23h-2.08V51zm2.7-5.66c.44 0 .77-.1 1.01-.33s.36-.55.36-.97v-.72c0-.42-.12-.74-.36-.96a1.4 1.4 0 00-1-.34h-2.7v3.32h2.7zm8.16 5.84c-.56 0-1.06-.1-1.5-.28a3.15 3.15 0 01-1.13-.81 3.85 3.85 0 01-.72-1.3 5.64 5.64 0 01-.24-1.69c0-.62.08-1.18.24-1.68.17-.51.41-.94.72-1.29.31-.36.69-.64 1.13-.83.44-.18.94-.28 1.5-.28.57 0 1.07.1 1.5.3.44.2.8.48 1.1.84.28.35.5.76.64 1.23.15.47.22.98.22 1.52v.61h-5.35v.25c0 .6.17 1.1.52 1.49.36.38.87.57 1.53.57.48 0 .89-.1 1.22-.31.33-.22.6-.5.84-.86l.96.95c-.3.48-.71.86-1.26 1.15-.55.28-1.2.42-1.92.42zm0-6.88a1.8 1.8 0 00-1.38.57c-.16.17-.29.39-.38.64-.09.25-.13.52-.13.83v.1h3.63v-.15c0-.6-.16-1.08-.47-1.44a1.57 1.57 0 00-1.27-.55zm10.18 5.41h-.08c-.17.46-.45.82-.84 1.08-.38.26-.83.39-1.35.39-.99 0-1.75-.35-2.3-1.06a4.93 4.93 0 01-.8-3.02c0-1.29.27-2.29.8-3a2.7 2.7 0 012.3-1.08c.52 0 .97.13 1.35.39.4.25.67.61.84 1.08h.08V39.9h1.63V51h-1.63v-1.29zm-1.77.06c.5 0 .92-.12 1.26-.36.34-.25.5-.57.5-.97v-2.67c0-.4-.16-.73-.5-.97a2.07 2.07 0 00-1.26-.37c-.57 0-1.03.19-1.37.55-.34.37-.5.85-.5 1.45v1.34c0 .6.16 1.09.5 1.46.34.36.8.54 1.37.54zm10.47-.06h-.06c-.07.19-.17.38-.29.55a1.8 1.8 0 01-1.06.8c-.24.08-.52.12-.84.12-.81 0-1.44-.26-1.9-.78a3.37 3.37 0 01-.65-2.23V43.2h1.63v4.75c0 1.21.5 1.82 1.5 1.82.21 0 .42-.03.62-.08s.37-.14.52-.25c.16-.11.29-.25.38-.42.1-.17.15-.37.15-.6V43.2h1.63V51h-1.63v-1.29zm6.99 1.47c-.56 0-1.06-.1-1.5-.28a3.01 3.01 0 01-1.11-.81 3.8 3.8 0 01-.7-1.3 5.64 5.64 0 01-.23-1.69c0-.62.08-1.18.24-1.68.16-.51.39-.94.69-1.29.3-.36.67-.64 1.1-.83.45-.18.95-.28 1.5-.28.79 0 1.43.17 1.93.52.5.36.86.82 1.1 1.4l-1.36.63a1.63 1.63 0 00-1.66-1.19c-.6 0-1.06.2-1.37.57-.3.38-.45.86-.45 1.46v1.4c0 .6.15 1.09.45 1.46.31.38.77.56 1.37.56.48 0 .86-.11 1.14-.34.29-.25.52-.56.69-.95l1.24.66a3.09 3.09 0 01-1.17 1.47 3.4 3.4 0 01-1.9.51zm7.6 0c-.56 0-1.06-.1-1.5-.28a3.15 3.15 0 01-1.12-.81 3.85 3.85 0 01-.72-1.3 5.64 5.64 0 01-.24-1.69c0-.62.08-1.18.24-1.68.17-.51.4-.94.72-1.29.3-.36.68-.64 1.12-.83.44-.18.94-.28 1.5-.28.57 0 1.07.1 1.5.3.44.2.8.48 1.1.84.29.35.5.76.64 1.23.15.47.23.98.23 1.52v.61h-5.36v.25c0 .6.18 1.1.53 1.49.36.38.87.57 1.53.57.48 0 .88-.1 1.21-.31.33-.22.61-.5.84-.86l.96.95c-.29.48-.7.86-1.26 1.15-.55.28-1.19.42-1.92.42zm0-6.88a1.8 1.8 0 00-1.38.57c-.16.17-.28.39-.37.64-.1.25-.14.52-.14.83v.1h3.63v-.15c0-.6-.15-1.08-.46-1.44a1.57 1.57 0 00-1.28-.55zm13.73 5.41h-.08c-.17.46-.45.82-.84 1.08-.38.26-.83.39-1.35.39-.99 0-1.75-.35-2.3-1.06a4.93 4.93 0 01-.8-3.02c0-1.29.27-2.29.8-3a2.7 2.7 0 012.3-1.08c.52 0 .97.13 1.35.39.4.25.67.61.84 1.08h.08V39.9h1.63V51h-1.63v-1.29zm-1.77.06c.5 0 .92-.12 1.26-.36.34-.25.5-.57.5-.97v-2.67c0-.4-.16-.73-.5-.97a2.07 2.07 0 00-1.26-.37c-.57 0-1.03.19-1.37.55-.34.37-.5.85-.5 1.45v1.34c0 .6.16 1.09.5 1.46.34.36.8.54 1.37.54zm8.8 1.41c-.56 0-1.06-.1-1.5-.28a3.15 3.15 0 01-1.13-.81 3.85 3.85 0 01-.72-1.3 5.64 5.64 0 01-.24-1.69c0-.62.08-1.18.24-1.68.17-.51.41-.94.72-1.29.31-.36.69-.64 1.13-.83.44-.18.94-.28 1.5-.28.57 0 1.07.1 1.5.3.44.2.8.48 1.1.84.28.35.5.76.64 1.23.15.47.22.98.22 1.52v.61h-5.35v.25c0 .6.17 1.1.52 1.49.36.38.87.57 1.53.57.48 0 .89-.1 1.22-.31.33-.22.6-.5.84-.86l.96.95c-.3.48-.71.86-1.26 1.15-.55.28-1.2.42-1.92.42zm0-6.88a1.8 1.8 0 00-1.38.57c-.16.17-.29.39-.38.64-.09.25-.13.52-.13.83v.1h3.63v-.15c0-.6-.16-1.08-.47-1.44a1.57 1.57 0 00-1.27-.55zm5.68.23h-1.19V43.2h1.19v-1.29c0-.63.16-1.12.5-1.47.32-.36.82-.54 1.48-.54h1.29v1.34h-1.64v1.96h1.64v1.33h-1.64V51h-1.63v-6.47zm10.4 6.47c-.42 0-.75-.12-.98-.36a1.68 1.68 0 01-.42-.95h-.08c-.15.5-.42.87-.82 1.12-.4.24-.89.37-1.46.37-.8 0-1.43-.21-1.87-.63a2.26 2.26 0 01-.65-1.7c0-.77.28-1.36.84-1.75a4.4 4.4 0 012.5-.59h1.4v-.66c0-.48-.13-.84-.39-1.1-.26-.27-.66-.4-1.21-.4-.46 0-.84.1-1.13.3-.29.2-.53.46-.73.77l-.98-.89c.26-.44.63-.8 1.1-1.08a3.48 3.48 0 011.84-.43c1.01 0 1.79.23 2.33.7.54.48.8 1.15.8 2.03v3.91h.83V51h-.91zm-3.3-1.06c.52 0 .94-.11 1.27-.34.33-.23.5-.53.5-.91v-1.13h-1.39c-1.13 0-1.7.35-1.7 1.05v.27c0 .35.12.62.35.8.24.17.57.26.98.26zm10.55-.23h-.06c-.07.19-.17.38-.29.55a1.8 1.8 0 01-1.06.8c-.24.08-.52.12-.84.12-.81 0-1.44-.26-1.9-.78a3.37 3.37 0 01-.65-2.23V43.2h1.63v4.75c0 1.21.5 1.82 1.5 1.82.21 0 .42-.03.62-.08s.37-.14.52-.25c.16-.11.29-.25.38-.42.1-.17.15-.37.15-.6V43.2h1.63V51h-1.63v-1.29zm5.64 1.29c-.56 0-.98-.14-1.26-.42a1.7 1.7 0 01-.4-1.2V39.9H373v9.77h1.08V51h-1.05zm4.7 0c-.57 0-1-.15-1.3-.44-.28-.3-.43-.72-.43-1.26v-4.77h-1.21V43.2h.66c.27 0 .45-.06.55-.18.11-.12.17-.32.17-.59v-1.36h1.47v2.13h1.63v1.33h-1.63v5.13h1.51V51h-1.42zm6.86 0v-7.8h1.64v1.5h.07c.11-.4.34-.75.7-1.05.34-.3.83-.45 1.45-.45h.43v1.57h-.64c-.65 0-1.15.11-1.5.32-.34.21-.51.52-.51.93V51h-1.64zm11.34 0c-.43 0-.76-.12-.99-.36a1.68 1.68 0 01-.42-.95h-.07c-.15.5-.43.87-.83 1.12-.4.24-.88.37-1.45.37-.81 0-1.44-.21-1.88-.63a2.26 2.26 0 01-.64-1.7c0-.77.28-1.36.84-1.75a4.4 4.4 0 012.49-.59h1.4v-.66c0-.48-.12-.84-.38-1.1-.26-.27-.67-.4-1.22-.4-.46 0-.83.1-1.12.3-.3.2-.54.46-.74.77l-.97-.89c.26-.44.62-.8 1.1-1.08a3.48 3.48 0 011.84-.43c1 0 1.78.23 2.32.7.54.48.81 1.15.81 2.03v3.91h.83V51h-.92zm-3.3-1.06c.51 0 .93-.11 1.26-.34.33-.23.5-.53.5-.91v-1.13h-1.38c-1.13 0-1.7.35-1.7 1.05v.27c0 .35.12.62.35.8.24.17.56.26.97.26zm7.94 1.06c-.57 0-1-.15-1.3-.44-.28-.3-.43-.72-.43-1.26v-4.77h-1.22V43.2h.67c.26 0 .45-.06.55-.18.11-.12.16-.32.16-.59v-1.36h1.48v2.13h1.63v1.33h-1.63v5.13H402V51h-1.43zm6.31.18c-.56 0-1.06-.1-1.5-.28a3.15 3.15 0 01-1.12-.81 3.85 3.85 0 01-.72-1.3 5.64 5.64 0 01-.24-1.69c0-.62.08-1.18.24-1.68.17-.51.41-.94.72-1.29.31-.36.69-.64 1.13-.83.44-.18.94-.28 1.5-.28s1.06.1 1.5.3c.44.2.8.48 1.09.84.29.35.5.76.64 1.23.16.47.23.98.23 1.52v.61H405v.25c0 .6.18 1.1.53 1.49.36.38.87.57 1.53.57.48 0 .88-.1 1.21-.31.34-.22.62-.5.85-.86l.95.95c-.28.48-.7.86-1.25 1.15-.56.28-1.2.42-1.93.42zm0-6.88a1.8 1.8 0 00-1.38.57c-.15.17-.28.39-.37.64-.09.25-.13.52-.13.83v.1h3.63v-.15c0-.6-.16-1.08-.47-1.44a1.57 1.57 0 00-1.28-.55zm7.75 6.88a4 4 0 01-1.85-.39c-.5-.26-.94-.62-1.31-1.08l1.05-.96c.29.35.61.63.96.83.36.19.77.28 1.25.28.47 0 .83-.09 1.06-.27a.94.94 0 00.36-.78.86.86 0 00-.26-.63c-.15-.18-.44-.3-.85-.34l-.72-.1c-.8-.1-1.43-.33-1.89-.69-.45-.36-.68-.91-.68-1.63 0-.38.07-.72.22-1 .13-.3.33-.55.58-.76.26-.2.56-.36.92-.47.35-.11.75-.17 1.18-.17.7 0 1.27.11 1.71.33.45.22.85.52 1.2.91l-1 .97c-.2-.24-.47-.45-.8-.62a2.23 2.23 0 00-1.11-.27c-.45 0-.79.09-1 .27a.88.88 0 00-.32.7c0 .3.1.53.29.68.19.15.49.26.91.33l.72.09c.86.13 1.49.39 1.88.77.4.37.6.87.6 1.5 0 .38-.08.72-.23 1.03-.14.3-.34.56-.62.78-.26.22-.59.39-.97.51s-.8.18-1.28.18zM277.3 78V67.53h4.5c.97 0 1.72.28 2.25.86.53.56.8 1.33.8 2.29s-.27 1.72-.8 2.3c-.53.56-1.28.85-2.25.85h-2.8V78h-1.7zm1.7-5.66h2.7c.43 0 .76-.1 1-.33s.36-.55.36-.97v-.72c0-.42-.12-.74-.36-.96a1.4 1.4 0 00-1-.34h-2.7v3.33zm7.44 5.66v-7.8h1.63v1.5h.08c.1-.4.34-.75.69-1.05.35-.3.83-.45 1.45-.45h.44v1.58h-.65c-.65 0-1.15.1-1.5.31-.34.21-.5.52-.5.93V78h-1.64zm6.56-9.2c-.34 0-.59-.08-.75-.23a.86.86 0 01-.22-.62v-.26c0-.25.08-.45.23-.61.15-.16.4-.24.75-.24.33 0 .58.08.73.24.15.16.22.36.22.61v.26c0 .25-.07.45-.22.61-.15.16-.4.25-.74.25zm-.82 1.4h1.63V78h-1.63v-7.8zm6.98 7.98c-.55 0-1.05-.1-1.5-.29a3.01 3.01 0 01-1.1-.8 3.8 3.8 0 01-.7-1.3 5.64 5.64 0 01-.24-1.69c0-.62.08-1.18.25-1.68.15-.51.38-.94.69-1.29.3-.36.66-.63 1.1-.82.45-.2.95-.29 1.5-.29.79 0 1.43.17 1.93.53.5.34.86.81 1.09 1.39l-1.35.63a1.63 1.63 0 00-1.67-1.18c-.6 0-1.05.19-1.36.56-.3.38-.45.86-.45 1.46v1.4c0 .6.15 1.08.45 1.47.31.36.76.55 1.36.55.49 0 .87-.11 1.15-.34.28-.24.51-.56.69-.95l1.24.66a3.09 3.09 0 01-1.17 1.47 3.4 3.4 0 01-1.9.51zm7.6 0c-.55 0-1.05-.1-1.5-.29a3.15 3.15 0 01-1.12-.8 3.85 3.85 0 01-.72-1.3 5.64 5.64 0 01-.24-1.69c0-.62.08-1.18.24-1.68.17-.51.41-.94.72-1.29.31-.36.69-.63 1.13-.82.44-.2.94-.29 1.5-.29.57 0 1.07.1 1.5.3.44.2.8.48 1.1.84.28.35.5.76.64 1.23.15.47.22.97.22 1.52v.61h-5.35v.26c0 .6.17 1.09.52 1.48.36.38.87.57 1.53.57.48 0 .89-.1 1.22-.31.33-.21.6-.5.84-.86l.96.95c-.3.47-.71.86-1.26 1.15-.55.28-1.2.42-1.92.42zm0-6.89a1.8 1.8 0 00-1.38.57c-.15.19-.28.4-.37.65-.09.25-.13.52-.13.82v.11h3.63v-.15c0-.6-.16-1.08-.47-1.44a1.57 1.57 0 00-1.27-.55zm8.83 6.71v-7.8h1.63v1.5h.08c.1-.4.34-.75.69-1.05.35-.3.83-.45 1.45-.45h.44v1.58h-.65c-.65 0-1.15.1-1.5.31-.34.21-.5.52-.5.93V78h-1.64zm6.56-9.2c-.33 0-.58-.08-.75-.23a.86.86 0 01-.22-.62v-.26c0-.25.07-.45.22-.61.17-.16.42-.24.75-.24.35 0 .59.08.74.24.15.16.23.36.23.61v.26c0 .25-.08.45-.23.61-.15.16-.4.25-.74.25zm-.82 1.4h1.63V78h-1.63v-7.8zm6.44 7.98a4 4 0 01-1.86-.39c-.5-.26-.93-.62-1.3-1.08l1.05-.96c.29.35.61.63.96.83.36.19.77.28 1.25.28.47 0 .83-.09 1.06-.27a.94.94 0 00.36-.78.86.86 0 00-.25-.63c-.16-.18-.45-.3-.86-.35l-.72-.08c-.8-.1-1.43-.33-1.89-.7-.45-.36-.68-.91-.68-1.63 0-.38.07-.72.22-1 .13-.3.33-.56.58-.75.26-.22.56-.38.92-.48.35-.11.75-.17 1.18-.17.7 0 1.27.11 1.71.33.45.22.85.53 1.2.92l-1 .95c-.2-.23-.47-.44-.8-.61a2.23 2.23 0 00-1.11-.27c-.45 0-.78.09-1 .27a.88.88 0 00-.32.7c0 .3.1.53.29.68.19.15.49.26.91.33l.72.09c.86.13 1.49.39 1.88.77.4.36.6.86.6 1.5 0 .38-.08.72-.23 1.03-.14.3-.34.56-.62.78-.26.22-.59.39-.97.51s-.8.18-1.28.18zm4.94-11.28h1.64v6.81h.07l1.08-1.4 1.88-2.11h1.9l-2.73 3.02L339.6 78h-1.95l-2.23-3.72-1.08 1.17V78h-1.64V66.9zM344.45 78v-7.8h1.63v1.29h.08c.08-.2.17-.39.28-.57.13-.18.26-.34.43-.47.17-.14.36-.24.58-.31.23-.08.5-.12.8-.12.52 0 1 .13 1.4.39.42.26.72.66.9 1.2h.05c.14-.44.41-.81.81-1.13.4-.3.91-.46 1.54-.46.79 0 1.39.27 1.82.8.43.52.65 1.26.65 2.23V78h-1.64v-4.75c0-.6-.11-1.06-.34-1.36-.24-.3-.6-.46-1.1-.46a1.98 1.98 0 00-1.11.33 1.23 1.23 0 00-.48 1V78h-1.63v-4.75c0-1.22-.48-1.82-1.43-1.82a2.08 2.08 0 00-1.11.33 1.22 1.22 0 00-.5 1V78h-1.63zm16.29.18c-.54 0-1.04-.1-1.49-.29a3.15 3.15 0 01-1.12-.8 3.85 3.85 0 01-.72-1.3 5.34 5.34 0 01-.26-1.69c0-.62.09-1.18.26-1.68.17-.51.4-.94.72-1.29.3-.36.68-.63 1.12-.82.45-.2.95-.29 1.49-.29s1.03.1 1.47.29c.45.19.83.46 1.14.82.3.35.55.78.72 1.29.17.5.25 1.06.25 1.68 0 .62-.08 1.19-.25 1.7-.17.5-.41.92-.72 1.28s-.7.63-1.14.81c-.44.2-.93.29-1.47.29zm0-1.35c.56 0 1-.17 1.35-.51.34-.35.5-.87.5-1.56v-1.32c0-.69-.16-1.2-.5-1.55a1.8 1.8 0 00-1.35-.52 1.8 1.8 0 00-1.35.52c-.34.34-.51.86-.51 1.55v1.32c0 .69.17 1.21.5 1.56.35.34.8.51 1.36.51zm5.4 1.17v-7.8h1.64v1.5h.08c.1-.4.33-.75.69-1.05.34-.3.83-.45 1.45-.45h.44v1.58h-.65c-.65 0-1.15.1-1.5.31-.34.21-.51.52-.51.93V78h-1.63zm8.73.18c-.56 0-1.06-.1-1.5-.29a3.15 3.15 0 01-1.12-.8 3.85 3.85 0 01-.72-1.3 5.64 5.64 0 01-.24-1.69c0-.62.08-1.18.24-1.68.17-.51.4-.94.72-1.29.3-.36.68-.63 1.12-.82.44-.2.94-.29 1.5-.29.57 0 1.07.1 1.5.3.44.2.8.48 1.1.84.29.35.5.76.64 1.23.15.47.23.97.23 1.52v.61h-5.36v.26c0 .6.18 1.09.53 1.48.36.38.87.57 1.53.57.48 0 .88-.1 1.21-.31.33-.21.61-.5.84-.86l.96.95c-.29.47-.7.86-1.26 1.15-.55.28-1.19.42-1.92.42zm0-6.89a1.8 1.8 0 00-1.38.57c-.16.19-.28.4-.37.65-.1.25-.14.52-.14.82v.11h3.63v-.15c0-.6-.15-1.08-.46-1.44a1.57 1.57 0 00-1.28-.55zm11.88 6.89c-.56 0-1.06-.1-1.5-.29a3.15 3.15 0 01-1.12-.8 3.85 3.85 0 01-.72-1.3 5.64 5.64 0 01-.24-1.69c0-.62.08-1.18.24-1.68.17-.51.4-.94.72-1.29.3-.36.68-.63 1.12-.82.44-.2.94-.29 1.5-.29.57 0 1.07.1 1.5.3.44.2.8.48 1.1.84.29.35.5.76.64 1.23.15.47.23.97.23 1.52v.61h-5.36v.26c0 .6.18 1.09.53 1.48.36.38.87.57 1.53.57.48 0 .88-.1 1.21-.31.33-.21.61-.5.84-.86l.96.95c-.29.47-.7.86-1.26 1.15-.55.28-1.19.42-1.92.42zm0-6.89a1.8 1.8 0 00-1.38.57c-.16.19-.28.4-.37.65-.1.25-.14.52-.14.82v.11h3.63v-.15c0-.6-.15-1.08-.46-1.44a1.57 1.57 0 00-1.28-.55zm5.68.24h-1.18V70.2h1.18v-1.29c0-.63.17-1.12.5-1.47.33-.36.82-.54 1.48-.54h1.3v1.33h-1.64v1.97h1.63v1.33h-1.63V78h-1.64v-6.47zm5.13 0h-1.19V70.2h1.19v-1.29c0-.63.17-1.12.5-1.47.32-.36.82-.54 1.48-.54h1.29v1.33h-1.63v1.97h1.63v1.33h-1.63V78h-1.64v-6.47zm7.7 6.65c-.57 0-1.07-.1-1.5-.29a3.15 3.15 0 01-1.13-.8 3.85 3.85 0 01-.72-1.3 5.64 5.64 0 01-.24-1.69c0-.62.08-1.18.24-1.68.17-.51.4-.94.72-1.29.3-.36.68-.63 1.12-.82.44-.2.94-.29 1.5-.29.57 0 1.07.1 1.5.3.44.2.8.48 1.1.84.29.35.5.76.64 1.23.15.47.23.97.23 1.52v.61h-5.36v.26c0 .6.18 1.09.53 1.48.36.38.87.57 1.53.57.48 0 .88-.1 1.21-.31.33-.21.61-.5.84-.86l.96.95c-.29.47-.7.86-1.26 1.15-.55.28-1.19.42-1.92.42zm0-6.89a1.8 1.8 0 00-1.38.57c-.17.19-.3.4-.38.65-.1.25-.14.52-.14.82v.11H407v-.15c0-.6-.15-1.08-.46-1.44a1.57 1.57 0 00-1.28-.55zm8.28 6.89c-.56 0-1.06-.1-1.5-.29a3.01 3.01 0 01-1.1-.8 3.8 3.8 0 01-.7-1.3 5.64 5.64 0 01-.24-1.69c0-.62.08-1.18.24-1.68.16-.51.4-.94.7-1.29.3-.36.66-.63 1.1-.82.44-.2.94-.29 1.5-.29.78 0 1.42.17 1.92.53.5.34.87.81 1.1 1.39l-1.35.63a1.63 1.63 0 00-1.67-1.18c-.6 0-1.05.19-1.36.56-.3.38-.45.86-.45 1.46v1.4c0 .6.15 1.08.45 1.47.3.36.76.55 1.36.55.48 0 .86-.11 1.14-.34.3-.24.52-.56.7-.95l1.24.66a3.09 3.09 0 01-1.17 1.47 3.4 3.4 0 01-1.9.51zm6.8-.18c-.57 0-1-.14-1.3-.44-.28-.3-.43-.72-.43-1.25v-4.78h-1.21V70.2h.66c.27 0 .45-.06.55-.18.11-.12.17-.31.17-.58v-1.37h1.47v2.13h1.63v1.33h-1.63v5.14h1.51V78h-1.42zm4.14-9.2c-.34 0-.6-.08-.75-.23a.86.86 0 01-.23-.62v-.26c0-.25.08-.45.23-.61.16-.16.4-.24.75-.24.34 0 .58.08.73.24.15.16.23.36.23.61v.26c0 .25-.08.45-.23.61-.15.16-.4.25-.73.25zm-.83 1.4h1.64V78h-1.64v-7.8zm5.67 7.8l-2.66-7.8h1.62l1.19 3.55.8 2.73h.08l.8-2.73 1.21-3.55h1.56l-2.68 7.8h-1.92zm8.92.18c-.56 0-1.06-.1-1.5-.29a3.15 3.15 0 01-1.12-.8 3.85 3.85 0 01-.72-1.3 5.64 5.64 0 01-.24-1.69c0-.62.08-1.18.24-1.68.17-.51.4-.94.72-1.29.3-.36.68-.63 1.12-.82.44-.2.94-.29 1.5-.29.57 0 1.07.1 1.5.3.44.2.8.48 1.1.84.29.35.5.76.64 1.23.15.47.23.97.23 1.52v.61h-5.36v.26c0 .6.18 1.09.53 1.48.36.38.87.57 1.53.57.48 0 .88-.1 1.21-.31.33-.21.61-.5.84-.86l.96.95c-.29.47-.7.86-1.26 1.15-.55.28-1.19.42-1.92.42zm0-6.89a1.8 1.8 0 00-1.38.57c-.16.19-.28.4-.37.65-.1.25-.14.52-.14.82v.11h3.63v-.15c0-.6-.15-1.08-.46-1.44a1.57 1.57 0 00-1.28-.55zm6.94 6.71c-.56 0-.98-.14-1.26-.42a1.7 1.7 0 01-.4-1.2V66.9h1.63v9.77h1.08V78h-1.05zm7.28-7.8h1.58l-3.29 9.34c-.09.27-.2.48-.31.66-.11.2-.25.34-.4.45-.16.13-.34.21-.56.26-.22.06-.48.09-.78.09h-.95v-1.33h1.32l.45-1.33-2.83-8.14h1.63l1.56 4.59.45 1.7h.08l.5-1.7 1.55-4.59z" fill="#080808"/></svg>