<svg width="120" height="600" viewBox="0 0 120 600" fill="none" xmlns="http://www.w3.org/2000/svg"><path d="M48.1 206.76a7.47 7.47 0 01-5.82-2.48l2.2-2.22a5 5 0 003.85 1.76c1.63 0 2.42-.73 2.42-1.85 0-.84-.35-1.45-1.78-1.65l-1.52-.2c-3.24-.42-4.71-2-4.71-4.58 0-2.75 2.16-4.66 5.76-4.66 2.31 0 4.07.77 5.33 2.16l-2.22 2.24a4.01 4.01 0 00-3.3-1.45c-1.5 0-2.23.57-2.23 1.5 0 1.05.55 1.45 1.83 1.64l1.52.25c3.14.5 4.66 1.91 4.66 4.55 0 2.95-2.15 5-5.98 5zm12.97 0c-3.55 0-5.55-2.35-5.55-6.05 0-3.65 1.94-6.02 5.41-6.02 3.83 0 5.37 2.77 5.37 5.9v.96H58.9v.18c0 1.51.81 2.48 2.55 2.48 1.36 0 2.11-.64 2.84-1.38l1.63 2.02c-1.04 1.19-2.73 1.91-4.84 1.91zm-.07-9.68c-1.3 0-2.11.95-2.11 2.38v.18h4.05v-.2c0-1.41-.64-2.36-1.94-2.36zm11.98 9.68c-3.54 0-5.54-2.35-5.54-6.05 0-3.65 1.93-6.02 5.4-6.02 3.84 0 5.38 2.77 5.38 5.9v.96H70.8v.18c0 1.51.82 2.48 2.55 2.48 1.37 0 2.12-.64 2.84-1.38l1.63 2.02c-1.03 1.19-2.73 1.91-4.84 1.91zm-.07-9.68c-1.3 0-2.1.95-2.1 2.38v.18h4.04v-.2c0-1.41-.64-2.36-1.94-2.36zm-46.2 40.42h-3.35v-15.36h10.19v2.97H26.7v3.15h5.83v2.95H26.7v6.29zm10.53-12.78c-1.32 0-1.9-.68-1.9-1.6v-.5c0-.92.58-1.6 1.9-1.6 1.32 0 1.9.68 1.9 1.6v.5c0 .92-.58 1.6-1.9 1.6zm-1.63 12.78v-11.55h3.26v11.55H35.6zm9.11 0h-3.25v-11.55h3.25v1.96h.14a3.15 3.15 0 013.2-2.22c2.36 0 3.62 1.67 3.62 4.57v7.24h-3.26v-6.97c0-1.48-.42-2.2-1.6-2.2-1.06 0-2.1.55-2.1 1.69v7.48zm14.23.26c-3.54 0-5.54-2.35-5.54-6.05 0-3.65 1.93-6.02 5.4-6.02 3.84 0 5.38 2.77 5.38 5.9v.96h-7.42v.18c0 1.51.82 2.48 2.55 2.48 1.37 0 2.12-.64 2.84-1.38l1.63 2.02c-1.03 1.19-2.73 1.91-4.84 1.91zm-.07-9.68c-1.3 0-2.1.95-2.1 2.38v.18h4.04v-.2c0-1.41-.64-2.36-1.94-2.36zm9.09 9.42h-3.39l3.8-5.87-3.76-5.68h3.7l2.16 3.63h.08l2.1-3.63h3.43l-3.83 5.79 3.85 5.76h-3.7l-2.22-3.76h-.09l-2.13 3.76zm13.95.26c-3.4 0-5.42-2.33-5.42-6.05 0-3.71 2.03-6.02 5.42-6.02 3.38 0 5.4 2.3 5.4 6.02 0 3.72-2.02 6.05-5.4 6.05zm0-2.57c1.27 0 2.02-.84 2.02-2.29v-2.35c0-1.45-.75-2.29-2.02-2.29-1.28 0-2.03.84-2.03 2.29v2.35c0 1.45.75 2.29 2.03 2.29zm11.2 2.57a6.03 6.03 0 01-4.86-2.06l1.92-1.94c.8.9 1.8 1.47 3.05 1.47 1.28 0 1.72-.41 1.72-1.1 0-.57-.35-.85-1.17-.96l-1.25-.16c-2.62-.33-3.9-1.47-3.9-3.56 0-2.22 1.74-3.76 4.5-3.76 2.41 0 3.54.66 4.7 1.8l-1.87 1.91a3.86 3.86 0 00-2.66-1.18c-1.1 0-1.54.4-1.54.96 0 .62.26.95 1.2 1.08l1.3.18c2.52.33 3.81 1.47 3.81 3.47 0 2.23-1.98 3.85-4.95 3.85zm-72.58 17.96c-1.32 0-1.9-.68-1.9-1.6v-.5c0-.92.58-1.6 1.9-1.6 1.32 0 1.9.68 1.9 1.6v.5c0 .92-.58 1.6-1.9 1.6zm-1.63 12.78v-11.55h3.26v11.55H18.9zm9.11 0h-3.25v-11.55h3.25v1.96h.14a3.15 3.15 0 013.2-2.22c2.36 0 3.62 1.67 3.62 4.57v7.24h-3.26v-6.97c0-1.48-.42-2.2-1.6-2.2-1.06 0-2.1.55-2.1 1.69v7.48zm24.51 0h-1.8c-1.17 0-2-.8-2.2-2.02h-.13c-.36 1.5-1.63 2.28-3.4 2.28-2.3 0-3.58-1.36-3.58-3.36 0-2.44 1.9-3.61 4.95-3.61h1.83v-.73c0-1.12-.55-1.82-1.92-1.82-1.3 0-1.98.66-2.48 1.36l-1.94-1.71c.93-1.37 2.25-2.2 4.67-2.2 3.25 0 4.92 1.5 4.92 4.22v5.06h1.08v2.53zm-6.31-2c1.08 0 1.98-.44 1.98-1.5v-1.36H46.6c-1.25 0-1.91.46-1.91 1.3v.33c0 .83.55 1.23 1.52 1.23zm12.72 2.26c-3.47 0-5.39-2.35-5.39-6.05 0-3.7 1.92-6.02 5.4-6.02 2.32 0 3.93 1.12 4.61 3.01l-2.64 1.14a1.91 1.91 0 00-1.98-1.58c-1.32 0-2 .95-2 2.4v2.15c0 1.46.68 2.38 2 2.38 1.3 0 1.83-.8 2.16-1.72l2.53 1.1c-.77 2.2-2.42 3.2-4.69 3.2zm12.25-.26h-1.94c-2.24 0-3.43-1.17-3.43-3.37v-5.65h-1.63v-2.53H65c.89 0 1.15-.44 1.15-1.23v-1.9h2.92v3.13h2.3v2.53h-2.3v6.49h2.12v2.53zm3.62-12.78c-1.32 0-1.89-.68-1.89-1.6v-.5c0-.92.57-1.6 1.9-1.6 1.31 0 1.88.68 1.88 1.6v.5c0 .92-.57 1.6-1.89 1.6zm-1.63 12.78v-11.55h3.26v11.55h-3.26zm10.55.26c-3.4 0-5.42-2.33-5.42-6.05 0-3.71 2.03-6.02 5.42-6.02 3.38 0 5.4 2.3 5.4 6.02 0 3.72-2.02 6.05-5.4 6.05zm0-2.57c1.27 0 2.02-.84 2.02-2.29v-2.35c0-1.45-.75-2.29-2.02-2.29-1.28 0-2.03.84-2.03 2.29v2.35c0 1.45.75 2.29 2.03 2.29zm10.54 2.31h-3.25v-11.55h3.25v1.96h.14a3.15 3.15 0 013.2-2.22c2.36 0 3.62 1.67 3.62 4.57v7.24h-3.26v-6.97c0-1.48-.42-2.2-1.6-2.2-1.06 0-2.1.55-2.1 1.69v7.48z" fill="#fff"/><path d="M30.12 292.5v-10.47h6.24v1.11h-4.98v3.51h4.55v1.11h-4.55v4.74h-1.26zm7.97 0v-7.74h1.2v1.43h.07c.14-.38.4-.7.75-1a2.3 2.3 0 011.49-.43h.46v1.2h-.7a2.7 2.7 0 00-1.53.38c-.36.24-.54.54-.54.91v5.25h-1.2zm8.34.18a3.22 3.22 0 01-2.54-1.1c-.3-.35-.53-.78-.7-1.27a5.5 5.5 0 01-.24-1.68c0-.61.08-1.17.24-1.67.17-.5.4-.92.7-1.27a3.14 3.14 0 012.54-1.11 3.05 3.05 0 012.45 1.08c.29.33.5.72.66 1.19.16.45.24.96.24 1.51v.57H44.2v.36c0 .33.05.64.15.93a2.15 2.15 0 001.17 1.23c.3.12.62.18.98.18a2.25 2.25 0 002.13-1.33l.85.61c-.25.53-.64.96-1.17 1.29-.53.32-1.16.48-1.89.48zm0-7.1a2.2 2.2 0 00-1.6.67 2.52 2.52 0 00-.61 1.68v.1h4.27v-.16c0-.7-.2-1.25-.57-1.66a1.88 1.88 0 00-1.49-.63zm8.23 7.1a3.22 3.22 0 01-2.53-1.1c-.3-.35-.54-.78-.7-1.27a5.5 5.5 0 01-.25-1.68c0-.61.08-1.17.24-1.67.17-.5.4-.92.7-1.27a3.14 3.14 0 012.54-1.11 3.05 3.05 0 012.45 1.08c.29.33.5.72.66 1.19.16.45.24.96.24 1.51v.57h-5.57v.36c0 .33.05.64.15.93a2.15 2.15 0 001.17 1.23c.3.12.62.18.98.18a2.25 2.25 0 002.13-1.33l.85.61c-.25.53-.64.96-1.17 1.29-.53.32-1.16.48-1.89.48zm0-7.1a2.2 2.2 0 00-1.6.67 2.52 2.52 0 00-.62 1.68v.1h4.28v-.16c0-.7-.2-1.25-.57-1.66a1.88 1.88 0 00-1.49-.63zm10.15 6.92c-.42 0-.74-.12-.96-.35a1.32 1.32 0 01-.32-.9v-9.85h1.2v10.05h1.14v1.05h-1.06zm5.73.18c-.52 0-1-.1-1.42-.29-.43-.19-.8-.45-1.11-.8-.3-.36-.54-.79-.7-1.28a5.2 5.2 0 01-.26-1.68c0-.61.08-1.17.25-1.67.17-.5.4-.92.7-1.27a3.1 3.1 0 011.12-.82c.43-.2.9-.29 1.42-.29.52 0 1 .1 1.41.29.43.19.8.46 1.11.82.31.35.55.77.72 1.27.17.5.26 1.06.26 1.67a5.2 5.2 0 01-.26 1.68c-.17.49-.4.92-.72 1.27-.3.36-.68.63-1.1.81-.43.2-.9.29-1.42.29zm0-1.06c.65 0 1.18-.2 1.6-.6.4-.4.6-1.01.6-1.83v-1.12c0-.81-.2-1.43-.6-1.82-.42-.4-.95-.6-1.6-.6-.65 0-1.18.2-1.59.6-.4.4-.61 1-.61 1.82v1.12c0 .81.2 1.43.61 1.82.41.4.94.6 1.6.6zm11.1.88c-.45 0-.78-.12-.98-.36a1.82 1.82 0 01-.36-.9h-.07a2 2 0 01-.84 1.08 2.6 2.6 0 01-1.4.36c-.82 0-1.46-.21-1.92-.63a2.23 2.23 0 01-.67-1.71c0-.73.26-1.29.8-1.68.53-.39 1.37-.59 2.5-.59h1.53v-.76c0-.55-.15-.97-.45-1.26-.3-.29-.76-.44-1.38-.44-.47 0-.87.11-1.19.32-.3.21-.57.49-.78.84l-.72-.67c.21-.43.55-.78 1-1.07.47-.3 1.05-.45 1.75-.45.94 0 1.67.23 2.19.69.52.46.78 1.1.78 1.92v4.26h.88v1.05h-.67zm-3.45-.84c.3 0 .57-.04.82-.1.25-.07.47-.18.65-.3.18-.13.32-.28.42-.45.1-.18.15-.36.15-.56v-1.27h-1.6c-.68 0-1.19.1-1.5.3a.97.97 0 00-.47.87v.31c0 .38.13.68.4.89.28.2.66.31 1.13.31zm5.83.84v-7.74h1.2v1.26h.06c.2-.44.46-.79.8-1.05.35-.26.81-.39 1.4-.39.8 0 1.42.26 1.88.78.47.51.7 1.24.7 2.18v4.96h-1.2v-4.75c0-1.4-.58-2.09-1.75-2.09-.24 0-.47.03-.7.09-.22.06-.42.15-.6.27-.18.12-.33.28-.44.47-.1.18-.15.39-.15.64v5.37h-1.2zm-39.44 11.9h1.2v4.62h.06c.2-.49.49-.85.87-1.08a2.6 2.6 0 011.4-.36 2.77 2.77 0 012.3 1.1c.27.34.48.77.62 1.27.15.5.22 1.06.22 1.68 0 .62-.07 1.18-.22 1.68-.14.5-.35.93-.63 1.27a2.77 2.77 0 01-2.3 1.1c-1.05 0-1.8-.48-2.26-1.44h-.06v1.26h-1.2v-11.1zm3.2 10.2c.67 0 1.2-.21 1.6-.63.39-.43.58-.99.58-1.68v-1.32c0-.69-.2-1.25-.58-1.67a2.06 2.06 0 00-1.6-.64 2.54 2.54 0 00-1.42.42c-.18.13-.32.29-.43.48-.1.18-.15.38-.15.58v2.88c0 .25.05.48.15.68a1.7 1.7 0 001.06.8c.25.06.51.1.78.1zm8.42 1.08c-.52 0-1-.1-1.42-.29-.43-.19-.8-.45-1.11-.8-.3-.36-.54-.79-.7-1.28a5.2 5.2 0 01-.26-1.68c0-.61.08-1.17.25-1.67.17-.5.4-.92.7-1.27a3.1 3.1 0 011.12-.82c.43-.2.9-.29 1.42-.29.52 0 1 .1 1.41.29.43.19.8.46 1.11.82.31.35.55.77.72 1.27.17.5.26 1.06.26 1.67a5.2 5.2 0 01-.26 1.68c-.17.49-.4.92-.72 1.27-.3.36-.68.63-1.1.81-.43.2-.9.29-1.42.29zm0-1.06c.65 0 1.18-.2 1.6-.6.4-.4.6-1.01.6-1.83v-1.12c0-.81-.2-1.43-.6-1.82-.42-.4-.95-.6-1.6-.6-.65 0-1.18.2-1.59.6-.4.4-.61 1-.61 1.82v1.12c0 .81.2 1.43.61 1.82.41.4.94.6 1.6.6zm8.4 1.06c-.52 0-1-.1-1.43-.29-.43-.19-.8-.45-1.11-.8-.3-.36-.53-.79-.7-1.28a5.2 5.2 0 01-.26-1.68c0-.61.09-1.17.26-1.67s.4-.92.7-1.27a3.1 3.1 0 011.11-.82c.43-.2.9-.29 1.43-.29.52 0 .99.1 1.4.29.44.19.8.46 1.12.82.3.35.55.77.72 1.27.17.5.25 1.06.25 1.67a5.2 5.2 0 01-.25 1.68c-.17.49-.41.92-.72 1.27a3.38 3.38 0 01-2.52 1.1zm0-1.06c.65 0 1.18-.2 1.59-.6.4-.4.61-1.01.61-1.83v-1.12c0-.81-.2-1.43-.61-1.82-.41-.4-.94-.6-1.6-.6-.64 0-1.17.2-1.58.6-.41.4-.62 1-.62 1.82v1.12c0 .81.2 1.43.62 1.82.4.4.94.6 1.59.6zm5.46-10.22h1.2v7.04h.06l1.19-1.32 2.19-2.36h1.45l-2.86 3.06 3.15 4.68h-1.46l-2.56-3.94-1.16 1.18v2.76h-1.2v-11.1zm-48.7 34.1l-2.71-7.74h1.2l1.35 3.84.84 2.64h.07l.84-2.64 1.38-3.84h1.16l-2.73 7.74h-1.4zm10.44-1.26h-.06c-.08.18-.18.36-.3.54-.1.17-.25.33-.42.47a2.1 2.1 0 01-.61.31c-.24.08-.52.12-.84.12-.8 0-1.44-.25-1.9-.76a3.15 3.15 0 01-.71-2.2v-4.96h1.2v4.75c0 1.4.59 2.09 1.77 2.09.24 0 .47-.03.69-.09.23-.06.43-.15.6-.27a1.29 1.29 0 00.58-1.13v-5.35H33v7.74h-1.2v-1.26zm5.03 1.26c-.42 0-.74-.12-.96-.35a1.32 1.32 0 01-.31-.9v-9.85h1.2v10.05h1.14v1.05h-1.07zm2.82 0v-7.74h1.2v1.26h.06c.19-.44.45-.79.8-1.05.34-.26.8-.39 1.39-.39.8 0 1.43.26 1.89.78.47.51.7 1.24.7 2.18v4.96h-1.2v-4.75c0-1.4-.58-2.09-1.75-2.09-.24 0-.48.03-.7.09-.23.06-.43.15-.6.27-.19.12-.33.28-.44.47-.1.18-.15.39-.15.64v5.37h-1.2zm11.43.18a3.22 3.22 0 01-2.54-1.1c-.3-.35-.53-.78-.7-1.27a5.5 5.5 0 01-.24-1.68c0-.61.08-1.17.24-1.67.17-.5.4-.92.7-1.27a3.14 3.14 0 012.54-1.11 3.05 3.05 0 012.45 1.08c.29.33.5.72.66 1.19.16.45.24.96.24 1.51v.57h-5.57v.36c0 .33.05.64.15.93a2.15 2.15 0 001.17 1.23c.3.12.62.18.98.18a2.25 2.25 0 002.13-1.33l.85.61c-.25.53-.64.96-1.17 1.29-.53.32-1.16.48-1.89.48zm0-7.1a2.2 2.2 0 00-1.6.67 2.52 2.52 0 00-.61 1.68v.1h4.27v-.16c0-.7-.2-1.25-.57-1.66a1.88 1.88 0 00-1.49-.63zm5.32 6.92v-7.74h1.2v1.43h.08c.14-.38.39-.7.75-1a2.3 2.3 0 011.48-.43h.47v1.2h-.7a2.7 2.7 0 00-1.54.38c-.36.24-.54.54-.54.91v5.25h-1.2zm11.08 0c-.45 0-.78-.12-.98-.36a1.82 1.82 0 01-.36-.9h-.07a2 2 0 01-.84 1.08 2.6 2.6 0 01-1.4.36c-.82 0-1.46-.21-1.92-.63a2.23 2.23 0 01-.67-1.71c0-.73.26-1.29.8-1.68.53-.39 1.37-.59 2.5-.59h1.53v-.76c0-.55-.15-.97-.45-1.26-.3-.29-.76-.44-1.38-.44-.47 0-.87.11-1.19.32-.3.21-.57.49-.78.84l-.72-.67c.21-.43.55-.78 1-1.07.47-.3 1.05-.45 1.75-.45.94 0 1.67.23 2.19.69.52.46.78 1.1.78 1.92v4.26h.88v1.05h-.67zm-3.45-.84c.3 0 .57-.04.82-.1.25-.07.47-.18.65-.3.18-.13.32-.28.42-.45.1-.18.15-.36.15-.56v-1.27h-1.6c-.68 0-1.19.1-1.5.3a.97.97 0 00-.47.87v.31c0 .38.13.68.4.89.28.2.66.31 1.13.31zm5.84-10.26h1.2v4.62h.06c.2-.49.49-.85.87-1.08a2.6 2.6 0 011.4-.36 2.77 2.77 0 012.3 1.1c.27.34.48.77.62 1.27.15.5.22 1.06.22 1.68 0 .62-.07 1.18-.22 1.68-.14.5-.35.93-.63 1.27a2.77 2.77 0 01-2.3 1.1c-1.05 0-1.8-.48-2.26-1.44h-.06v1.26h-1.2v-11.1zm3.2 10.2c.67 0 1.2-.21 1.6-.63.39-.43.58-.99.58-1.68v-1.32c0-.69-.2-1.25-.58-1.67a2.06 2.06 0 00-1.6-.64 2.54 2.54 0 00-1.42.42c-.18.13-.32.29-.43.48-.1.18-.15.38-.15.58v2.88c0 .25.05.48.15.68a1.7 1.7 0 001.06.8c.25.06.51.1.78.1zm6.1-8.66c-.26 0-.45-.06-.57-.18a.74.74 0 01-.17-.49v-.2c0-.2.06-.36.17-.47.12-.14.3-.2.57-.2.26 0 .44.06.55.2.12.11.18.27.18.47v.2a.7.7 0 01-.18.5c-.1.12-.3.18-.55.18zm-.6 1.82h1.2v7.74h-1.2v-7.74zm5.02 7.74c-.42 0-.74-.12-.96-.35a1.32 1.32 0 01-.31-.9v-9.85h1.2v10.05h1.14v1.05h-1.07zm3.41-9.56c-.26 0-.45-.06-.57-.18a.74.74 0 01-.16-.49v-.2c0-.2.05-.36.16-.47.12-.14.31-.2.57-.2.26 0 .45.06.56.2.12.11.18.27.18.47v.2a.7.7 0 01-.18.5c-.11.12-.3.18-.56.18zm-.6 1.82h1.2v7.74h-1.2v-7.74zm5.46 7.74c-.42 0-.74-.12-.96-.35a1.36 1.36 0 01-.31-.92v-5.42H89.3v-1.05h.72c.26 0 .44-.05.53-.15.1-.11.15-.3.15-.56v-1.44h1.08v2.15h1.7v1.05h-1.7v5.64h1.57v1.05h-1.5zm8.32-7.74h1.19l-3.47 9.54c-.09.23-.18.42-.27.57-.09.16-.2.28-.33.38-.13.08-.3.15-.5.19a3.5 3.5 0 01-.7.06h-.61v-1.05h1.21l.59-1.65-2.9-8.04h1.2l1.86 5.26.36 1.27h.08l.42-1.27 1.87-5.26zM39.76 361.5c-.45 0-.78-.12-.98-.36a1.82 1.82 0 01-.36-.9h-.07a2 2 0 01-.84 1.08 2.6 2.6 0 01-1.4.36c-.82 0-1.46-.21-1.92-.63a2.23 2.23 0 01-.67-1.71c0-.73.26-1.29.8-1.68.53-.39 1.37-.59 2.5-.59h1.53v-.76c0-.55-.15-.97-.45-1.26-.3-.29-.76-.44-1.38-.44-.47 0-.87.11-1.19.32-.3.21-.57.49-.78.84l-.72-.67c.21-.43.55-.78 1-1.07.47-.3 1.05-.45 1.75-.45.94 0 1.67.23 2.19.69.52.46.78 1.1.78 1.92v4.26h.88v1.05h-.67zm-3.45-.84c.3 0 .57-.04.82-.1.25-.07.47-.18.65-.3.18-.13.32-.28.42-.45.1-.18.15-.36.15-.56v-1.27h-1.6c-.68 0-1.19.1-1.5.3a.97.97 0 00-.47.87v.31c0 .38.13.68.4.89.28.2.66.31 1.13.31zm5.83.84v-7.74h1.2v1.26h.06c.2-.44.46-.79.8-1.05.35-.26.81-.39 1.4-.39.8 0 1.42.26 1.88.78.47.51.7 1.24.7 2.18v4.96h-1.2v-4.75c0-1.4-.58-2.09-1.75-2.09-.24 0-.47.03-.7.09-.22.06-.42.15-.6.27-.18.12-.33.28-.44.47-.1.18-.15.39-.15.64v5.37h-1.2zm14.15 0c-.45 0-.77-.12-.97-.36a1.82 1.82 0 01-.36-.9h-.08a2 2 0 01-.84 1.08 2.6 2.6 0 01-1.39.36c-.82 0-1.46-.21-1.92-.63a2.23 2.23 0 01-.68-1.71c0-.73.27-1.29.8-1.68.54-.39 1.37-.59 2.5-.59h1.53v-.76c0-.55-.15-.97-.45-1.26-.3-.29-.76-.44-1.38-.44-.47 0-.86.11-1.18.32-.31.21-.57.49-.78.84l-.72-.67c.21-.43.54-.78 1-1.07.46-.3 1.04-.45 1.74-.45.94 0 1.67.23 2.2.69.51.46.77 1.1.77 1.92v4.26h.89v1.05h-.68zm-3.45-.84c.3 0 .58-.04.83-.1.25-.07.46-.18.64-.3.18-.13.32-.28.42-.45.1-.18.15-.36.15-.56v-1.27H53.3c-.69 0-1.2.1-1.51.3a.97.97 0 00-.47.87v.31c0 .38.14.68.4.89.29.2.66.31 1.13.31zm7.12.84c-.42 0-.74-.12-.96-.35a1.32 1.32 0 01-.32-.9v-9.85h1.2v10.05h1.14v1.05h-1.06zm7.43-7.74h1.19l-3.47 9.54c-.09.23-.18.42-.27.57-.09.16-.2.28-.33.38-.13.08-.3.15-.5.19a3.5 3.5 0 01-.7.06h-.61v-1.05h1.21l.59-1.65-2.9-8.04h1.2l1.86 5.26.36 1.27h.08l.42-1.27 1.87-5.26zm4.98 7.92c-.72 0-1.32-.13-1.81-.4-.48-.28-.9-.65-1.25-1.11l.86-.7c.3.38.63.68 1 .89.37.2.8.3 1.3.3s.9-.11 1.18-.33c.29-.22.43-.53.43-.93 0-.3-.1-.55-.3-.76-.19-.22-.54-.38-1.05-.45l-.61-.1a5.54 5.54 0 01-1-.22c-.3-.11-.56-.25-.79-.42a2 2 0 01-.52-.66 2.2 2.2 0 01-.18-.93 2.03 2.03 0 01.78-1.71c.25-.19.54-.33.88-.42.34-.1.7-.15 1.1-.15.63 0 1.15.11 1.57.33.43.22.8.52 1.13.91l-.8.73a2.37 2.37 0 00-2-.94c-.5-.01-.87.1-1.13.32-.25.21-.38.5-.38.87 0 .38.13.65.38.82.26.18.63.3 1.1.38l.6.09c.87.13 1.48.38 1.84.75.36.36.54.84.54 1.43a2.2 2.2 0 01-.77 1.77c-.5.42-1.2.64-2.1.64zm5.59-9.74c-.26 0-.45-.06-.57-.18a.74.74 0 01-.17-.49v-.2c0-.2.06-.36.17-.47.12-.14.3-.2.57-.2.26 0 .44.06.55.2.12.11.18.27.18.47v.2a.7.7 0 01-.18.5c-.1.12-.3.18-.55.18zm-.6 1.82h1.2v7.74h-1.2v-7.74zm6.07 7.92c-.72 0-1.32-.13-1.81-.4-.48-.28-.9-.65-1.25-1.11l.86-.7c.3.38.63.68 1 .89.37.2.8.3 1.3.3s.9-.11 1.18-.33c.29-.22.43-.53.43-.93 0-.3-.1-.55-.3-.76-.19-.22-.54-.38-1.05-.45l-.61-.1a5.54 5.54 0 01-1-.22c-.3-.11-.56-.25-.79-.42a2 2 0 01-.52-.66 2.2 2.2 0 01-.18-.93 2.03 2.03 0 01.78-1.71c.25-.19.54-.33.88-.42.34-.1.7-.15 1.1-.15.63 0 1.15.11 1.57.33.43.22.8.52 1.13.91l-.8.73a2.37 2.37 0 00-2-.94c-.5-.01-.87.1-1.13.32-.25.21-.38.5-.38.87 0 .38.13.65.38.82.26.18.63.3 1.1.38l.6.09c.87.13 1.48.38 1.84.75.36.36.54.84.54 1.43a2.2 2.2 0 01-.77 1.77c-.5.42-1.2.64-2.1.64z" fill="#37D37A"/><path d="M12.33 387.5a2.67 2.67 0 105.34 0 2.67 2.67 0 00-5.34 0zm90 0a2.67 2.67 0 105.34 0 2.67 2.67 0 00-5.34 0zM15 388h90v-1H15v1z" fill="#fff"/><path d="M104.5 387.5v30h1v-30h-1zm-89 30v-30h-1v30h1zM25.82 406.5v-6.98h1.32v5.81h2.75v1.17h-4.07zm7.15.12a2.29 2.29 0 01-1.81-.74c-.2-.24-.37-.53-.48-.86a3.6 3.6 0 01-.17-1.14c0-.41.05-.79.16-1.12.11-.33.27-.62.48-.85.2-.24.46-.42.76-.55.3-.13.64-.2 1.02-.2.4 0 .76.07 1.06.21.3.14.54.33.74.57.2.24.33.52.43.84.1.31.15.65.15 1.01v.42h-3.47v.13c0 .38.1.69.32.92.21.23.53.34.95.34.32 0 .58-.07.78-.2.2-.13.39-.3.55-.51l.69.77c-.22.3-.51.54-.88.71-.37.17-.8.25-1.28.25zm-.02-4.5c-.34 0-.61.11-.81.34-.2.23-.3.52-.3.88v.08h2.14v-.09c0-.36-.1-.65-.27-.87-.18-.23-.43-.34-.76-.34zm7.32 4.38a.93.93 0 01-.67-.24 1.17 1.17 0 01-.3-.66h-.06c-.08.34-.26.6-.53.77-.26.17-.6.25-.99.25-.53 0-.94-.14-1.23-.42a1.5 1.5 0 01-.43-1.12c0-.54.2-.94.58-1.2.39-.27.94-.4 1.65-.4h.9v-.38c0-.3-.08-.52-.24-.68-.15-.16-.4-.24-.74-.24-.3 0-.54.07-.73.2-.18.13-.33.28-.46.46l-.76-.68c.2-.3.45-.54.77-.72a2.5 2.5 0 011.27-.28c.71 0 1.25.16 1.61.48.37.32.55.78.55 1.38v2.46h.52v1.02h-.7zm-2.12-.81c.29 0 .53-.06.73-.19.2-.13.3-.31.3-.56v-.69h-.82c-.66 0-1 .21-1 .64v.17c0 .21.07.37.2.48a1 1 0 00.6.15zm3.87.81v-5.22h1.28v1.08h.05c.03-.14.08-.27.15-.4a1.3 1.3 0 01.68-.59c.16-.06.34-.09.55-.09H45v1.21h-.4a2 2 0 00-.98.19c-.22.13-.33.33-.33.62v3.2h-1.28zm3.93 0v-5.22h1.28v.87h.05c.1-.28.27-.51.5-.7.23-.2.55-.29.96-.29.54 0 .95.18 1.24.53.28.35.43.86.43 1.51v3.3h-1.28v-3.17c0-.37-.07-.65-.2-.84-.14-.19-.36-.28-.66-.28a1.29 1.29 0 00-.72.22.79.79 0 00-.23.26.69.69 0 00-.1.36v3.45h-1.27zm8.24 0v-5.22h1.28v.87h.05c.1-.27.26-.5.48-.7.22-.2.52-.29.92-.29.36 0 .67.09.93.26s.45.44.58.79h.02c.1-.3.27-.54.55-.74.28-.2.63-.31 1.05-.31.51 0 .9.18 1.18.53.28.35.42.86.42 1.51v3.3h-1.28v-3.17c0-.75-.28-1.12-.84-1.12a1.16 1.16 0 00-.68.22.75.75 0 00-.29.62v3.45h-1.28v-3.17c0-.75-.28-1.12-.84-1.12a1.13 1.13 0 00-.67.22.75.75 0 00-.3.62v3.45h-1.28zm10.94.12c-.37 0-.7-.06-1-.19-.3-.13-.55-.31-.77-.55-.2-.24-.36-.53-.48-.86a3.6 3.6 0 01-.17-1.14c0-.42.06-.8.17-1.13.12-.33.28-.62.48-.85.22-.24.47-.42.76-.55.3-.13.64-.19 1.01-.19.38 0 .71.06 1.01.19.3.13.56.31.76.55.22.23.38.52.5.85.1.33.16.71.16 1.13 0 .42-.05.8-.17 1.14-.1.33-.27.62-.49.86-.2.24-.46.42-.76.55-.3.13-.63.19-1 .19zm0-1.03c.34 0 .61-.1.8-.31.2-.2.3-.51.3-.91v-.97c0-.4-.1-.7-.3-.9-.19-.2-.46-.31-.8-.31-.33 0-.6.1-.79.31-.19.2-.29.5-.29.9v.97c0 .4.1.7.3.91.19.2.45.31.78.31zm3.57.91v-5.22h1.28v1.08h.05c.03-.14.08-.27.15-.4a1.3 1.3 0 01.68-.59c.16-.06.34-.09.55-.09h.28v1.21h-.4a2 2 0 00-.98.19c-.22.13-.33.33-.33.62v3.2H68.7zm5.99.12a2.3 2.3 0 01-1.81-.74c-.21-.24-.37-.53-.48-.86a3.6 3.6 0 01-.17-1.14c0-.41.05-.79.16-1.12.1-.33.27-.62.48-.85.2-.24.46-.42.76-.55.3-.13.64-.2 1.02-.2.4 0 .76.07 1.06.21.3.14.54.33.74.57.19.24.33.52.43.84.1.31.15.65.15 1.01v.42h-3.47v.13c0 .38.1.69.32.92.2.23.53.34.95.34.32 0 .58-.07.78-.2.2-.13.39-.3.55-.51l.69.77c-.22.3-.51.54-.88.71-.37.17-.8.25-1.28.25zm-.02-4.5c-.34 0-.61.11-.81.34-.2.23-.3.52-.3.88v.08h2.14v-.09c0-.36-.1-.65-.27-.87-.18-.23-.43-.34-.76-.34zM84.5 402.5h7.08l-1.78-1.8.7-.7 3 3-3 3-.7-.7 1.78-1.8H84.5v-1z" fill="#fff"/><path d="M12.33 417.5a2.67 2.67 0 105.34 0 2.67 2.67 0 00-5.34 0zm90 0a2.67 2.67 0 105.34 0 2.67 2.67 0 00-5.34 0zM15 418h90v-1H15v1z" fill="#fff"/></svg>