<svg width="120" height="600" viewBox="0 0 120 600" fill="none" xmlns="http://www.w3.org/2000/svg"><path d="M30.58 189a2.67 2.67 0 105.34 0 2.67 2.67 0 00-5.34 0zm53.5 0a2.67 2.67 0 105.34 0 2.67 2.67 0 00-5.34 0zM60 187a2 2 0 012 2h1a3 3 0 00-3-3v1zm2 2a2 2 0 01-2 2v1a3 3 0 003-3h-1zm-2 2a2 2 0 01-2-2h-1a3 3 0 003 3v-1zm-2-2c0-1.1.9-2 2-2v-1a3 3 0 00-3 3h1zm-24.75.5h53.5v-1h-53.5v1z" fill="#019055"/><path d="M21.18 220.5h-1.77l-.95-2.84h-3.91l-.92 2.84h-1.72l3.57-10.47h2.13l3.57 10.47zm-3.14-4.29l-1.5-4.62h-.07l-1.52 4.62h3.1zm4.64 7.29v-10.8h1.64v1.29h.07a2.2 2.2 0 012.2-1.47c1.96 0 3.1 1.51 3.1 4.08 0 2.56-1.14 4.08-3.1 4.08a2.23 2.23 0 01-2.2-1.47h-.07v4.29h-1.64zm3.4-4.23c1.13 0 1.88-.8 1.88-2v-1.34c0-1.2-.75-2-1.87-2-1 0-1.77.54-1.77 1.33v2.68c0 .79.78 1.33 1.77 1.33zm5.48 4.23v-10.8h1.63v1.29h.08a2.2 2.2 0 012.19-1.47c1.96 0 3.1 1.51 3.1 4.08 0 2.56-1.14 4.08-3.1 4.08a2.23 2.23 0 01-2.2-1.47h-.07v4.29h-1.63zm3.4-4.23c1.13 0 1.88-.8 1.88-2v-1.34c0-1.2-.75-2-1.88-2-.99 0-1.77.54-1.77 1.33v2.68c0 .79.78 1.33 1.77 1.33zm7.11 1.23h-1.63v-7.8h1.63v1.5h.08c.22-.8.9-1.5 2.14-1.5h.44v1.58h-.65c-1.29 0-2.01.43-2.01 1.24v4.98zm7.1.18c-2.18 0-3.6-1.59-3.6-4.08s1.42-4.08 3.6-4.08c2.17 0 3.58 1.59 3.58 4.08s-1.41 4.08-3.59 4.08zm0-1.35c1.1 0 1.85-.69 1.85-2.07v-1.32c0-1.38-.75-2.07-1.86-2.07-1.1 0-1.86.69-1.86 2.07v1.32c0 1.38.75 2.07 1.86 2.07zm8.9 1.17h-1.92l-2.66-7.8h1.62l1.19 3.56.8 2.73h.08l.8-2.74 1.21-3.55h1.56l-2.68 7.8zm7 .18c-2.22 0-3.58-1.59-3.58-4.08s1.36-4.08 3.58-4.08c2.3 0 3.47 1.72 3.47 3.88v.62h-5.36v.25c0 1.2.74 2.06 2.06 2.06.96 0 1.6-.45 2.05-1.17l.96.94c-.58.95-1.72 1.58-3.18 1.58zm0-6.89c-1.12 0-1.89.84-1.89 2.05v.1h3.63v-.15c0-1.2-.66-2-1.74-2zm10.46 6.71h-1.64v-7.8h1.64v1.29h.07c.32-.81.9-1.47 2.09-1.47 1.05 0 1.93.51 2.3 1.59h.05c.29-.87 1.1-1.59 2.36-1.59 1.54 0 2.46 1.11 2.46 3.03v4.95h-1.64v-4.75c0-1.2-.45-1.82-1.44-1.82-.82 0-1.59.44-1.59 1.33v5.24h-1.63v-4.75c0-1.22-.47-1.82-1.43-1.82-.8 0-1.6.44-1.6 1.33v5.24zm14.65.18c-2.18 0-3.59-1.59-3.59-4.08s1.41-4.08 3.59-4.08c2.17 0 3.58 1.59 3.58 4.08s-1.4 4.08-3.58 4.08zm0-1.35c1.11 0 1.86-.69 1.86-2.07v-1.32c0-1.38-.75-2.07-1.86-2.07s-1.86.69-1.86 2.07v1.32c0 1.38.75 2.07 1.86 2.07zm7.04 1.17H95.6v-7.8h1.63v1.5h.08c.22-.8.9-1.5 2.14-1.5h.44v1.58h-.65c-1.29 0-2 .43-2 1.24v4.98zm7.1.18c-2.22 0-3.59-1.59-3.59-4.08s1.36-4.08 3.58-4.08c2.3 0 3.47 1.72 3.47 3.88v.62h-5.36v.25c0 1.2.74 2.06 2.06 2.06.96 0 1.6-.45 2.05-1.17l.97.94c-.59.95-1.73 1.58-3.19 1.58zm0-6.89c-1.13 0-1.9.84-1.9 2.05v.1h3.64v-.15c0-1.2-.67-2-1.75-2zm-76.27 33.89c-2.25 0-3.54-1.59-3.54-4.08s1.3-4.08 3.54-4.08c1.56 0 2.55.76 3.02 1.92l-1.35.63c-.23-.72-.78-1.19-1.67-1.19-1.2 0-1.81.83-1.81 2.03v1.4c0 1.2.61 2.02 1.81 2.02.95 0 1.5-.51 1.83-1.29l1.25.66c-.51 1.28-1.58 1.98-3.08 1.98zm9.36-.18v-1.29h-.06c-.28.76-.9 1.47-2.19 1.47-1.6 0-2.55-1.1-2.55-3.02v-4.96h1.64v4.76c0 1.18.5 1.81 1.5 1.81.84 0 1.66-.44 1.66-1.35v-5.22h1.64v7.8H37.4zm6.45.18a3.76 3.76 0 01-3.16-1.47l1.05-.96a2.76 2.76 0 002.2 1.11c.95 0 1.43-.39 1.43-1.05 0-.5-.3-.87-1.11-.97l-.72-.1c-1.6-.19-2.57-.88-2.57-2.32 0-1.51 1.19-2.4 2.9-2.4 1.4 0 2.2.47 2.9 1.24l-1 .97a2.48 2.48 0 00-1.9-.89c-.9 0-1.32.39-1.32.97 0 .6.37.88 1.2 1.01l.72.09c1.7.25 2.47 1 2.47 2.27 0 1.5-1.21 2.5-3.09 2.5zm8.42-.18h-1.42c-1.13 0-1.73-.63-1.73-1.7v-4.77h-1.21v-1.33h.66c.54 0 .72-.22.72-.76v-1.37h1.47v2.13h1.63v1.34h-1.63v5.13h1.51v1.33zm4.9.18c-2.18 0-3.59-1.59-3.59-4.08s1.41-4.08 3.59-4.08c2.17 0 3.58 1.59 3.58 4.08s-1.4 4.08-3.58 4.08zm0-1.35c1.1 0 1.86-.69 1.86-2.07v-1.32c0-1.38-.75-2.07-1.86-2.07s-1.86.69-1.86 2.07v1.32c0 1.38.75 2.07 1.86 2.07zm7.04 1.17h-1.64v-7.8h1.64v1.29h.07c.32-.81.9-1.47 2.09-1.47 1.05 0 1.93.51 2.3 1.59h.05c.29-.87 1.1-1.59 2.36-1.59 1.54 0 2.46 1.11 2.46 3.03v4.95H71.9v-4.75c0-1.2-.45-1.82-1.44-1.82-.82 0-1.59.44-1.59 1.33v5.24h-1.63v-4.75c0-1.22-.47-1.82-1.43-1.82-.8 0-1.6.44-1.6 1.33v5.24zm14.65.18c-2.22 0-3.58-1.59-3.58-4.08s1.36-4.08 3.58-4.08c2.3 0 3.47 1.72 3.47 3.88v.62h-5.36v.25c0 1.2.74 2.06 2.06 2.06.96 0 1.6-.45 2.05-1.17l.96.94c-.58.95-1.72 1.58-3.18 1.58zm0-6.89c-1.12 0-1.89.84-1.89 2.05v.1h3.63v-.15c0-1.2-.66-2-1.74-2zm6.91 6.71h-1.63v-7.8h1.63v1.5h.08c.22-.8.9-1.5 2.14-1.5h.44v1.58h-.65c-1.29 0-2 .43-2 1.24v4.98zm6.58.18a3.76 3.76 0 01-3.16-1.47l1.05-.96a2.76 2.76 0 002.2 1.11c.95 0 1.43-.39 1.43-1.05 0-.5-.3-.87-1.11-.97l-.72-.1c-1.6-.19-2.57-.88-2.57-2.32 0-1.51 1.19-2.4 2.9-2.4 1.4 0 2.2.47 2.9 1.24l-1 .97a2.48 2.48 0 00-1.9-.89c-.9 0-1.32.39-1.32.97 0 .6.37.88 1.2 1.01l.72.09c1.7.25 2.47 1 2.47 2.27 0 1.5-1.21 2.5-3.09 2.5z" fill="#080808"/><path d="M30.58 268a2.67 2.67 0 105.34 0 2.67 2.67 0 00-5.34 0zm53.5 0a2.67 2.67 0 105.34 0 2.67 2.67 0 00-5.34 0zM60 266a2 2 0 012 2h1a3 3 0 00-3-3v1zm2 2a2 2 0 01-2 2v1a3 3 0 003-3h-1zm-2 2a2 2 0 01-2-2h-1a3 3 0 003 3v-1zm-2-2c0-1.1.9-2 2-2v-1a3 3 0 00-3 3h1zm-24.75.5h53.5v-1h-53.5v1z" fill="#019055"/><path d="M35.5 295.27v4.23h-1.7v-10.47h4.52c1.88 0 3.03 1.22 3.03 3.15 0 1.49-.7 2.52-2.04 2.91l2.27 4.41h-1.89l-2.1-4.23H35.5zm0-1.42h2.7c.86 0 1.37-.47 1.37-1.31v-.72c0-.84-.51-1.3-1.37-1.3h-2.7v3.33zm10.86 5.83c-2.22 0-3.59-1.59-3.59-4.08s1.37-4.08 3.59-4.08c2.3 0 3.46 1.73 3.46 3.88v.62h-5.35v.25c0 1.2.73 2.06 2.05 2.06.96 0 1.6-.45 2.06-1.17l.96.94c-.59.95-1.73 1.58-3.18 1.58zm0-6.88c-1.13 0-1.9.83-1.9 2.03v.11h3.64v-.15c0-1.2-.66-2-1.74-2zm10.18 6.7v-1.29h-.08a2.23 2.23 0 01-2.19 1.47c-1.96 0-3.1-1.51-3.1-4.08 0-2.56 1.14-4.08 3.1-4.08a2.2 2.2 0 012.2 1.47h.07v-4.59h1.63v11.1h-1.63zm-1.77-1.23c.99 0 1.77-.54 1.77-1.33v-2.68c0-.79-.78-1.33-1.77-1.33-1.13 0-1.88.8-1.88 2v1.34c0 1.2.75 2 1.88 2zm10.47 1.23v-1.29h-.06c-.29.77-.9 1.47-2.2 1.47-1.6 0-2.54-1.1-2.54-3.01v-4.97h1.63v4.75c0 1.19.5 1.82 1.5 1.82.84 0 1.67-.44 1.67-1.35v-5.22h1.63v7.8h-1.63zm6.99.18c-2.25 0-3.54-1.59-3.54-4.08s1.29-4.08 3.54-4.08c1.56 0 2.55.77 3.01 1.92l-1.35.63c-.22-.72-.78-1.19-1.66-1.19-1.2 0-1.82.83-1.82 2.03v1.4c0 1.2.62 2.02 1.82 2.02.94 0 1.5-.51 1.83-1.29l1.24.66c-.5 1.28-1.57 1.98-3.07 1.98zm7.6 0c-2.22 0-3.58-1.59-3.58-4.08s1.36-4.08 3.58-4.08c2.3 0 3.47 1.73 3.47 3.88v.62h-5.36v.25c0 1.2.74 2.06 2.06 2.06.96 0 1.6-.45 2.05-1.17l.96.94c-.58.95-1.72 1.58-3.18 1.58zm0-6.88c-1.12 0-1.89.83-1.89 2.03v.11h3.63v-.15c0-1.2-.66-2-1.74-2zm-57.48 33.7v-1.29h-.08a2.23 2.23 0 01-2.19 1.47c-1.96 0-3.1-1.51-3.1-4.08 0-2.56 1.14-4.08 3.1-4.08a2.2 2.2 0 012.2 1.47h.07v-4.59h1.63v11.1h-1.63zm-1.77-1.23c.99 0 1.77-.54 1.77-1.33v-2.68c0-.79-.78-1.33-1.77-1.33-1.13 0-1.88.8-1.88 2v1.34c0 1.2.75 2 1.88 2zm8.8 1.41c-2.22 0-3.58-1.59-3.58-4.08s1.36-4.08 3.58-4.08c2.3 0 3.47 1.73 3.47 3.88v.62h-5.36v.25c0 1.2.74 2.06 2.06 2.06.96 0 1.6-.45 2.05-1.17l.96.94c-.58.95-1.72 1.58-3.18 1.58zm0-6.88c-1.12 0-1.89.83-1.89 2.03v.11h3.63v-.15c0-1.2-.66-2-1.74-2zm5.68 6.7v-6.46h-1.18v-1.34h1.18v-1.29c0-1.26.68-2.01 1.98-2.01h1.3v1.34H36.7v1.96h1.63v1.34H36.7v6.46h-1.64zm11.32 0h-.91c-.86 0-1.3-.54-1.41-1.3h-.08c-.3.97-1.14 1.48-2.28 1.48-1.6 0-2.52-.92-2.52-2.32 0-1.55 1.16-2.35 3.33-2.35h1.41v-.65c0-.95-.5-1.5-1.6-1.5-.92 0-1.47.44-1.86 1.06l-.98-.88c.51-.88 1.43-1.52 2.94-1.52 2.01 0 3.14.99 3.14 2.73v3.92h.82v1.33zm-4.21-1.06c1 0 1.75-.49 1.75-1.25v-1.13h-1.38c-1.14 0-1.7.38-1.7 1.06v.26c0 .7.52 1.06 1.33 1.06zm10.54 1.06v-1.29h-.06c-.28.77-.9 1.47-2.19 1.47-1.6 0-2.55-1.1-2.55-3.01v-4.97h1.64v4.75c0 1.19.5 1.82 1.5 1.82.84 0 1.66-.44 1.66-1.35v-5.22h1.64v7.8H52.7zm6.7 0h-1.06c-1.1 0-1.66-.62-1.66-1.62v-9.48h1.63v9.77h1.08v1.33zm5.07 0h-1.43c-1.12 0-1.72-.63-1.72-1.7v-4.76H60.1v-1.34h.66c.54 0 .72-.22.72-.76v-1.37h1.47v2.13h1.64v1.34h-1.64v5.13h1.52v1.33zm7.07 0h-1.63v-7.8h1.63v1.5h.08c.22-.8.9-1.5 2.14-1.5h.44v1.57h-.65c-1.29 0-2.01.44-2.01 1.25v4.98zm10.62 0h-.91c-.86 0-1.31-.54-1.41-1.3h-.08c-.3.97-1.14 1.48-2.28 1.48-1.6 0-2.52-.92-2.52-2.32 0-1.55 1.16-2.35 3.33-2.35h1.41v-.65c0-.95-.51-1.5-1.6-1.5-.92 0-1.47.44-1.86 1.06l-.98-.88c.51-.88 1.43-1.52 2.94-1.52 2.01 0 3.14.99 3.14 2.73v3.92h.82v1.33zm-4.21-1.06c1 0 1.75-.49 1.75-1.25v-1.13h-1.38c-1.14 0-1.7.38-1.7 1.06v.26c0 .7.52 1.06 1.33 1.06zm9.35 1.06H85.9c-1.13 0-1.73-.63-1.73-1.7v-4.76h-1.21v-1.34h.66c.54 0 .72-.22.72-.76v-1.37h1.47v2.13h1.63v1.34H85.8v5.13h1.51v1.33zm4.9.18c-2.22 0-3.59-1.59-3.59-4.08s1.37-4.08 3.59-4.08c2.3 0 3.46 1.73 3.46 3.88v.62h-5.35v.25c0 1.2.73 2.06 2.05 2.06.96 0 1.6-.45 2.06-1.17l.96.94c-.59.95-1.73 1.58-3.18 1.58zm0-6.88c-1.13 0-1.9.83-1.9 2.03v.11h3.64v-.15c0-1.2-.66-2-1.74-2zm7.75 6.88a3.76 3.76 0 01-3.17-1.47l1.05-.96a2.76 2.76 0 002.2 1.11c.95 0 1.43-.39 1.43-1.05 0-.5-.3-.87-1.1-.98l-.73-.08c-1.59-.2-2.56-.89-2.56-2.33 0-1.52 1.18-2.4 2.9-2.4 1.4 0 2.2.47 2.9 1.25l-1 .96a2.48 2.48 0 00-1.9-.89c-.9 0-1.33.39-1.33.98 0 .6.38.87 1.2 1l.72.09c1.71.25 2.48 1 2.48 2.26 0 1.5-1.22 2.51-3.1 2.51z" fill="#080808"/><path d="M30.58 347a2.67 2.67 0 105.34 0 2.67 2.67 0 00-5.34 0zm53.5 0a2.67 2.67 0 105.34 0 2.67 2.67 0 00-5.34 0zM60 345a2 2 0 012 2h1a3 3 0 00-3-3v1zm2 2a2 2 0 01-2 2v1a3 3 0 003-3h-1zm-2 2a2 2 0 01-2-2h-1a3 3 0 003 3v-1zm-2-2c0-1.1.9-2 2-2v-1a3 3 0 00-3 3h1zm-24.75.5h53.5v-1h-53.5v1z" fill="#019055"/><path d="M11.5 378.5H9.8v-10.47h4.5c1.92 0 3.05 1.25 3.05 3.15s-1.13 3.15-3.05 3.15h-2.8v4.17zm0-8.99v3.34h2.7c.85 0 1.36-.47 1.36-1.31v-.72c0-.84-.5-1.3-1.36-1.3h-2.7zm9.07 8.99h-1.63v-7.8h1.63v1.5h.08c.22-.8.9-1.5 2.14-1.5h.44v1.57h-.65c-1.29 0-2 .44-2 1.25v4.98zm4.94-9.2c-.68 0-.98-.36-.98-.85v-.25c0-.5.3-.86.98-.86.67 0 .96.36.96.86v.25c0 .5-.29.86-.96.86zm-.83 9.2v-7.8h1.64v7.8h-1.64zm6.99.18c-2.25 0-3.54-1.59-3.54-4.08s1.29-4.08 3.54-4.08c1.56 0 2.55.77 3.01 1.92l-1.35.63c-.22-.72-.78-1.19-1.66-1.19-1.2 0-1.82.83-1.82 2.03v1.4c0 1.2.62 2.02 1.82 2.02.94 0 1.5-.51 1.83-1.29l1.24.66c-.51 1.28-1.57 1.98-3.07 1.98zm7.6 0c-2.22 0-3.59-1.59-3.59-4.08s1.37-4.08 3.59-4.08c2.3 0 3.46 1.73 3.46 3.88v.62h-5.35v.25c0 1.2.73 2.06 2.05 2.06.96 0 1.6-.45 2.06-1.17l.96.94c-.59.95-1.73 1.58-3.18 1.58zm0-6.88c-1.13 0-1.9.83-1.9 2.03v.11h3.64v-.15c0-1.2-.66-2-1.74-2zm10.45 6.7H48.1v-7.8h1.63v1.5h.08c.22-.8.9-1.5 2.14-1.5h.44v1.57h-.65c-1.29 0-2 .44-2 1.25v4.98zm4.94-9.2c-.68 0-.98-.36-.98-.85v-.25c0-.5.3-.86.98-.86.67 0 .96.36.96.86v.25c0 .5-.29.86-.96.86zm-.83 9.2v-7.8h1.64v7.8h-1.64zm6.45.18a3.76 3.76 0 01-3.17-1.47l1.05-.96a2.76 2.76 0 002.2 1.11c.95 0 1.43-.39 1.43-1.05 0-.5-.3-.87-1.1-.98l-.73-.08c-1.59-.2-2.56-.89-2.56-2.33 0-1.52 1.18-2.4 2.9-2.4 1.4 0 2.2.47 2.9 1.25l-1 .96a2.48 2.48 0 00-1.9-.89c-.9 0-1.33.39-1.33.98 0 .6.38.87 1.2 1l.72.09c1.71.25 2.48 1 2.48 2.26 0 1.5-1.22 2.51-3.1 2.51zm4.93-.18v-11.1h1.64v6.81h.07l1.08-1.4 1.88-2.11h1.9l-2.73 3.01 3.06 4.79h-1.95l-2.23-3.72-1.08 1.17v2.55H65.2zm13.39 0h-1.64v-7.8h1.64v1.29h.07c.32-.81.9-1.47 2.09-1.47 1.05 0 1.93.51 2.3 1.59h.05c.29-.87 1.1-1.59 2.36-1.59 1.54 0 2.46 1.11 2.46 3.03v4.95h-1.64v-4.75c0-1.2-.45-1.82-1.44-1.82-.82 0-1.59.44-1.59 1.33v5.24h-1.63v-4.75c0-1.22-.47-1.82-1.43-1.82-.8 0-1.6.44-1.6 1.33v5.24zm14.65.18c-2.18 0-3.59-1.59-3.59-4.08s1.41-4.08 3.59-4.08c2.17 0 3.58 1.59 3.58 4.08s-1.4 4.08-3.58 4.08zm0-1.35c1.1 0 1.86-.69 1.86-2.07v-1.32c0-1.38-.75-2.07-1.86-2.07s-1.86.69-1.86 2.07v1.32c0 1.38.75 2.07 1.86 2.07zm7.04 1.17h-1.63v-7.8h1.63v1.5h.07c.23-.8.9-1.5 2.15-1.5h.43v1.57h-.64c-1.29 0-2.01.44-2.01 1.25v4.98zm7.1.18c-2.23 0-3.6-1.59-3.6-4.08s1.37-4.08 3.6-4.08c2.29 0 3.46 1.73 3.46 3.88v.62h-5.36v.25c0 1.2.74 2.06 2.06 2.06.96 0 1.6-.45 2.05-1.17l.96.94c-.58.95-1.72 1.58-3.18 1.58zm0-6.88c-1.13 0-1.9.83-1.9 2.03v.11h3.63v-.15c0-1.2-.66-2-1.74-2zm-79 33.88c-2.22 0-3.59-1.59-3.59-4.08s1.37-4.08 3.59-4.08c2.29 0 3.46 1.73 3.46 3.88v.62H26.5v.25c0 1.2.73 2.06 2.05 2.06.96 0 1.6-.45 2.06-1.17l.96.94c-.59.95-1.73 1.58-3.18 1.58zm0-6.88c-1.13 0-1.9.83-1.9 2.03v.11h3.64v-.15c0-1.2-.66-2-1.74-2zm5.68 6.7v-6.46h-1.19v-1.34h1.19v-1.29c0-1.26.67-2.01 1.98-2.01h1.29v1.34H35.7v1.96h1.64v1.34H35.7v6.46h-1.63zm5.12 0v-6.46h-1.18v-1.34h1.18v-1.29c0-1.26.68-2.01 1.98-2.01h1.3v1.34h-1.64v1.96h1.63v1.34h-1.63v6.46h-1.64zm7.7.18c-2.22 0-3.59-1.59-3.59-4.08s1.37-4.08 3.59-4.08c2.3 0 3.46 1.73 3.46 3.88v.62H45v.25c0 1.2.73 2.06 2.05 2.06.96 0 1.6-.45 2.06-1.17l.96.94c-.59.95-1.73 1.58-3.18 1.58zm0-6.88c-1.13 0-1.9.83-1.9 2.03v.11h3.64v-.15c0-1.2-.66-2-1.74-2zm8.29 6.88c-2.25 0-3.54-1.59-3.54-4.08s1.29-4.08 3.54-4.08c1.56 0 2.55.77 3.01 1.92l-1.35.63c-.22-.72-.78-1.19-1.66-1.19-1.2 0-1.82.83-1.82 2.03v1.4c0 1.2.62 2.02 1.82 2.02.94 0 1.5-.51 1.83-1.29l1.24.66c-.5 1.28-1.57 1.98-3.07 1.98zm8.21-.18h-1.42c-1.13 0-1.73-.63-1.73-1.7v-4.76h-1.21v-1.34h.66c.54 0 .72-.22.72-.76v-1.37h1.47v2.13h1.63v1.34h-1.63v5.13h1.51v1.33zm2.72-9.2c-.67 0-.97-.36-.97-.85v-.25c0-.5.3-.86.97-.86.68 0 .96.36.96.86v.25c0 .5-.28.86-.96.86zm-.82 9.2v-7.8h1.63v7.8H65.3zm7.58 0h-1.92l-2.65-7.8h1.62l1.18 3.56.8 2.73h.09l.8-2.74 1.2-3.55h1.57l-2.69 7.8zm7 .18c-2.22 0-3.58-1.59-3.58-4.08s1.36-4.08 3.58-4.08c2.3 0 3.47 1.73 3.47 3.88v.62h-5.36v.25c0 1.2.74 2.06 2.06 2.06.96 0 1.6-.45 2.05-1.17l.96.94c-.58.95-1.72 1.58-3.18 1.58zm0-6.88c-1.12 0-1.89.83-1.89 2.03v.11h3.63v-.15c0-1.2-.66-2-1.74-2zm8 6.7H86.8c-1.1 0-1.66-.62-1.66-1.62v-9.48h1.63v9.77h1.08v1.33zm4.66-3.21l1.56-4.59h1.58l-3.29 9.35c-.37 1.05-.84 1.45-2.05 1.45h-.95v-1.33h1.32l.45-1.32-2.83-8.15h1.63l1.56 4.59.45 1.7h.08l.5-1.7z" fill="#080808"/></svg>