<svg width="120" height="600" viewBox="0 0 120 600" fill="none" xmlns="http://www.w3.org/2000/svg"><path stroke="#fff" stroke-opacity=".15" d="M80.96 349.5l14.5.25M80.96 359.75l18.85 1M80.96 370.75l14.5.25M80.96 381l14.5.25M80.96 391.25l14.5.25M80.96 401.5l29 .5M80.96 412l14.5.25M80.96 422.25l14.5.25M80.96 432.5l14.5.25M80.96 442.75l18.85 1M80.96 453.75l14.5.25M80.96 464l14.5.25M80.96 474.25l14.5.25M80.96 484.5l29 .5M80.96 495l14.5.25M80.96 505.25l14.5.25M80.96 515.5l14.5.25M80.96 525.75l18.85 1M80.96 536.75l14.5.25M80.96 547l14.5.25M80.96 557.25l14.5.25M80.96 567.5l29 .5M80.96 578l14.5.25M80.96 588.25l14.5.25M80.96 598.5l14.5.25M.5 350v250M40.5 350v250M80.5 350v250"/></svg>