<svg width="120" height="600" viewBox="0 0 120 600" fill="none" xmlns="http://www.w3.org/2000/svg"><path d="M108.86 22a1.14 1.14 0 000 2.29c.63 0 1.14-.52 1.14-1.15 0-.63-.5-1.14-1.14-1.14zm0 2.05a.9.9 0 010-1.82.91.91 0 010 1.82z" fill="#fff"/><path d="M109.17 23.22a.24.24 0 00-.11-.07.33.33 0 00.17-.1.32.32 0 00.06-.2c0-.12-.04-.2-.11-.25-.07-.06-.19-.08-.35-.08h-.46v1.2h.3v-.46h.09c.05 0 .09.01.12.03l.09.13.14.3h.33l-.17-.35a.57.57 0 00-.1-.15zm-.23-.2c-.03.02-.08.03-.14.03h-.13v-.3h.13c.07 0 .11 0 .14.02.03.03.04.07.04.12 0 .06-.01.1-.04.12zM19.69 25.76l-6.86 10.2H10l8.25-12.14 1.44 1.94z" fill="#fff"/><path d="M22.56 30.14l-1.43-2.2-5.46 8.03h2.91l3.98-5.83z" fill="#37D37A"/><path d="M23.34 24.71v-4.53l-3.65 5.58 1.44 2.18 2.2-3.23zM23.34 24.71v-4.53l10.3 15.79h-3.02L23.34 24.7z" fill="#fff"/><path d="M77.5 29.9l-4.01-5.68h2.8l2.54 3.65 2.59-3.65h2.75l-3.9 5.59 3.9 5.92h-2.84l-2.38-3.97-2.67 3.97h-2.82l4.04-5.83z" fill="#37D37A"/><path d="M36.37 30.45c0-1.5.09-2.57.27-3.25a3.4 3.4 0 01.9-1.67 4.05 4.05 0 011.75-.98c.71-.22 1.6-.33 2.65-.33h3.63v2.01h-3.83c-1 0-1.75.22-2.24.66-.5.44-.75 1.16-.75 2.14h6.82v2h-6.82v4.7h-2.38v-5.28zM49.98 35.73h-2.5v-11.5h2.5v11.5zM51.86 24.22h3.02l4.63 8.27-.11-8.27h2.44v11.51h-2.77l-4.88-8.7.11 8.7h-2.44v-11.5z" fill="#fff"/><path d="M68.8 26.24c-.85 0-1.5.21-1.95.65-.23.23-.41.5-.54.83-.13.34-.2.73-.2 1.18l6.24.02v2H66.1c0 1 .21 1.71.63 2.15.41.43 1.1.65 2.06.65h3.93l-1.42 2.01h-2.62a7.3 7.3 0 01-2.1-.23c-.49-.14-.97-.4-1.42-.78a4.17 4.17 0 01-1.3-1.84 7.46 7.46 0 01-.44-2.7c0-2.02.43-3.52 1.3-4.5.86-.97 2.2-1.46 4.03-1.46h2.55l1.42 2.02h-3.93zM84.06 29.86c0-1.97.47-3.44 1.4-4.4.92-.97 2.34-1.45 4.26-1.45s3.34.49 4.26 1.47c.93.98 1.39 2.48 1.39 4.5 0 2.01-.46 3.52-1.39 4.5-.93 1-2.35 1.49-4.26 1.49-1.91 0-3.38-.5-4.29-1.49-.91-.98-1.37-2.52-1.37-4.62zm5.66-3.89c-1.02 0-1.78.33-2.3.98-.5.66-.76 1.63-.76 2.93 0 1.4.25 2.43.73 3.1.5.66 1.27 1 2.33 1s1.82-.34 2.31-1c.5-.65.75-1.66.75-3 0-1.36-.25-2.36-.75-3.03-.5-.65-1.27-.98-2.3-.98h-.01zM106.77 26.29h-5.88c-.65 0-1.12.11-1.4.34-.3.23-.44.62-.44 1.15 0 .4.12.72.37.94.27.2.65.3 1.13.3h3.15c1.31 0 2.24.26 2.8.76.54.51.81 1.35.81 2.52 0 1.16-.31 2.04-.94 2.6-.64.55-1.65.83-3.01.83H97V33.7h5.97c.69 0 1.17-.1 1.45-.31.27-.2.4-.53.4-1 0-.46-.12-.8-.38-1.03-.26-.2-.7-.3-1.3-.3h-2.82c-1.3 0-2.25-.26-2.86-.79-.61-.54-.92-1.37-.92-2.5 0-1.21.32-2.1.97-2.69.64-.56 1.64-.84 3.01-.84h6.24v2.06z" fill="#37D37A"/></svg>