<svg width="120" height="600" viewBox="0 0 120 600" fill="none" xmlns="http://www.w3.org/2000/svg"><path d="M16.38 246.5v-11.17h3.95c2.85 0 4.72 1.86 4.72 5.59 0 3.72-1.87 5.58-4.72 5.58h-3.95zm1.8-1.6h2.15c1.66 0 2.78-1.07 2.78-3.09v-1.79c0-2.02-1.12-3.09-2.78-3.09h-2.15v7.97zm12.25 1.8c-2.36 0-3.82-1.7-3.82-4.36s1.46-4.35 3.82-4.35c2.45 0 3.7 1.84 3.7 4.14v.66h-5.71v.27c0 1.28.78 2.2 2.19 2.2 1.02 0 1.71-.49 2.2-1.26l1.02 1.01c-.63 1.01-1.84 1.68-3.4 1.68zm0-7.35c-1.2 0-2.01.9-2.01 2.17v.12h3.87v-.16c0-1.28-.7-2.13-1.86-2.13zm9.96 3.17h-4.43v-1.78h4.43v1.78zm4 3.98h-1.75v-8.32h1.74v1.6h.08c.24-.85.96-1.6 2.3-1.6h.45v1.68h-.68c-1.38 0-2.15.46-2.15 1.33v5.31zm5.25-9.8c-.72 0-1.04-.4-1.04-.92v-.27c0-.53.32-.91 1.04-.91s1.03.38 1.03.9v.28c0 .53-.3.91-1.03.91zm-.88 9.8v-8.32h1.75v8.32h-1.75zm6.88.2c-1.57 0-2.6-.6-3.38-1.58l1.12-1.02c.61.74 1.36 1.18 2.35 1.18 1.01 0 1.52-.41 1.52-1.12 0-.52-.32-.92-1.18-1.04l-.77-.1c-1.7-.2-2.73-.94-2.73-2.47 0-1.62 1.26-2.56 3.08-2.56 1.5 0 2.36.5 3.1 1.33l-1.06 1.02a2.65 2.65 0 00-2.04-.94c-.96 0-1.4.41-1.4 1.04 0 .64.4.92 1.28 1.07l.76.1c1.83.27 2.64 1.07 2.64 2.41 0 1.6-1.3 2.67-3.3 2.67zm5.26-.2v-11.84h1.75v7.26h.08l1.15-1.48 2-2.26h2.03L65 241.4l3.26 5.1h-2.08l-2.38-3.97-1.15 1.25v2.72H60.9zm-41.76 21h-1.12c-1.18 0-1.77-.66-1.77-1.73v-10.11h1.74v10.42h1.15v1.42zm4.93.2c-2.36 0-3.82-1.7-3.82-4.36s1.46-4.35 3.82-4.35c2.45 0 3.7 1.84 3.7 4.14v.66h-5.71v.27c0 1.28.78 2.2 2.19 2.2 1.02 0 1.71-.49 2.2-1.26l1.02 1.01c-.63 1.01-1.84 1.68-3.4 1.68zm0-7.35c-1.2 0-2.01.9-2.01 2.17v.12h3.87v-.16c0-1.28-.7-2.13-1.86-2.13zm7.38 7.15H29.7v-8.32h1.75v1.38h.08a2.32 2.32 0 012.33-1.57c1.7 0 2.7 1.18 2.7 3.23v5.28h-1.74v-5.06c0-1.3-.5-1.95-1.57-1.95-.9 0-1.8.47-1.8 1.44v5.57zm12.76 0v-1.38h-.08a2.38 2.38 0 01-2.33 1.57c-2.1 0-3.31-1.61-3.31-4.35 0-2.74 1.21-4.35 3.3-4.35 1.11 0 2 .57 2.34 1.57h.08v-4.9h1.75v11.84H44.2zm-1.88-1.31c1.05 0 1.88-.58 1.88-1.43v-2.84c0-.85-.83-1.43-1.88-1.43-1.2 0-2 .85-2 2.13v1.44c0 1.28.8 2.13 2 2.13zm7-8.5c-.72 0-1.04-.38-1.04-.91v-.27c0-.53.32-.91 1.04-.91s1.03.38 1.03.9v.28c0 .53-.3.91-1.03.91zm-.88 9.81v-8.32h1.75v8.32h-1.75zm5.98 0h-1.74v-8.32h1.74v1.38h.08a2.32 2.32 0 012.34-1.57c1.7 0 2.7 1.18 2.7 3.23v5.28h-1.74v-5.06c0-1.3-.5-1.95-1.57-1.95-.91 0-1.81.47-1.81 1.44v5.57zm14.83.78c0 1.73-1.23 2.61-4.22 2.61-2.72 0-3.78-.73-3.78-2 0-.91.55-1.4 1.43-1.6v-.17c-.61-.2-.95-.66-.95-1.28 0-.87.67-1.28 1.47-1.48v-.06a2.6 2.6 0 01-1.52-2.46c0-1.7 1.2-2.85 3.32-2.85a4 4 0 011.5.25v-.22c0-.74.35-1.18 1.09-1.18h1.28v1.4h-1.7v.34a2.6 2.6 0 011.17 2.26c0 1.68-1.22 2.81-3.33 2.81-.4 0-.78-.05-1.09-.13-.41.15-.8.42-.8.84 0 .44.44.62 1.17.62h2.05c2.05 0 2.91.86 2.91 2.3zm-1.63.2c0-.58-.38-.95-1.52-.95H63.3c-.38.23-.57.56-.57.96 0 .67.5 1.14 1.8 1.14h1.08c1.36 0 2.03-.39 2.03-1.15zm-2.6-5.1c1.02 0 1.6-.46 1.6-1.4v-.32c0-.94-.58-1.4-1.6-1.4-1.03 0-1.62.46-1.62 1.4v.32c0 .94.59 1.4 1.61 1.4zM17.68 288.5l-2.27-8.32h1.7l.84 3.49.75 3.15h.05l.86-3.15 1.01-3.49h1.57l1.02 3.49.88 3.15h.05l.74-3.15.86-3.49h1.62l-2.24 8.32h-1.97l-1.09-3.8-.67-2.33h-.03l-.66 2.34-1.1 3.79h-1.92zm12.22-9.8c-.72 0-1.04-.4-1.04-.92v-.27c0-.53.32-.91 1.04-.91s1.02.38 1.02.9v.28c0 .53-.3.91-1.02.91zm-.88 9.8v-8.32h1.74v8.32h-1.74zm8.06 0h-1.52c-1.2 0-1.84-.67-1.84-1.8v-5.1h-1.3v-1.42h.7c.58 0 .77-.24.77-.82v-1.45h1.57v2.27h1.75v1.42h-1.75v5.48h1.62v1.42zm2.02 0v-11.84h1.74v4.9h.08a2.32 2.32 0 012.34-1.57c1.7 0 2.7 1.18 2.7 3.23v5.28h-1.74v-5.07c0-1.28-.5-1.94-1.57-1.94-.91 0-1.8.47-1.8 1.43v5.58H39.1zm-13.87 21h-1.89l-1-3.02h-4.18l-.98 3.02h-1.84l3.81-11.17h2.27l3.81 11.17zm-3.34-4.58L20.3 300h-.08l-1.62 4.92h3.3zm9.45 4.58H26.5v-1.47h1.52v-8.23h-1.52v-1.47h4.86v1.47h-1.53v8.23h1.53v1.47zm5.84-3.98h-4.43v-1.78h4.43v1.78zm2.25 7.18v-11.52h1.74v1.38h.08c.35-1 1.23-1.57 2.34-1.57 2.1 0 3.3 1.61 3.3 4.35 0 2.74-1.2 4.35-3.3 4.35-1.1 0-1.99-.59-2.34-1.57h-.08v4.58h-1.74zm3.63-4.51c1.2 0 2-.85 2-2.13v-1.44c0-1.28-.8-2.13-2-2.13-1.06 0-1.9.58-1.9 1.43v2.84c0 .85.84 1.43 1.9 1.43zm9.1 1.5c-2.32 0-3.83-1.7-3.83-4.35 0-2.66 1.5-4.35 3.83-4.35 2.32 0 3.82 1.7 3.82 4.35 0 2.66-1.5 4.35-3.82 4.35zm0-1.44c1.18 0 1.98-.73 1.98-2.2v-1.41c0-1.48-.8-2.21-1.98-2.21-1.19 0-1.99.73-1.99 2.2v1.41c0 1.48.8 2.21 1.99 2.21zm7.1 1.25l-2.28-8.32h1.7l.85 3.49.75 3.15h.05l.86-3.15 1.01-3.49h1.57l1.02 3.49.88 3.15h.05l.74-3.15.86-3.49h1.62l-2.24 8.32h-1.97l-1.09-3.8-.67-2.33h-.03l-.66 2.34-1.1 3.79h-1.92zm14.5.2c-2.38 0-3.83-1.7-3.83-4.36s1.45-4.35 3.82-4.35c2.45 0 3.7 1.84 3.7 4.14v.66h-5.71v.27c0 1.28.78 2.2 2.19 2.2 1.02 0 1.71-.49 2.19-1.26l1.02 1.01c-.62 1.01-1.84 1.68-3.39 1.68zm0-7.35c-1.2 0-2.02.9-2.02 2.17v.12h3.87v-.16c0-1.28-.7-2.13-1.86-2.13zm7.36 7.15H79.4v-8.32h1.74v1.6h.08c.24-.85.96-1.6 2.3-1.6h.45v1.68h-.68c-1.38 0-2.15.46-2.15 1.33v5.31zm7.57.2c-2.37 0-3.82-1.7-3.82-4.36s1.45-4.35 3.82-4.35c2.45 0 3.7 1.84 3.7 4.14v.66h-5.72v.27c0 1.28.79 2.2 2.2 2.2 1.02 0 1.7-.49 2.19-1.26l1.02 1.01c-.62 1.01-1.84 1.68-3.4 1.68zm0-7.35c-1.2 0-2.02.9-2.02 2.17v.12h3.88v-.16c0-1.28-.7-2.13-1.86-2.13zm10.86 7.15v-1.38h-.08a2.38 2.38 0 01-2.34 1.57c-2.1 0-3.31-1.61-3.31-4.35 0-2.74 1.22-4.35 3.31-4.35 1.1 0 1.99.57 2.34 1.57h.08v-4.9h1.74v11.84h-1.74zm-1.89-1.31c1.06 0 1.89-.58 1.89-1.43v-2.84c0-.85-.83-1.43-1.89-1.43-1.2 0-2 .85-2 2.13v1.44c0 1.28.8 2.13 2 2.13zm-78.2 22.5c-2.4 0-3.78-1.7-3.78-4.35 0-2.66 1.37-4.35 3.77-4.35 1.67 0 2.72.81 3.22 2.05l-1.44.67c-.24-.77-.83-1.27-1.78-1.27-1.28 0-1.93.88-1.93 2.16v1.5c0 1.27.65 2.15 1.93 2.15 1.01 0 1.6-.54 1.96-1.37l1.32.7c-.54 1.36-1.68 2.11-3.28 2.11zm6.68-.19H24.4v-8.32h1.75v1.6h.08c.24-.85.96-1.6 2.29-1.6h.46v1.68h-.69c-1.37 0-2.14.46-2.14 1.33v5.31zm7.57.2c-2.37 0-3.83-1.7-3.83-4.36s1.46-4.35 3.83-4.35c2.44 0 3.7 1.84 3.7 4.14v.66H31.7v.27c0 1.28.78 2.2 2.2 2.2 1.02 0 1.7-.49 2.18-1.26l1.03 1.01c-.63 1.01-1.84 1.68-3.4 1.68zm0-7.35c-1.2 0-2.02.9-2.02 2.17v.12h3.87v-.16c0-1.28-.7-2.13-1.85-2.13zm10.85 7.15v-1.38h-.08a2.38 2.38 0 01-2.33 1.57c-2.1 0-3.31-1.61-3.31-4.35 0-2.74 1.21-4.35 3.3-4.35 1.11 0 2 .57 2.34 1.57h.08v-4.9h1.75v11.84h-1.75zm-1.88-1.31c1.05 0 1.88-.58 1.88-1.43v-2.84c0-.85-.83-1.43-1.88-1.43-1.2 0-2 .85-2 2.13v1.44c0 1.28.8 2.13 2 2.13zm7-8.5c-.72 0-1.04-.38-1.04-.91v-.27c0-.53.32-.91 1.04-.91s1.02.38 1.02.9v.28c0 .53-.3.91-1.02.91zm-.88 9.81v-8.32h1.74v8.32h-1.74zm8.06 0h-1.52c-1.2 0-1.84-.67-1.84-1.8v-5.1h-1.3v-1.42h.7c.58 0 .77-.24.77-.82v-1.45h1.57v2.27H57v1.42h-1.75v5.48h1.62v1.42zm-35.39 21v-1.38h-.08a2.38 2.38 0 01-2.34 1.57c-2.1 0-3.3-1.61-3.3-4.35 0-2.74 1.2-4.35 3.3-4.35 1.1 0 1.99.57 2.34 1.57h.08v-4.9h1.74v11.84h-1.74zm-1.89-1.31c1.06 0 1.89-.58 1.89-1.43v-2.84c0-.85-.83-1.43-1.89-1.43-1.2 0-2 .85-2 2.13v1.44c0 1.28.8 2.13 2 2.13zm9.4 1.5c-2.38 0-3.83-1.7-3.83-4.35 0-2.66 1.45-4.35 3.82-4.35 2.45 0 3.7 1.84 3.7 4.14v.66h-5.72v.27c0 1.28.79 2.2 2.2 2.2 1.02 0 1.7-.49 2.19-1.26l1.02 1.01c-.62 1.01-1.84 1.68-3.39 1.68zm0-7.34c-1.2 0-2.03.9-2.03 2.17v.12h3.88v-.16c0-1.28-.7-2.13-1.86-2.13zm8.83 7.34c-2.4 0-3.77-1.7-3.77-4.35 0-2.66 1.37-4.35 3.77-4.35 1.67 0 2.72.81 3.22 2.05l-1.44.67c-.24-.77-.83-1.27-1.78-1.27-1.28 0-1.93.88-1.93 2.16v1.5c0 1.27.65 2.15 1.93 2.15 1.01 0 1.6-.54 1.96-1.37l1.32.7c-.54 1.36-1.68 2.11-3.28 2.11zm5.82-10c-.72 0-1.04-.38-1.04-.91v-.27c0-.53.32-.91 1.04-.91s1.03.38 1.03.9v.28c0 .53-.3.91-1.03.91zm-.88 9.81v-8.32h1.75v8.32h-1.75zm6.88.2c-1.57 0-2.6-.6-3.38-1.58l1.12-1.02c.61.74 1.36 1.18 2.35 1.18 1.01 0 1.52-.41 1.52-1.12 0-.52-.32-.92-1.18-1.04l-.77-.1c-1.7-.2-2.73-.94-2.73-2.47 0-1.62 1.26-2.56 3.08-2.56 1.5 0 2.36.5 3.1 1.33l-1.06 1.02a2.65 2.65 0 00-2.04-.94c-.96 0-1.4.41-1.4 1.04 0 .64.4.92 1.28 1.07l.76.1c1.83.27 2.64 1.07 2.64 2.41 0 1.6-1.3 2.67-3.3 2.67zm6.14-10c-.72 0-1.04-.4-1.04-.92v-.27c0-.53.32-.91 1.04-.91s1.03.38 1.03.9v.28c0 .53-.3.91-1.03.91zm-.88 9.8v-8.32h1.75v8.32H54.9zm7.5.2c-2.32 0-3.82-1.7-3.82-4.36s1.5-4.35 3.82-4.35 3.83 1.7 3.83 4.35c0 2.66-1.5 4.35-3.83 4.35zm0-1.45c1.19 0 1.99-.73 1.99-2.2v-1.41c0-1.48-.8-2.21-1.99-2.21-1.18 0-1.98.73-1.98 2.2v1.41c0 1.48.8 2.21 1.98 2.21zm7.51 1.25h-1.74v-8.32h1.74v1.38H70a2.32 2.32 0 012.34-1.57c1.7 0 2.7 1.18 2.7 3.23v5.28H73.3v-5.06c0-1.3-.5-1.95-1.57-1.95-.91 0-1.8.47-1.8 1.44v5.57zm8.42-9.8c-.72 0-1.04-.4-1.04-.92v-.27c0-.53.32-.91 1.04-.91s1.03.38 1.03.9v.28c0 .53-.3.91-1.03.91zm-.88 9.8v-8.32h1.75v8.32h-1.75zm5.98 0h-1.74v-8.32h1.74v1.38h.08a2.32 2.32 0 012.34-1.57c1.7 0 2.7 1.18 2.7 3.23v5.28h-1.74v-5.06c0-1.3-.5-1.95-1.57-1.95-.91 0-1.81.47-1.81 1.44v5.57zm14.83.78c0 1.73-1.23 2.61-4.22 2.61-2.72 0-3.78-.73-3.78-2 0-.91.55-1.4 1.43-1.6v-.17c-.61-.2-.95-.66-.95-1.28 0-.87.67-1.28 1.47-1.48v-.06a2.6 2.6 0 01-1.52-2.46c0-1.7 1.2-2.85 3.32-2.85a4 4 0 011.5.25v-.22c0-.74.35-1.18 1.09-1.18h1.28v1.4h-1.7v.34a2.6 2.6 0 011.17 2.26c0 1.68-1.22 2.81-3.33 2.81-.4 0-.78-.05-1.09-.13-.41.15-.8.42-.8.84 0 .44.44.62 1.17.62h2.05c2.05 0 2.91.86 2.91 2.3zm-1.63.2c0-.58-.38-.95-1.52-.95H92.3c-.38.23-.57.56-.57.96 0 .67.5 1.14 1.8 1.14h1.08c1.36 0 2.03-.39 2.03-1.15zm-2.6-5.1c1.02 0 1.6-.46 1.6-1.4v-.32c0-.94-.58-1.4-1.6-1.4-1.03 0-1.62.46-1.62 1.4v.32c0 .94.59 1.4 1.61 1.4z" fill="#fff"/><path d="M12.33 370.5a2.67 2.67 0 105.34 0 2.67 2.67 0 00-5.34 0zm90 0a2.67 2.67 0 105.34 0 2.67 2.67 0 00-5.34 0zM15 371h90v-1H15v1z" fill="#37D37A"/></svg>