<svg width="120" height="600" viewBox="0 0 120 600" fill="none" xmlns="http://www.w3.org/2000/svg"><path d="M48.1 206.76a7.47 7.47 0 01-5.82-2.48l2.2-2.22a5 5 0 003.85 1.76c1.63 0 2.42-.73 2.42-1.85 0-.84-.35-1.45-1.78-1.65l-1.52-.2c-3.24-.42-4.71-2-4.71-4.58 0-2.75 2.16-4.66 5.76-4.66 2.31 0 4.07.77 5.33 2.16l-2.22 2.24a4.01 4.01 0 00-3.3-1.45c-1.5 0-2.23.57-2.23 1.5 0 1.05.55 1.45 1.83 1.64l1.52.25c3.14.5 4.66 1.91 4.66 4.55 0 2.95-2.15 5-5.98 5zm12.97 0c-3.55 0-5.55-2.35-5.55-6.05 0-3.65 1.94-6.02 5.41-6.02 3.83 0 5.37 2.77 5.37 5.9v.96H58.9v.18c0 1.51.81 2.48 2.55 2.48 1.36 0 2.11-.64 2.84-1.38l1.63 2.02c-1.04 1.19-2.73 1.91-4.84 1.91zm-.07-9.68c-1.3 0-2.11.95-2.11 2.38v.18h4.05v-.2c0-1.41-.64-2.36-1.94-2.36zm11.98 9.68c-3.54 0-5.54-2.35-5.54-6.05 0-3.65 1.93-6.02 5.4-6.02 3.84 0 5.38 2.77 5.38 5.9v.96H70.8v.18c0 1.51.82 2.48 2.55 2.48 1.37 0 2.12-.64 2.84-1.38l1.63 2.02c-1.03 1.19-2.73 1.91-4.84 1.91zm-.07-9.68c-1.3 0-2.1.95-2.1 2.38v.18h4.04v-.2c0-1.41-.64-2.36-1.94-2.36zm-46.2 40.42h-3.35v-15.36h10.19v2.97H26.7v3.15h5.83v2.95H26.7v6.29zm10.53-12.78c-1.32 0-1.9-.68-1.9-1.6v-.5c0-.92.58-1.6 1.9-1.6 1.32 0 1.9.68 1.9 1.6v.5c0 .92-.58 1.6-1.9 1.6zm-1.63 12.78v-11.55h3.26v11.55H35.6zm9.11 0h-3.25v-11.55h3.25v1.96h.14a3.15 3.15 0 013.2-2.22c2.36 0 3.62 1.67 3.62 4.57v7.24h-3.26v-6.97c0-1.48-.42-2.2-1.6-2.2-1.06 0-2.1.55-2.1 1.69v7.48zm14.23.26c-3.54 0-5.54-2.35-5.54-6.05 0-3.65 1.93-6.02 5.4-6.02 3.84 0 5.38 2.77 5.38 5.9v.96h-7.42v.18c0 1.51.82 2.48 2.55 2.48 1.37 0 2.12-.64 2.84-1.38l1.63 2.02c-1.03 1.19-2.73 1.91-4.84 1.91zm-.07-9.68c-1.3 0-2.1.95-2.1 2.38v.18h4.04v-.2c0-1.41-.64-2.36-1.94-2.36zm9.09 9.42h-3.39l3.8-5.87-3.76-5.68h3.7l2.16 3.63h.08l2.1-3.63h3.43l-3.83 5.79 3.85 5.76h-3.7l-2.22-3.76h-.09l-2.13 3.76zm13.95.26c-3.4 0-5.42-2.33-5.42-6.05 0-3.71 2.03-6.02 5.42-6.02 3.38 0 5.4 2.3 5.4 6.02 0 3.72-2.02 6.05-5.4 6.05zm0-2.57c1.27 0 2.02-.84 2.02-2.29v-2.35c0-1.45-.75-2.29-2.02-2.29-1.28 0-2.03.84-2.03 2.29v2.35c0 1.45.75 2.29 2.03 2.29zm11.2 2.57a6.03 6.03 0 01-4.86-2.06l1.92-1.94c.8.9 1.8 1.47 3.05 1.47 1.28 0 1.72-.41 1.72-1.1 0-.57-.35-.85-1.17-.96l-1.25-.16c-2.62-.33-3.9-1.47-3.9-3.56 0-2.22 1.74-3.76 4.5-3.76 2.41 0 3.54.66 4.7 1.8l-1.87 1.91a3.86 3.86 0 00-2.66-1.18c-1.1 0-1.54.4-1.54.96 0 .62.26.95 1.2 1.08l1.3.18c2.52.33 3.81 1.47 3.81 3.47 0 2.23-1.98 3.85-4.95 3.85zm-72.58 17.96c-1.32 0-1.9-.68-1.9-1.6v-.5c0-.92.58-1.6 1.9-1.6 1.32 0 1.9.68 1.9 1.6v.5c0 .92-.58 1.6-1.9 1.6zm-1.63 12.78v-11.55h3.26v11.55H18.9zm9.11 0h-3.25v-11.55h3.25v1.96h.14a3.15 3.15 0 013.2-2.22c2.36 0 3.62 1.67 3.62 4.57v7.24h-3.26v-6.97c0-1.48-.42-2.2-1.6-2.2-1.06 0-2.1.55-2.1 1.69v7.48zm24.51 0h-1.8c-1.17 0-2-.8-2.2-2.02h-.13c-.36 1.5-1.63 2.28-3.4 2.28-2.3 0-3.58-1.36-3.58-3.36 0-2.44 1.9-3.61 4.95-3.61h1.83v-.73c0-1.12-.55-1.82-1.92-1.82-1.3 0-1.98.66-2.48 1.36l-1.94-1.71c.93-1.37 2.25-2.2 4.67-2.2 3.25 0 4.92 1.5 4.92 4.22v5.06h1.08v2.53zm-6.31-2c1.08 0 1.98-.44 1.98-1.5v-1.36H46.6c-1.25 0-1.91.46-1.91 1.3v.33c0 .83.55 1.23 1.52 1.23zm12.72 2.26c-3.47 0-5.39-2.35-5.39-6.05 0-3.7 1.92-6.02 5.4-6.02 2.32 0 3.93 1.12 4.61 3.01l-2.64 1.14a1.91 1.91 0 00-1.98-1.58c-1.32 0-2 .95-2 2.4v2.15c0 1.46.68 2.38 2 2.38 1.3 0 1.83-.8 2.16-1.72l2.53 1.1c-.77 2.2-2.42 3.2-4.69 3.2zm12.25-.26h-1.94c-2.24 0-3.43-1.17-3.43-3.37v-5.65h-1.63v-2.53H65c.89 0 1.15-.44 1.15-1.23v-1.9h2.92v3.13h2.3v2.53h-2.3v6.49h2.12v2.53zm3.62-12.78c-1.32 0-1.89-.68-1.89-1.6v-.5c0-.92.57-1.6 1.9-1.6 1.31 0 1.88.68 1.88 1.6v.5c0 .92-.57 1.6-1.89 1.6zm-1.63 12.78v-11.55h3.26v11.55h-3.26zm10.55.26c-3.4 0-5.42-2.33-5.42-6.05 0-3.71 2.03-6.02 5.42-6.02 3.38 0 5.4 2.3 5.4 6.02 0 3.72-2.02 6.05-5.4 6.05zm0-2.57c1.27 0 2.02-.84 2.02-2.29v-2.35c0-1.45-.75-2.29-2.02-2.29-1.28 0-2.03.84-2.03 2.29v2.35c0 1.45.75 2.29 2.03 2.29zm10.54 2.31h-3.25v-11.55h3.25v1.96h.14a3.15 3.15 0 013.2-2.22c2.36 0 3.62 1.67 3.62 4.57v7.24h-3.26v-6.97c0-1.48-.42-2.2-1.6-2.2-1.06 0-2.1.55-2.1 1.69v7.48z" fill="#fff"/><path d="M33.12 288v4.5h-1.26v-10.47h4.17c1.83 0 2.92 1.07 2.92 2.97 0 1.53-.73 2.56-2.1 2.88l2.4 4.62h-1.42l-2.27-4.5h-2.44zm0-1.08h2.9c1 0 1.58-.54 1.58-1.5v-.78c0-.96-.58-1.5-1.57-1.5h-2.91v3.78zm10.9 5.76c-2.1 0-3.48-1.59-3.48-4.05s1.38-4.05 3.48-4.05c2.07 0 3.35 1.59 3.35 3.78v.57H41.8v.36c0 1.33.86 2.34 2.3 2.34.97 0 1.72-.48 2.13-1.33l.85.61c-.5 1.05-1.6 1.77-3.06 1.77zm0-7.1c-1.3 0-2.22 1-2.22 2.35v.1h4.28v-.16c0-1.37-.83-2.29-2.06-2.29zm10.27 9.92v-4.26h-.06a2.33 2.33 0 01-2.26 1.44c-1.94 0-3.15-1.57-3.15-4.05 0-2.48 1.21-4.05 3.15-4.05 1.06 0 1.86.47 2.26 1.44h.06v-1.26h1.2v10.74h-1.2zm-2-3.9c1.1 0 2-.57 2-1.58v-2.88c0-.85-.9-1.48-2-1.48-1.34 0-2.18.93-2.18 2.31v1.32c0 1.38.84 2.31 2.19 2.31zm10.52.9v-1.26h-.05c-.3.74-.89 1.44-2.18 1.44-1.59 0-2.61-1.08-2.61-2.95v-4.97h1.2v4.75c0 1.38.61 2.09 1.77 2.09.95 0 1.88-.47 1.88-1.49v-5.35h1.2v7.74h-1.2zm6.67.18c-2.1 0-3.48-1.59-3.48-4.05s1.38-4.05 3.48-4.05c2.07 0 3.35 1.59 3.35 3.78v.57h-5.57v.36c0 1.33.86 2.34 2.3 2.34.97 0 1.72-.48 2.13-1.33l.85.61c-.5 1.05-1.6 1.77-3.06 1.77zm0-7.1c-1.3 0-2.22 1-2.22 2.35v.1h4.28v-.16c0-1.37-.83-2.29-2.06-2.29zm7.65 7.1a3.6 3.6 0 01-3.06-1.51l.85-.7a2.8 2.8 0 002.3 1.19c1.02 0 1.62-.47 1.62-1.26 0-.6-.33-1.06-1.35-1.21l-.62-.1c-1.42-.2-2.49-.79-2.49-2.23 0-1.53 1.19-2.28 2.76-2.28 1.25 0 2.07.47 2.7 1.25l-.8.72c-.34-.49-1-.95-1.99-.95s-1.51.46-1.51 1.2c0 .75.52 1.05 1.48 1.2l.6.09c1.71.26 2.37 1 2.37 2.18 0 1.5-1.1 2.41-2.86 2.41zm8.09-.18h-1.5c-.83 0-1.28-.52-1.28-1.27v-5.42h-1.27v-1.05h.72c.51 0 .67-.18.67-.7v-1.44h1.08v2.14h1.7v1.05h-1.7v5.64h1.58v1.05zm-37.93 23h-.68c-.88 0-1.24-.54-1.33-1.26h-.08c-.33.94-1.15 1.44-2.23 1.44-1.64 0-2.6-.9-2.6-2.34 0-1.45 1.05-2.26 3.3-2.26h1.53v-.77c0-1.1-.6-1.7-1.83-1.7-.93 0-1.54.45-1.96 1.16l-.72-.67c.42-.83 1.35-1.52 2.74-1.52 1.86 0 2.97.98 2.97 2.61v4.26h.89v1.05zm-4.13-.84c1.19 0 2.04-.62 2.04-1.41v-1.27h-1.59c-1.36 0-1.98.41-1.98 1.16v.32c0 .77.6 1.2 1.53 1.2zm11.72.84h-1.06c-.83 0-1.28-.52-1.28-1.25v-9.85h1.2v10.05h1.14v1.05zm4.68.18c-2.07 0-3.5-1.59-3.5-4.05s1.43-4.05 3.5-4.05c2.07 0 3.5 1.59 3.5 4.05s-1.43 4.05-3.5 4.05zm0-1.06c1.29 0 2.2-.8 2.2-2.44v-1.1c0-1.64-.91-2.44-2.2-2.44-1.3 0-2.2.8-2.2 2.44v1.1c0 1.64.9 2.44 2.2 2.44zm11.77.88h-.68c-.89 0-1.25-.54-1.34-1.26h-.07c-.33.94-1.16 1.44-2.23 1.44-1.64 0-2.6-.9-2.6-2.34 0-1.45 1.05-2.26 3.3-2.26h1.53v-.77c0-1.1-.6-1.7-1.83-1.7-.93 0-1.55.45-1.97 1.16l-.72-.67c.42-.83 1.36-1.52 2.75-1.52 1.86 0 2.97.98 2.97 2.61v4.26h.89v1.05zm-4.13-.84c1.19 0 2.04-.62 2.04-1.41v-1.27h-1.59c-1.37 0-1.98.41-1.98 1.16v.32c0 .77.6 1.2 1.53 1.2zm7.04.84h-1.2v-7.74h1.2v1.26h.06a2.2 2.2 0 012.19-1.44c1.59 0 2.6 1.08 2.6 2.96v4.96h-1.2v-4.75c0-1.38-.6-2.09-1.76-2.09-.96 0-1.9.48-1.9 1.47v5.37zm-51.48 23h-1.4l-2.71-7.74h1.2l1.35 3.84.84 2.64h.07l.84-2.64 1.38-3.84h1.16l-2.73 7.74zm9.04 0v-1.26h-.06c-.3.74-.88 1.44-2.17 1.44-1.6 0-2.61-1.08-2.61-2.95v-4.97h1.2v4.75c0 1.38.61 2.09 1.77 2.09.94 0 1.87-.47 1.87-1.49v-5.35H33v7.74h-1.2zm6.1 0h-1.07c-.82 0-1.27-.52-1.27-1.25v-9.85h1.2v10.05h1.14v1.05zm2.95 0h-1.2v-7.74h1.2v1.26h.06a2.2 2.2 0 012.19-1.44c1.59 0 2.6 1.08 2.6 2.96v4.96h-1.2v-4.75c0-1.38-.6-2.09-1.76-2.09-.96 0-1.9.48-1.9 1.47v5.37zm10.23.18c-2.1 0-3.48-1.59-3.48-4.05s1.38-4.05 3.48-4.05c2.07 0 3.35 1.59 3.35 3.78v.57h-5.57v.36c0 1.33.86 2.34 2.3 2.34.97 0 1.72-.48 2.13-1.33l.85.61c-.5 1.05-1.6 1.77-3.06 1.77zm0-7.1c-1.3 0-2.22 1-2.22 2.35v.1h4.28v-.16c0-1.37-.83-2.29-2.06-2.29zm6.52 6.92h-1.2v-7.74h1.2v1.43h.08c.27-.74.97-1.43 2.23-1.43h.47v1.2h-.7c-1.3 0-2.08.56-2.08 1.29v5.25zm10.55 0h-.67c-.89 0-1.25-.54-1.34-1.26h-.07c-.33.94-1.16 1.44-2.24 1.44-1.63 0-2.6-.9-2.6-2.34 0-1.45 1.06-2.26 3.3-2.26h1.54v-.77c0-1.1-.6-1.7-1.83-1.7-.93 0-1.55.45-1.97 1.16l-.72-.67c.42-.83 1.35-1.52 2.75-1.52 1.86 0 2.97.98 2.97 2.61v4.26h.88v1.05zm-4.12-.84c1.18 0 2.04-.62 2.04-1.41v-1.27h-1.6c-1.36 0-1.97.41-1.97 1.16v.32c0 .77.6 1.2 1.53 1.2zm5.84.84v-11.1h1.2v4.62h.06c.4-.97 1.2-1.44 2.26-1.44 1.94 0 3.15 1.57 3.15 4.05 0 2.48-1.21 4.05-3.15 4.05-1.06 0-1.8-.48-2.26-1.44h-.06v1.26h-1.2zm3.2-.9c1.34 0 2.18-.93 2.18-2.31v-1.32c0-1.38-.84-2.31-2.19-2.31-1.1 0-2 .63-2 1.48v2.88c0 1.01.9 1.58 2 1.58zm6.1-8.66c-.51 0-.74-.26-.74-.67v-.2c0-.4.23-.67.74-.67.5 0 .73.27.73.68v.19c0 .4-.22.68-.73.68zm-.6 9.56v-7.74h1.2v7.74h-1.2zm6.09 0h-1.07c-.82 0-1.27-.52-1.27-1.25v-9.85h1.2v10.05h1.14v1.05zm2.34-9.56c-.5 0-.73-.26-.73-.67v-.2c0-.4.22-.67.73-.67s.74.27.74.68v.19c0 .4-.23.68-.74.68zm-.6 9.56v-7.74h1.2v7.74h-1.2zm6.96 0h-1.5c-.82 0-1.27-.52-1.27-1.27v-5.42H89.3v-1.05h.72c.51 0 .68-.18.68-.7v-1.44h1.08v2.14h1.7v1.05h-1.7v5.64h1.57v1.05zm4.95-2.48l1.87-5.26h1.19l-3.47 9.54c-.34.93-.66 1.2-1.8 1.2h-.61v-1.05h1.21l.59-1.65-2.9-8.04h1.2l1.86 5.26.36 1.27h.08l.42-1.27zM40.43 361.5h-.67c-.89 0-1.25-.54-1.34-1.26h-.07c-.33.94-1.16 1.44-2.24 1.44-1.63 0-2.6-.9-2.6-2.34 0-1.45 1.06-2.26 3.3-2.26h1.54v-.77c0-1.1-.6-1.7-1.83-1.7-.93 0-1.55.45-1.97 1.16l-.72-.67c.42-.83 1.35-1.52 2.75-1.52 1.86 0 2.97.98 2.97 2.61v4.26h.88v1.05zm-4.12-.84c1.18 0 2.04-.62 2.04-1.41v-1.27h-1.6c-1.36 0-1.97.41-1.97 1.16v.32c0 .77.6 1.2 1.53 1.2zm7.03.84h-1.2v-7.74h1.2v1.26h.06a2.2 2.2 0 012.2-1.44c1.58 0 2.59 1.08 2.59 2.96v4.96h-1.2v-4.75c0-1.38-.6-2.09-1.76-2.09-.96 0-1.89.48-1.89 1.47v5.37zm13.63 0h-.68c-.88 0-1.24-.54-1.33-1.26h-.08c-.33.94-1.15 1.44-2.23 1.44-1.64 0-2.6-.9-2.6-2.34 0-1.45 1.05-2.26 3.3-2.26h1.53v-.77c0-1.1-.6-1.7-1.83-1.7-.93 0-1.54.45-1.96 1.16l-.72-.67c.42-.83 1.35-1.52 2.74-1.52 1.86 0 2.97.98 2.97 2.61v4.26h.89v1.05zm-4.13-.84c1.19 0 2.04-.62 2.04-1.41v-1.27H53.3c-1.36 0-1.98.41-1.98 1.16v.32c0 .77.6 1.2 1.53 1.2zm8.18.84h-1.06c-.83 0-1.28-.52-1.28-1.25v-9.85h1.2v10.05h1.14v1.05zm4.5-2.48l1.87-5.26h1.19l-3.47 9.54c-.34.93-.66 1.2-1.8 1.2h-.61v-1.05h1.21l.59-1.65-2.9-8.04h1.2l1.86 5.26.36 1.27h.08l.42-1.27zm6.85 2.66a3.6 3.6 0 01-3.06-1.51l.86-.7a2.8 2.8 0 002.3 1.19c1.01 0 1.61-.47 1.61-1.26 0-.6-.33-1.06-1.35-1.21l-.61-.1c-1.43-.2-2.5-.79-2.5-2.23 0-1.53 1.2-2.28 2.77-2.28 1.24 0 2.07.47 2.7 1.25l-.8.72c-.34-.49-1-.95-2-.95-.98 0-1.5.46-1.5 1.2 0 .75.52 1.05 1.48 1.2l.6.09c1.7.26 2.37 1 2.37 2.18 0 1.5-1.1 2.41-2.87 2.41zm5.59-9.74c-.51 0-.74-.26-.74-.67v-.2c0-.4.23-.67.74-.67.5 0 .73.27.73.68v.19c0 .4-.22.68-.73.68zm-.6 9.56v-7.74h1.2v7.74h-1.2zm6.07.18a3.6 3.6 0 01-3.06-1.51l.86-.7a2.8 2.8 0 002.3 1.19c1.01 0 1.61-.47 1.61-1.26 0-.6-.33-1.06-1.35-1.21l-.61-.1c-1.43-.2-2.5-.79-2.5-2.23 0-1.53 1.2-2.28 2.77-2.28 1.24 0 2.07.47 2.7 1.25l-.8.72c-.34-.49-1-.95-2-.95-.98 0-1.5.46-1.5 1.2 0 .75.52 1.05 1.48 1.2l.6.09c1.7.26 2.37 1 2.37 2.18 0 1.5-1.1 2.41-2.87 2.41z" fill="#37D37A"/><path d="M12.33 387.5a2.67 2.67 0 105.34 0 2.67 2.67 0 00-5.34 0zm90 0a2.67 2.67 0 105.34 0 2.67 2.67 0 00-5.34 0zM15 388h90v-1H15v1z" fill="#fff"/><path d="M104.5 387.5v30h1v-30h-1zm-89 30v-30h-1v30h1zM25.82 406.5v-6.98h1.32v5.81h2.75v1.17h-4.07zm7.15.12a2.29 2.29 0 01-1.81-.74c-.2-.24-.37-.53-.48-.86a3.6 3.6 0 01-.17-1.14c0-.41.05-.79.16-1.12.11-.33.27-.62.48-.85.2-.24.46-.42.76-.55.3-.13.64-.2 1.02-.2.4 0 .76.07 1.06.21.3.14.54.33.74.57.2.24.33.52.43.84.1.31.15.65.15 1.01v.42h-3.47v.13c0 .38.1.69.32.92.21.23.53.34.95.34.32 0 .58-.07.78-.2.2-.13.39-.3.55-.51l.69.77c-.22.3-.51.54-.88.71-.37.17-.8.25-1.28.25zm-.02-4.5c-.34 0-.61.11-.81.34-.2.23-.3.52-.3.88v.08h2.14v-.09c0-.36-.1-.65-.27-.87-.18-.23-.43-.34-.76-.34zm7.32 4.38a.93.93 0 01-.67-.24 1.17 1.17 0 01-.3-.66h-.06c-.08.34-.26.6-.53.77-.26.17-.6.25-.99.25-.53 0-.94-.14-1.23-.42a1.5 1.5 0 01-.43-1.12c0-.54.2-.94.58-1.2.39-.27.94-.4 1.65-.4h.9v-.38c0-.3-.08-.52-.24-.68-.15-.16-.4-.24-.74-.24-.3 0-.54.07-.73.2-.18.13-.33.28-.46.46l-.76-.68c.2-.3.45-.54.77-.72a2.5 2.5 0 011.27-.28c.71 0 1.25.16 1.61.48.37.32.55.78.55 1.38v2.46h.52v1.02h-.7zm-2.12-.81c.29 0 .53-.06.73-.19.2-.13.3-.31.3-.56v-.69h-.82c-.66 0-1 .21-1 .64v.17c0 .21.07.37.2.48a1 1 0 00.6.15zm3.87.81v-5.22h1.28v1.08h.05c.03-.14.08-.27.15-.4a1.3 1.3 0 01.68-.59c.16-.06.34-.09.55-.09H45v1.21h-.4a2 2 0 00-.98.19c-.22.13-.33.33-.33.62v3.2h-1.28zm3.93 0v-5.22h1.28v.87h.05c.1-.28.27-.51.5-.7.23-.2.55-.29.96-.29.54 0 .95.18 1.24.53.28.35.43.86.43 1.51v3.3h-1.28v-3.17c0-.37-.07-.65-.2-.84-.14-.19-.36-.28-.66-.28a1.29 1.29 0 00-.72.22.79.79 0 00-.23.26.69.69 0 00-.1.36v3.45h-1.27zm8.24 0v-5.22h1.28v.87h.05c.1-.27.26-.5.48-.7.22-.2.52-.29.92-.29.36 0 .67.09.93.26s.45.44.58.79h.02c.1-.3.27-.54.55-.74.28-.2.63-.31 1.05-.31.51 0 .9.18 1.18.53.28.35.42.86.42 1.51v3.3h-1.28v-3.17c0-.75-.28-1.12-.84-1.12a1.16 1.16 0 00-.68.22.75.75 0 00-.29.62v3.45h-1.28v-3.17c0-.75-.28-1.12-.84-1.12a1.13 1.13 0 00-.67.22.75.75 0 00-.3.62v3.45h-1.28zm10.94.12c-.37 0-.7-.06-1-.19-.3-.13-.55-.31-.77-.55-.2-.24-.36-.53-.48-.86a3.6 3.6 0 01-.17-1.14c0-.42.06-.8.17-1.13.12-.33.28-.62.48-.85.22-.24.47-.42.76-.55.3-.13.64-.19 1.01-.19.38 0 .71.06 1.01.19.3.13.56.31.76.55.22.23.38.52.5.85.1.33.16.71.16 1.13 0 .42-.05.8-.17 1.14-.1.33-.27.62-.49.86-.2.24-.46.42-.76.55-.3.13-.63.19-1 .19zm0-1.03c.34 0 .61-.1.8-.31.2-.2.3-.51.3-.91v-.97c0-.4-.1-.7-.3-.9-.19-.2-.46-.31-.8-.31-.33 0-.6.1-.79.31-.19.2-.29.5-.29.9v.97c0 .4.1.7.3.91.19.2.45.31.78.31zm3.57.91v-5.22h1.28v1.08h.05c.03-.14.08-.27.15-.4a1.3 1.3 0 01.68-.59c.16-.06.34-.09.55-.09h.28v1.21h-.4a2 2 0 00-.98.19c-.22.13-.33.33-.33.62v3.2H68.7zm5.99.12a2.3 2.3 0 01-1.81-.74c-.21-.24-.37-.53-.48-.86a3.6 3.6 0 01-.17-1.14c0-.41.05-.79.16-1.12.1-.33.27-.62.48-.85.2-.24.46-.42.76-.55.3-.13.64-.2 1.02-.2.4 0 .76.07 1.06.21.3.14.54.33.74.57.19.24.33.52.43.84.1.31.15.65.15 1.01v.42h-3.47v.13c0 .38.1.69.32.92.2.23.53.34.95.34.32 0 .58-.07.78-.2.2-.13.39-.3.55-.51l.69.77c-.22.3-.51.54-.88.71-.37.17-.8.25-1.28.25zm-.02-4.5c-.34 0-.61.11-.81.34-.2.23-.3.52-.3.88v.08h2.14v-.09c0-.36-.1-.65-.27-.87-.18-.23-.43-.34-.76-.34zM84.5 402.5h7.08l-1.78-1.8.7-.7 3 3-3 3-.7-.7 1.78-1.8H84.5v-1z" fill="#fff"/><path d="M12.33 417.5a2.67 2.67 0 105.34 0 2.67 2.67 0 00-5.34 0zm90 0a2.67 2.67 0 105.34 0 2.67 2.67 0 00-5.34 0zM15 418h90v-1H15v1z" fill="#fff"/></svg>